%TF.GenerationSoftware,KiCad,Pcbnew,10.0.5*%
%TF.CreationDate,1970-01-01T00:00:00+00:00*%
%TF.ProjectId,cv-module,63762d6d-6f64-4756-9c65-2e6b69636164,rev?*%
%TF.SameCoordinates,Original*%
%TF.FileFunction,Paste,Top*%
%TF.FilePolarity,Positive*%
%FSLAX46Y46*%
G04 Gerber Fmt 4.6, Leading zero omitted, Abs format (unit mm)*
G04 Created by KiCad (PCBNEW 10.0.5) date 1970-01-01 00:00:00*
%MOMM*%
%LPD*%
G01*
G04 APERTURE LIST*
G04 Aperture macros list*
%AMRoundRect*
0 Rectangle with rounded corners*
0 $1 Rounding radius*
0 $2 $3 $4 $5 $6 $7 $8 $9 X,Y pos of 4 corners*
0 Add a 4 corners polygon primitive as box body*
4,1,4,$2,$3,$4,$5,$6,$7,$8,$9,$2,$3,0*
0 Add four circle primitives for the rounded corners*
1,1,$1+$1,$2,$3*
1,1,$1+$1,$4,$5*
1,1,$1+$1,$6,$7*
1,1,$1+$1,$8,$9*
0 Add four rect primitives between the rounded corners*
20,1,$1+$1,$2,$3,$4,$5,0*
20,1,$1+$1,$4,$5,$6,$7,0*
20,1,$1+$1,$6,$7,$8,$9,0*
20,1,$1+$1,$8,$9,$2,$3,0*%
G04 Aperture macros list end*
%ADD10RoundRect,0.250000X0.475000X-0.250000X0.475000X0.250000X-0.475000X0.250000X-0.475000X-0.250000X0*%
%ADD11RoundRect,0.250000X0.450000X-0.262500X0.450000X0.262500X-0.450000X0.262500X-0.450000X-0.262500X0*%
%ADD12RoundRect,0.225000X0.375000X-0.225000X0.375000X0.225000X-0.375000X0.225000X-0.375000X-0.225000X0*%
%ADD13RoundRect,0.150000X0.150000X-0.825000X0.150000X0.825000X-0.150000X0.825000X-0.150000X-0.825000X0*%
%ADD14RoundRect,0.250000X1.100000X-0.325000X1.100000X0.325000X-1.100000X0.325000X-1.100000X-0.325000X0*%
%ADD15RoundRect,0.100000X-0.637500X-0.100000X0.637500X-0.100000X0.637500X0.100000X-0.637500X0.100000X0*%
%ADD16RoundRect,0.250000X0.300000X-0.300000X0.300000X0.300000X-0.300000X0.300000X-0.300000X-0.300000X0*%
%ADD17RoundRect,0.250000X-1.275000X-1.125000X1.275000X-1.125000X1.275000X1.125000X-1.275000X1.125000X0*%
%ADD18RoundRect,0.250000X-0.850000X-0.350000X0.850000X-0.350000X0.850000X0.350000X-0.850000X0.350000X0*%
%ADD19R,1.000000X2.200000*%
%ADD20RoundRect,0.250000X0.650000X-1.000000X0.650000X1.000000X-0.650000X1.000000X-0.650000X-1.000000X0*%
%ADD21RoundRect,0.150000X-0.587500X-0.150000X0.587500X-0.150000X0.587500X0.150000X-0.587500X0.150000X0*%
%ADD22R,1.300000X0.800000*%
%ADD23RoundRect,0.250000X1.625000X-0.750000X1.625000X0.750000X-1.625000X0.750000X-1.625000X-0.750000X0*%
%ADD24RoundRect,0.250000X-0.450000X0.262500X-0.450000X-0.262500X0.450000X-0.262500X0.450000X0.262500X0*%
%ADD25RoundRect,0.150000X0.150000X-0.875000X0.150000X0.875000X-0.150000X0.875000X-0.150000X-0.875000X0*%
%ADD26R,2.350000X5.100000*%
%ADD27RoundRect,0.250000X-0.250000X-0.475000X0.250000X-0.475000X0.250000X0.475000X-0.250000X0.475000X0*%
%ADD28R,2.200000X3.800000*%
%ADD29R,3.800000X2.200000*%
%ADD30RoundRect,0.100000X0.155000X0.100000X-0.155000X0.100000X-0.155000X-0.100000X0.155000X-0.100000X0*%
%ADD31R,2.000000X1.200000*%
%ADD32RoundRect,0.150000X-0.512500X-0.150000X0.512500X-0.150000X0.512500X0.150000X-0.512500X0.150000X0*%
G04 APERTURE END LIST*
D10*
%TO.C,C202*%
X42200000Y-20570000D03*
X42200000Y-18670000D03*
%TD*%
D11*
%TO.C,R332*%
X83900000Y-28152500D03*
X83900000Y-26327500D03*
%TD*%
%TO.C,R155*%
X78000000Y-72632500D03*
X78000000Y-70807500D03*
%TD*%
%TO.C,R804*%
X67940000Y-202172499D03*
X67940000Y-200347499D03*
%TD*%
%TO.C,R901*%
X5470000Y-144352500D03*
X5470000Y-142527500D03*
%TD*%
%TO.C,R302*%
X15900000Y-28152500D03*
X15900000Y-26327500D03*
%TD*%
%TO.C,R202*%
X15900000Y-20532500D03*
X15900000Y-18707500D03*
%TD*%
D10*
%TO.C,C252*%
X58000000Y-132390000D03*
X58000000Y-130490000D03*
%TD*%
D11*
%TO.C,R544*%
X25000000Y-103112500D03*
X25000000Y-101287500D03*
%TD*%
D10*
%TO.C,C836*%
X28000000Y-186999999D03*
X28000000Y-185099999D03*
%TD*%
%TO.C,C818*%
X72000000Y-131890000D03*
X72000000Y-129990000D03*
%TD*%
D11*
%TO.C,R111*%
X35000000Y-12912500D03*
X35000000Y-11087500D03*
%TD*%
%TO.C,R315*%
X39000000Y-28152500D03*
X39000000Y-26327500D03*
%TD*%
D10*
%TO.C,C841*%
X48000000Y-191599999D03*
X48000000Y-189699999D03*
%TD*%
D11*
%TO.C,R442*%
X17000000Y-95492500D03*
X17000000Y-93667500D03*
%TD*%
D10*
%TO.C,C805*%
X40000000Y-168390000D03*
X40000000Y-166490000D03*
%TD*%
D11*
%TO.C,R151*%
X52000000Y-72632500D03*
X52000000Y-70807500D03*
%TD*%
%TO.C,R353*%
X70000000Y-87872500D03*
X70000000Y-86047500D03*
%TD*%
D10*
%TO.C,C451*%
X81800000Y-95530000D03*
X81800000Y-93630000D03*
%TD*%
D12*
%TO.C,D551*%
X60000000Y-103850000D03*
X60000000Y-100550000D03*
%TD*%
D11*
%TO.C,R311*%
X35000000Y-28152500D03*
X35000000Y-26327500D03*
%TD*%
%TO.C,R344*%
X25000000Y-87872500D03*
X25000000Y-86047500D03*
%TD*%
D13*
%TO.C,U10*%
X45555000Y-44955000D03*
X46825000Y-44955000D03*
X48095000Y-44955000D03*
X49365000Y-44955000D03*
X50635000Y-44955000D03*
X51905000Y-44955000D03*
X53175000Y-44955000D03*
X54445000Y-44955000D03*
X54445000Y-40005000D03*
X53175000Y-40005000D03*
X51905000Y-40005000D03*
X50635000Y-40005000D03*
X49365000Y-40005000D03*
X48095000Y-40005000D03*
X46825000Y-40005000D03*
X45555000Y-40005000D03*
%TD*%
D11*
%TO.C,R611*%
X35000000Y-51012500D03*
X35000000Y-49187500D03*
%TD*%
D14*
%TO.C,C814*%
X99489999Y-202734999D03*
X99489999Y-199784999D03*
%TD*%
D11*
%TO.C,R152*%
X56000000Y-72632500D03*
X56000000Y-70807500D03*
%TD*%
D10*
%TO.C,C151*%
X81800000Y-72670000D03*
X81800000Y-70770000D03*
%TD*%
%TO.C,C815*%
X84000000Y-131890000D03*
X84000000Y-129990000D03*
%TD*%
%TO.C,C711*%
X43000000Y-144390000D03*
X43000000Y-142490000D03*
%TD*%
D11*
%TO.C,R851*%
X80000000Y-191562499D03*
X80000000Y-189737499D03*
%TD*%
D10*
%TO.C,C705*%
X22000000Y-144390000D03*
X22000000Y-142490000D03*
%TD*%
D11*
%TO.C,R102*%
X15900000Y-12912500D03*
X15900000Y-11087500D03*
%TD*%
D12*
%TO.C,D352*%
X65000000Y-88610000D03*
X65000000Y-85310000D03*
%TD*%
D11*
%TO.C,R443*%
X21000000Y-95492500D03*
X21000000Y-93667500D03*
%TD*%
D10*
%TO.C,C701*%
X8000000Y-144390000D03*
X8000000Y-142490000D03*
%TD*%
D11*
%TO.C,R511*%
X35000000Y-43392500D03*
X35000000Y-41567500D03*
%TD*%
D15*
%TO.C,U17*%
X67137500Y-134725000D03*
X67137500Y-135375000D03*
X67137500Y-136025000D03*
X67137500Y-136675000D03*
X67137500Y-137325000D03*
X67137500Y-137975000D03*
X67137500Y-138625000D03*
X67137500Y-139275000D03*
X67137500Y-139925000D03*
X67137500Y-140575000D03*
X72862500Y-140575000D03*
X72862500Y-139925000D03*
X72862500Y-139275000D03*
X72862500Y-138625000D03*
X72862500Y-137975000D03*
X72862500Y-137325000D03*
X72862500Y-136675000D03*
X72862500Y-136025000D03*
X72862500Y-135375000D03*
X72862500Y-134725000D03*
%TD*%
D14*
%TO.C,C101*%
X30800000Y-13475000D03*
X30800000Y-10525000D03*
%TD*%
D11*
%TO.C,R101*%
X13000000Y-12912500D03*
X13000000Y-11087500D03*
%TD*%
D12*
%TO.C,D251*%
X60000000Y-80990000D03*
X60000000Y-77690000D03*
%TD*%
D16*
%TO.C,D803*%
X44000000Y-128840000D03*
X44000000Y-126040000D03*
%TD*%
D13*
%TO.C,U7*%
X36190000Y-85625000D03*
X37460000Y-85625000D03*
X38730000Y-85625000D03*
X40000000Y-85625000D03*
X41270000Y-85625000D03*
X42540000Y-85625000D03*
X43810000Y-85625000D03*
X43810000Y-80675000D03*
X42540000Y-80675000D03*
X41270000Y-80675000D03*
X40000000Y-80675000D03*
X38730000Y-80675000D03*
X37460000Y-80675000D03*
X36190000Y-80675000D03*
%TD*%
%TO.C,U8*%
X36190000Y-108485000D03*
X37460000Y-108485000D03*
X38730000Y-108485000D03*
X40000000Y-108485000D03*
X41270000Y-108485000D03*
X42540000Y-108485000D03*
X43810000Y-108485000D03*
X43810000Y-103535000D03*
X42540000Y-103535000D03*
X41270000Y-103535000D03*
X40000000Y-103535000D03*
X38730000Y-103535000D03*
X37460000Y-103535000D03*
X36190000Y-103535000D03*
%TD*%
D12*
%TO.C,D351*%
X60000000Y-88610000D03*
X60000000Y-85310000D03*
%TD*%
%TO.C,D801*%
X44000000Y-169090000D03*
X44000000Y-165790000D03*
%TD*%
D11*
%TO.C,R811*%
X40000000Y-172982500D03*
X40000000Y-171157500D03*
%TD*%
D12*
%TO.C,D833*%
X74000000Y-169090000D03*
X74000000Y-165790000D03*
%TD*%
D10*
%TO.C,C542*%
X32799999Y-103150000D03*
X32799999Y-101250000D03*
%TD*%
%TO.C,C723*%
X43000000Y-148390000D03*
X43000000Y-146490000D03*
%TD*%
%TO.C,C835*%
X18750000Y-193370000D03*
X18750000Y-191470000D03*
%TD*%
D11*
%TO.C,R642*%
X17000000Y-110732500D03*
X17000000Y-108907500D03*
%TD*%
%TO.C,R831*%
X40000000Y-186962499D03*
X40000000Y-185137499D03*
%TD*%
%TO.C,R453*%
X70000000Y-95492500D03*
X70000000Y-93667500D03*
%TD*%
D10*
%TO.C,C242*%
X32799999Y-80290000D03*
X32799999Y-78390000D03*
%TD*%
D17*
%TO.C,U16*%
X90764999Y-199734999D03*
X90764999Y-202784999D03*
X94114999Y-199734999D03*
X94114999Y-202784999D03*
D18*
X86139999Y-198979999D03*
X86139999Y-203539999D03*
%TD*%
D14*
%TO.C,C601*%
X30800000Y-51575000D03*
X30800000Y-48625000D03*
%TD*%
D13*
%TO.C,U6*%
X87190000Y-63385000D03*
X88460000Y-63385000D03*
X89730000Y-63385000D03*
X91000000Y-63385000D03*
X92270000Y-63385000D03*
X93540000Y-63385000D03*
X94810000Y-63385000D03*
X94810000Y-58435000D03*
X93540000Y-58435000D03*
X92270000Y-58435000D03*
X91000000Y-58435000D03*
X89730000Y-58435000D03*
X88460000Y-58435000D03*
X87190000Y-58435000D03*
%TD*%
D11*
%TO.C,R641*%
X13000000Y-110732500D03*
X13000000Y-108907500D03*
%TD*%
%TO.C,R541*%
X13000000Y-103112500D03*
X13000000Y-101287500D03*
%TD*%
D10*
%TO.C,C722*%
X39500000Y-148390000D03*
X39500000Y-146490000D03*
%TD*%
D11*
%TO.C,R301*%
X13000000Y-28152500D03*
X13000000Y-26327500D03*
%TD*%
%TO.C,R354*%
X74000000Y-87872500D03*
X74000000Y-86047500D03*
%TD*%
%TO.C,R441*%
X13000000Y-95492500D03*
X13000000Y-93667500D03*
%TD*%
%TO.C,R833*%
X49000000Y-186962499D03*
X49000000Y-185137499D03*
%TD*%
D10*
%TO.C,C816*%
X84000000Y-144890000D03*
X84000000Y-142990000D03*
%TD*%
%TO.C,C838*%
X52000000Y-186999999D03*
X52000000Y-185099999D03*
%TD*%
D11*
%TO.C,R654*%
X74000000Y-110732500D03*
X74000000Y-108907500D03*
%TD*%
%TO.C,R431*%
X76000000Y-35772500D03*
X76000000Y-33947500D03*
%TD*%
%TO.C,R651*%
X52000000Y-110732500D03*
X52000000Y-108907500D03*
%TD*%
D10*
%TO.C,C352*%
X58000000Y-136390000D03*
X58000000Y-134490000D03*
%TD*%
D11*
%TO.C,R543*%
X21000000Y-103112500D03*
X21000000Y-101287500D03*
%TD*%
D13*
%TO.C,U5*%
X87190000Y-25905000D03*
X88460000Y-25905000D03*
X89730000Y-25905000D03*
X91000000Y-25905000D03*
X92270000Y-25905000D03*
X93540000Y-25905000D03*
X94810000Y-25905000D03*
X94810000Y-20955000D03*
X93540000Y-20955000D03*
X92270000Y-20955000D03*
X91000000Y-20955000D03*
X89730000Y-20955000D03*
X88460000Y-20955000D03*
X87190000Y-20955000D03*
%TD*%
%TO.C,U12*%
X12095000Y-129915000D03*
X13365000Y-129915000D03*
X14635000Y-129915000D03*
X15905000Y-129915000D03*
X15905000Y-124965000D03*
X14635000Y-124965000D03*
X13365000Y-124965000D03*
X12095000Y-124965000D03*
%TD*%
D11*
%TO.C,R515*%
X39000000Y-43392500D03*
X39000000Y-41567500D03*
%TD*%
%TO.C,R827*%
X22150000Y-186962499D03*
X22150000Y-185137499D03*
%TD*%
%TO.C,R331*%
X76000000Y-28152500D03*
X76000000Y-26327500D03*
%TD*%
%TO.C,R813*%
X48000000Y-172982500D03*
X48000000Y-171157500D03*
%TD*%
D12*
%TO.C,D823*%
X70000000Y-169090000D03*
X70000000Y-165790000D03*
%TD*%
D10*
%TO.C,C708*%
X32500000Y-144390000D03*
X32500000Y-142490000D03*
%TD*%
D11*
%TO.C,R257*%
X54000000Y-132352500D03*
X54000000Y-130527500D03*
%TD*%
%TO.C,R343*%
X21000000Y-87872500D03*
X21000000Y-86047500D03*
%TD*%
D19*
%TO.C,K802*%
X55650000Y-161440000D03*
X60730000Y-161440000D03*
X63270000Y-161440000D03*
X65810000Y-161440000D03*
X65810000Y-153440000D03*
X63270000Y-153440000D03*
X60730000Y-153440000D03*
X55650000Y-153440000D03*
%TD*%
D10*
%TO.C,C521*%
X60800000Y-43430000D03*
X60800000Y-41530000D03*
%TD*%
%TO.C,C251*%
X81800000Y-80290000D03*
X81800000Y-78390000D03*
%TD*%
D14*
%TO.C,C811*%
X71089999Y-202734999D03*
X71089999Y-199784999D03*
%TD*%
D20*
%TO.C,D804*%
X28779999Y-203259999D03*
X28779999Y-199259999D03*
%TD*%
D11*
%TO.C,R402*%
X15900000Y-35772500D03*
X15900000Y-33947500D03*
%TD*%
D14*
%TO.C,C843*%
X73100000Y-192124999D03*
X73100000Y-189174999D03*
%TD*%
D11*
%TO.C,R341*%
X13000000Y-87872500D03*
X13000000Y-86047500D03*
%TD*%
%TO.C,R401*%
X13000000Y-35772500D03*
X13000000Y-33947500D03*
%TD*%
D10*
%TO.C,C721*%
X36000000Y-148390000D03*
X36000000Y-146490000D03*
%TD*%
%TO.C,C720*%
X32500000Y-148390000D03*
X32500000Y-146490000D03*
%TD*%
%TO.C,C452*%
X58000000Y-140390000D03*
X58000000Y-138490000D03*
%TD*%
D11*
%TO.C,R557*%
X54000000Y-144352500D03*
X54000000Y-142527500D03*
%TD*%
%TO.C,R829*%
X34000000Y-186962499D03*
X34000000Y-185137499D03*
%TD*%
%TO.C,R342*%
X17000000Y-87872500D03*
X17000000Y-86047500D03*
%TD*%
%TO.C,R521*%
X58000000Y-43392500D03*
X58000000Y-41567500D03*
%TD*%
%TO.C,R144*%
X25000000Y-72632500D03*
X25000000Y-70807500D03*
%TD*%
%TO.C,R653*%
X70000000Y-110732500D03*
X70000000Y-108907500D03*
%TD*%
D12*
%TO.C,D813*%
X66000000Y-169090000D03*
X66000000Y-165790000D03*
%TD*%
D11*
%TO.C,R411*%
X35000000Y-35772500D03*
X35000000Y-33947500D03*
%TD*%
%TO.C,R201*%
X13000000Y-20532500D03*
X13000000Y-18707500D03*
%TD*%
%TO.C,R455*%
X78000000Y-95492500D03*
X78000000Y-93667500D03*
%TD*%
D10*
%TO.C,C803*%
X30000000Y-128390000D03*
X30000000Y-126490000D03*
%TD*%
%TO.C,C704*%
X18500000Y-144390000D03*
X18500000Y-142490000D03*
%TD*%
D11*
%TO.C,R157*%
X54000000Y-128352500D03*
X54000000Y-126527500D03*
%TD*%
D10*
%TO.C,C342*%
X32799999Y-87910000D03*
X32799999Y-86010000D03*
%TD*%
%TO.C,C531*%
X80000000Y-43430000D03*
X80000000Y-41530000D03*
%TD*%
D11*
%TO.C,R556*%
X50000000Y-144352500D03*
X50000000Y-142527500D03*
%TD*%
D10*
%TO.C,C341*%
X29000000Y-87910000D03*
X29000000Y-86010000D03*
%TD*%
%TO.C,C710*%
X39500000Y-144390000D03*
X39500000Y-142490000D03*
%TD*%
D12*
%TO.C,D151*%
X60000000Y-73370000D03*
X60000000Y-70070000D03*
%TD*%
D11*
%TO.C,R531*%
X76000000Y-43392500D03*
X76000000Y-41567500D03*
%TD*%
D14*
%TO.C,C840*%
X52000000Y-192124999D03*
X52000000Y-189174999D03*
%TD*%
D11*
%TO.C,R656*%
X50000000Y-148352500D03*
X50000000Y-146527500D03*
%TD*%
D10*
%TO.C,C709*%
X36000000Y-144390000D03*
X36000000Y-142490000D03*
%TD*%
D11*
%TO.C,R552*%
X56000000Y-103112500D03*
X56000000Y-101287500D03*
%TD*%
D21*
%TO.C,U18*%
X83062500Y-136490000D03*
X83062500Y-138390000D03*
X84937500Y-137440000D03*
%TD*%
D10*
%TO.C,C718*%
X25500000Y-148390000D03*
X25500000Y-146490000D03*
%TD*%
D11*
%TO.C,R632*%
X83900000Y-51012500D03*
X83900000Y-49187500D03*
%TD*%
D10*
%TO.C,C142*%
X32799999Y-72670000D03*
X32799999Y-70770000D03*
%TD*%
D13*
%TO.C,U14*%
X85190000Y-108485000D03*
X86460000Y-108485000D03*
X87730000Y-108485000D03*
X89000000Y-108485000D03*
X90270000Y-108485000D03*
X91540000Y-108485000D03*
X92810000Y-108485000D03*
X92810000Y-103535000D03*
X91540000Y-103535000D03*
X90270000Y-103535000D03*
X89000000Y-103535000D03*
X87730000Y-103535000D03*
X86460000Y-103535000D03*
X85190000Y-103535000D03*
%TD*%
D11*
%TO.C,R153*%
X70000000Y-72632500D03*
X70000000Y-70807500D03*
%TD*%
%TO.C,R351*%
X52000000Y-87872500D03*
X52000000Y-86047500D03*
%TD*%
%TO.C,R243*%
X21000000Y-80252500D03*
X21000000Y-78427500D03*
%TD*%
%TO.C,R142*%
X17000000Y-72632500D03*
X17000000Y-70807500D03*
%TD*%
%TO.C,R432*%
X83900000Y-35772500D03*
X83900000Y-33947500D03*
%TD*%
D10*
%TO.C,C842*%
X58000000Y-187099999D03*
X58000000Y-185199999D03*
%TD*%
%TO.C,C703*%
X15000000Y-144390000D03*
X15000000Y-142490000D03*
%TD*%
%TO.C,C819*%
X76000000Y-131890000D03*
X76000000Y-129990000D03*
%TD*%
D22*
%TO.C,U21*%
X9250000Y-185779999D03*
X9250000Y-187049999D03*
X9250000Y-188319999D03*
X18750000Y-188319999D03*
X18750000Y-187049999D03*
X18750000Y-185779999D03*
%TD*%
D11*
%TO.C,R131*%
X76000000Y-12912500D03*
X76000000Y-11087500D03*
%TD*%
%TO.C,R850*%
X77000000Y-191562499D03*
X77000000Y-189737499D03*
%TD*%
D10*
%TO.C,C441*%
X29000000Y-95530000D03*
X29000000Y-93630000D03*
%TD*%
%TO.C,C719*%
X29000000Y-148390000D03*
X29000000Y-146490000D03*
%TD*%
D11*
%TO.C,R803*%
X56000000Y-168352500D03*
X56000000Y-166527500D03*
%TD*%
D10*
%TO.C,C702*%
X11500000Y-144390000D03*
X11500000Y-142490000D03*
%TD*%
D11*
%TO.C,R241*%
X13000000Y-80252500D03*
X13000000Y-78427500D03*
%TD*%
%TO.C,R154*%
X74000000Y-72632500D03*
X74000000Y-70807500D03*
%TD*%
%TO.C,R832*%
X46000000Y-186962499D03*
X46000000Y-185137499D03*
%TD*%
%TO.C,R644*%
X25000000Y-110732500D03*
X25000000Y-108907500D03*
%TD*%
%TO.C,R211*%
X35000000Y-20532500D03*
X35000000Y-18707500D03*
%TD*%
D12*
%TO.C,D802*%
X48000000Y-169090000D03*
X48000000Y-165790000D03*
%TD*%
D11*
%TO.C,R121*%
X58000000Y-12912500D03*
X58000000Y-11087500D03*
%TD*%
%TO.C,R643*%
X21000000Y-110732500D03*
X21000000Y-108907500D03*
%TD*%
%TO.C,R554*%
X74000000Y-103112500D03*
X74000000Y-101287500D03*
%TD*%
%TO.C,R551*%
X52000000Y-103112500D03*
X52000000Y-101287500D03*
%TD*%
D10*
%TO.C,C541*%
X29000000Y-103150000D03*
X29000000Y-101250000D03*
%TD*%
D11*
%TO.C,R244*%
X25000000Y-80252500D03*
X25000000Y-78427500D03*
%TD*%
D10*
%TO.C,C806*%
X52000000Y-168390000D03*
X52000000Y-166490000D03*
%TD*%
D11*
%TO.C,R655*%
X78000000Y-110732500D03*
X78000000Y-108907500D03*
%TD*%
D14*
%TO.C,C301*%
X30800000Y-28715000D03*
X30800000Y-25765000D03*
%TD*%
D10*
%TO.C,C421*%
X60800000Y-35810000D03*
X60800000Y-33910000D03*
%TD*%
D16*
%TO.C,D806*%
X44000000Y-223049999D03*
X44000000Y-220249999D03*
%TD*%
D23*
%TO.C,F801*%
X10899999Y-205509999D03*
X10899999Y-197009999D03*
%TD*%
D13*
%TO.C,U9*%
X45555000Y-22095000D03*
X46825000Y-22095000D03*
X48095000Y-22095000D03*
X49365000Y-22095000D03*
X50635000Y-22095000D03*
X51905000Y-22095000D03*
X53175000Y-22095000D03*
X54445000Y-22095000D03*
X54445000Y-17145000D03*
X53175000Y-17145000D03*
X51905000Y-17145000D03*
X50635000Y-17145000D03*
X49365000Y-17145000D03*
X48095000Y-17145000D03*
X46825000Y-17145000D03*
X45555000Y-17145000D03*
%TD*%
D11*
%TO.C,R115*%
X39000000Y-12912500D03*
X39000000Y-11087500D03*
%TD*%
%TO.C,R456*%
X50000000Y-140352500D03*
X50000000Y-138527500D03*
%TD*%
%TO.C,R532*%
X83900000Y-43392500D03*
X83900000Y-41567500D03*
%TD*%
D12*
%TO.C,D252*%
X65000000Y-80990000D03*
X65000000Y-77690000D03*
%TD*%
%TO.C,D452*%
X65000000Y-96230000D03*
X65000000Y-92930000D03*
%TD*%
D10*
%TO.C,C651*%
X81800000Y-110770000D03*
X81800000Y-108870000D03*
%TD*%
%TO.C,C102*%
X42200000Y-12950000D03*
X42200000Y-11050000D03*
%TD*%
D13*
%TO.C,U2*%
X19190000Y-63385000D03*
X20460000Y-63385000D03*
X21730000Y-63385000D03*
X23000000Y-63385000D03*
X24270000Y-63385000D03*
X25540000Y-63385000D03*
X26810000Y-63385000D03*
X26810000Y-58435000D03*
X25540000Y-58435000D03*
X24270000Y-58435000D03*
X23000000Y-58435000D03*
X21730000Y-58435000D03*
X20460000Y-58435000D03*
X19190000Y-58435000D03*
%TD*%
D11*
%TO.C,R242*%
X17000000Y-80252500D03*
X17000000Y-78427500D03*
%TD*%
D13*
%TO.C,U4*%
X64190000Y-63385000D03*
X65460000Y-63385000D03*
X66730000Y-63385000D03*
X68000000Y-63385000D03*
X69270000Y-63385000D03*
X70540000Y-63385000D03*
X71810000Y-63385000D03*
X71810000Y-58435000D03*
X70540000Y-58435000D03*
X69270000Y-58435000D03*
X68000000Y-58435000D03*
X66730000Y-58435000D03*
X65460000Y-58435000D03*
X64190000Y-58435000D03*
%TD*%
D10*
%TO.C,C131*%
X80000000Y-12950000D03*
X80000000Y-11050000D03*
%TD*%
D12*
%TO.C,D451*%
X60000000Y-96230000D03*
X60000000Y-92930000D03*
%TD*%
D11*
%TO.C,R812*%
X44000000Y-172982500D03*
X44000000Y-171157500D03*
%TD*%
%TO.C,R357*%
X54000000Y-136352500D03*
X54000000Y-134527500D03*
%TD*%
%TO.C,R255*%
X78000000Y-80252500D03*
X78000000Y-78427500D03*
%TD*%
D13*
%TO.C,U1*%
X19190000Y-25905000D03*
X20460000Y-25905000D03*
X21730000Y-25905000D03*
X23000000Y-25905000D03*
X24270000Y-25905000D03*
X25540000Y-25905000D03*
X26810000Y-25905000D03*
X26810000Y-20955000D03*
X25540000Y-20955000D03*
X24270000Y-20955000D03*
X23000000Y-20955000D03*
X21730000Y-20955000D03*
X20460000Y-20955000D03*
X19190000Y-20955000D03*
%TD*%
D24*
%TO.C,R902*%
X6000000Y-156527500D03*
X6000000Y-158352500D03*
%TD*%
D11*
%TO.C,R452*%
X56000000Y-95492500D03*
X56000000Y-93667500D03*
%TD*%
%TO.C,R156*%
X50000000Y-128352500D03*
X50000000Y-126527500D03*
%TD*%
D10*
%TO.C,C321*%
X60800000Y-28190000D03*
X60800000Y-26290000D03*
%TD*%
D11*
%TO.C,R444*%
X25000000Y-95492500D03*
X25000000Y-93667500D03*
%TD*%
D10*
%TO.C,C442*%
X32799999Y-95530000D03*
X32799999Y-93630000D03*
%TD*%
%TO.C,C552*%
X58000000Y-144390000D03*
X58000000Y-142490000D03*
%TD*%
D14*
%TO.C,C501*%
X30800000Y-43955000D03*
X30800000Y-41005000D03*
%TD*%
D19*
%TO.C,K803*%
X73650000Y-161440000D03*
X78730000Y-161440000D03*
X81270000Y-161440000D03*
X83810000Y-161440000D03*
X83810000Y-153440000D03*
X81270000Y-153440000D03*
X78730000Y-153440000D03*
X73650000Y-153440000D03*
%TD*%
D12*
%TO.C,D651*%
X60000000Y-111470000D03*
X60000000Y-108170000D03*
%TD*%
D11*
%TO.C,R615*%
X39000000Y-51012500D03*
X39000000Y-49187500D03*
%TD*%
D10*
%TO.C,C502*%
X42200000Y-43430000D03*
X42200000Y-41530000D03*
%TD*%
D11*
%TO.C,R356*%
X50000000Y-136352500D03*
X50000000Y-134527500D03*
%TD*%
D10*
%TO.C,C715*%
X15000000Y-148390000D03*
X15000000Y-146490000D03*
%TD*%
%TO.C,C241*%
X29000000Y-80290000D03*
X29000000Y-78390000D03*
%TD*%
D11*
%TO.C,R502*%
X15900000Y-43392500D03*
X15900000Y-41567500D03*
%TD*%
D10*
%TO.C,C641*%
X29000000Y-110770000D03*
X29000000Y-108870000D03*
%TD*%
D11*
%TO.C,R231*%
X76000000Y-20532500D03*
X76000000Y-18707500D03*
%TD*%
D10*
%TO.C,C302*%
X42200000Y-28190000D03*
X42200000Y-26290000D03*
%TD*%
D11*
%TO.C,R828*%
X31000000Y-186962499D03*
X31000000Y-185137499D03*
%TD*%
%TO.C,R254*%
X74000000Y-80252500D03*
X74000000Y-78427500D03*
%TD*%
D25*
%TO.C,U11*%
X14285000Y-162090000D03*
X15555000Y-162090000D03*
X16825000Y-162090000D03*
X18095000Y-162090000D03*
X19365000Y-162090000D03*
X20635000Y-162090000D03*
X21905000Y-162090000D03*
X23175000Y-162090000D03*
X24445000Y-162090000D03*
X25715000Y-162090000D03*
X25715000Y-152790000D03*
X24445000Y-152790000D03*
X23175000Y-152790000D03*
X21905000Y-152790000D03*
X20635000Y-152790000D03*
X19365000Y-152790000D03*
X18095000Y-152790000D03*
X16825000Y-152790000D03*
X15555000Y-152790000D03*
X14285000Y-152790000D03*
%TD*%
D10*
%TO.C,C817*%
X68000000Y-131890000D03*
X68000000Y-129990000D03*
%TD*%
D11*
%TO.C,R501*%
X13000000Y-43392500D03*
X13000000Y-41567500D03*
%TD*%
D26*
%TO.C,L802*%
X63925000Y-190649999D03*
X68075000Y-190649999D03*
%TD*%
D10*
%TO.C,C712*%
X46500000Y-144390000D03*
X46500000Y-142490000D03*
%TD*%
D11*
%TO.C,R555*%
X78000000Y-103112500D03*
X78000000Y-101287500D03*
%TD*%
D10*
%TO.C,C152*%
X58000000Y-128390000D03*
X58000000Y-126490000D03*
%TD*%
D11*
%TO.C,R451*%
X52000000Y-95492500D03*
X52000000Y-93667500D03*
%TD*%
D10*
%TO.C,C809*%
X39710000Y-202209999D03*
X39710000Y-200309999D03*
%TD*%
D11*
%TO.C,R355*%
X78000000Y-87872500D03*
X78000000Y-86047500D03*
%TD*%
D14*
%TO.C,C401*%
X30800000Y-36335000D03*
X30800000Y-33385000D03*
%TD*%
D11*
%TO.C,R805*%
X74239999Y-202172499D03*
X74239999Y-200347499D03*
%TD*%
%TO.C,R352*%
X56000000Y-87872500D03*
X56000000Y-86047500D03*
%TD*%
D14*
%TO.C,C808*%
X36530000Y-202734999D03*
X36530000Y-199784999D03*
%TD*%
D10*
%TO.C,C801*%
X22000000Y-128390000D03*
X22000000Y-126490000D03*
%TD*%
D11*
%TO.C,R553*%
X70000000Y-103112500D03*
X70000000Y-101287500D03*
%TD*%
%TO.C,R421*%
X58000000Y-35772500D03*
X58000000Y-33947500D03*
%TD*%
D10*
%TO.C,C713*%
X8000000Y-148390000D03*
X8000000Y-146490000D03*
%TD*%
%TO.C,C431*%
X80000000Y-35810000D03*
X80000000Y-33910000D03*
%TD*%
D11*
%TO.C,R457*%
X54000000Y-140352500D03*
X54000000Y-138527500D03*
%TD*%
D14*
%TO.C,C812*%
X77389999Y-202734999D03*
X77389999Y-199784999D03*
%TD*%
D11*
%TO.C,R141*%
X13000000Y-72632500D03*
X13000000Y-70807500D03*
%TD*%
D10*
%TO.C,C621*%
X60800000Y-51050000D03*
X60800000Y-49150000D03*
%TD*%
%TO.C,C141*%
X29000000Y-72670000D03*
X29000000Y-70770000D03*
%TD*%
D14*
%TO.C,C201*%
X30800000Y-21095000D03*
X30800000Y-18145000D03*
%TD*%
D10*
%TO.C,C707*%
X29000000Y-144390000D03*
X29000000Y-142490000D03*
%TD*%
D11*
%TO.C,R215*%
X39000000Y-20532500D03*
X39000000Y-18707500D03*
%TD*%
D10*
%TO.C,C602*%
X42200000Y-51050000D03*
X42200000Y-49150000D03*
%TD*%
%TO.C,C706*%
X25500000Y-144390000D03*
X25500000Y-142490000D03*
%TD*%
D12*
%TO.C,D805*%
X25000000Y-187699999D03*
X25000000Y-184399999D03*
%TD*%
D27*
%TO.C,C810*%
X52210000Y-194529999D03*
X54110000Y-194529999D03*
%TD*%
D10*
%TO.C,C642*%
X32799999Y-110770000D03*
X32799999Y-108870000D03*
%TD*%
D11*
%TO.C,R542*%
X17000000Y-103112500D03*
X17000000Y-101287500D03*
%TD*%
%TO.C,R652*%
X56000000Y-110732500D03*
X56000000Y-108907500D03*
%TD*%
D28*
%TO.C,U19*%
X102919999Y-211959999D03*
X100379999Y-211959999D03*
X97839999Y-211959999D03*
X95299999Y-211959999D03*
X92759999Y-211959999D03*
X90219999Y-211959999D03*
X87679999Y-211959999D03*
X85139999Y-211959999D03*
X82599999Y-211959999D03*
X80059999Y-211959999D03*
X77519999Y-211959999D03*
X74979999Y-211959999D03*
X72439999Y-211959999D03*
X69899999Y-211959999D03*
X67359999Y-211959999D03*
X64819999Y-211959999D03*
X62279999Y-211959999D03*
X59739999Y-211959999D03*
X57199999Y-211959999D03*
X54659999Y-211959999D03*
D29*
X54089999Y-219109999D03*
X54089999Y-221649999D03*
X54089999Y-224189999D03*
D28*
X102919999Y-231339999D03*
X100379999Y-231339999D03*
X97839999Y-231339999D03*
X95299999Y-231339999D03*
X92759999Y-231339999D03*
X90219999Y-231339999D03*
X87679999Y-231339999D03*
X85139999Y-231339999D03*
X82599999Y-231339999D03*
X80059999Y-231339999D03*
X77519999Y-231339999D03*
X74979999Y-231339999D03*
X72439999Y-231339999D03*
X69899999Y-231339999D03*
X67359999Y-231339999D03*
X64819999Y-231339999D03*
X62279999Y-231339999D03*
X59739999Y-231339999D03*
X57199999Y-231339999D03*
X54659999Y-231339999D03*
%TD*%
D11*
%TO.C,R132*%
X83900000Y-12912500D03*
X83900000Y-11087500D03*
%TD*%
%TO.C,R621*%
X58000000Y-51012500D03*
X58000000Y-49187500D03*
%TD*%
D10*
%TO.C,C837*%
X43000000Y-186999999D03*
X43000000Y-185099999D03*
%TD*%
%TO.C,C551*%
X81800000Y-103150000D03*
X81800000Y-101250000D03*
%TD*%
D11*
%TO.C,R415*%
X39000000Y-35772500D03*
X39000000Y-33947500D03*
%TD*%
%TO.C,R657*%
X54000000Y-148352500D03*
X54000000Y-146527500D03*
%TD*%
D10*
%TO.C,C714*%
X11500000Y-148390000D03*
X11500000Y-146490000D03*
%TD*%
D11*
%TO.C,R815*%
X56000000Y-172982500D03*
X56000000Y-171157500D03*
%TD*%
D10*
%TO.C,C121*%
X60800000Y-12950000D03*
X60800000Y-11050000D03*
%TD*%
D11*
%TO.C,R816*%
X60000000Y-172982500D03*
X60000000Y-171157500D03*
%TD*%
%TO.C,R221*%
X58000000Y-20532500D03*
X58000000Y-18707500D03*
%TD*%
D30*
%TO.C,Q801*%
X59355000Y-166940000D03*
X59355000Y-167940000D03*
X60645000Y-167440000D03*
%TD*%
D11*
%TO.C,R631*%
X76000000Y-51012500D03*
X76000000Y-49187500D03*
%TD*%
D10*
%TO.C,C351*%
X81800000Y-87910000D03*
X81800000Y-86010000D03*
%TD*%
D14*
%TO.C,C807*%
X32729999Y-202734999D03*
X32729999Y-199784999D03*
%TD*%
D11*
%TO.C,R602*%
X15900000Y-51012500D03*
X15900000Y-49187500D03*
%TD*%
D10*
%TO.C,C402*%
X42200000Y-35810000D03*
X42200000Y-33910000D03*
%TD*%
D11*
%TO.C,R321*%
X58000000Y-28152500D03*
X58000000Y-26327500D03*
%TD*%
D14*
%TO.C,C813*%
X81189999Y-202734999D03*
X81189999Y-199784999D03*
%TD*%
D10*
%TO.C,C652*%
X58000000Y-148390000D03*
X58000000Y-146490000D03*
%TD*%
D11*
%TO.C,R814*%
X52000000Y-172982500D03*
X52000000Y-171157500D03*
%TD*%
%TO.C,R143*%
X21000000Y-72632500D03*
X21000000Y-70807500D03*
%TD*%
%TO.C,R802*%
X40000000Y-128352500D03*
X40000000Y-126527500D03*
%TD*%
%TO.C,R256*%
X50000000Y-132352500D03*
X50000000Y-130527500D03*
%TD*%
D10*
%TO.C,C231*%
X80000000Y-20570000D03*
X80000000Y-18670000D03*
%TD*%
D19*
%TO.C,K801*%
X37650000Y-161440000D03*
X42730000Y-161440000D03*
X45270000Y-161440000D03*
X47810000Y-161440000D03*
X47810000Y-153440000D03*
X45270000Y-153440000D03*
X42730000Y-153440000D03*
X37650000Y-153440000D03*
%TD*%
D11*
%TO.C,R454*%
X74000000Y-95492500D03*
X74000000Y-93667500D03*
%TD*%
D10*
%TO.C,C724*%
X46500000Y-148390000D03*
X46500000Y-146490000D03*
%TD*%
D11*
%TO.C,R801*%
X36000000Y-128352500D03*
X36000000Y-126527500D03*
%TD*%
%TO.C,R830*%
X37000000Y-186962499D03*
X37000000Y-185137499D03*
%TD*%
D14*
%TO.C,C802*%
X26000000Y-128915000D03*
X26000000Y-125965000D03*
%TD*%
D11*
%TO.C,R252*%
X56000000Y-80252500D03*
X56000000Y-78427500D03*
%TD*%
%TO.C,R601*%
X13000000Y-51012500D03*
X13000000Y-49187500D03*
%TD*%
D10*
%TO.C,C717*%
X22000000Y-148390000D03*
X22000000Y-146490000D03*
%TD*%
D12*
%TO.C,D152*%
X65000000Y-73370000D03*
X65000000Y-70070000D03*
%TD*%
D10*
%TO.C,C631*%
X80000000Y-51050000D03*
X80000000Y-49150000D03*
%TD*%
D11*
%TO.C,R251*%
X52000000Y-80252500D03*
X52000000Y-78427500D03*
%TD*%
D12*
%TO.C,D552*%
X65000000Y-103850000D03*
X65000000Y-100550000D03*
%TD*%
D11*
%TO.C,R232*%
X83900000Y-20532500D03*
X83900000Y-18707500D03*
%TD*%
D13*
%TO.C,U13*%
X85190000Y-85625000D03*
X86460000Y-85625000D03*
X87730000Y-85625000D03*
X89000000Y-85625000D03*
X90270000Y-85625000D03*
X91540000Y-85625000D03*
X92810000Y-85625000D03*
X92810000Y-80675000D03*
X91540000Y-80675000D03*
X90270000Y-80675000D03*
X89000000Y-80675000D03*
X87730000Y-80675000D03*
X86460000Y-80675000D03*
X85190000Y-80675000D03*
%TD*%
%TO.C,U3*%
X64190000Y-25905000D03*
X65460000Y-25905000D03*
X66730000Y-25905000D03*
X68000000Y-25905000D03*
X69270000Y-25905000D03*
X70540000Y-25905000D03*
X71810000Y-25905000D03*
X71810000Y-20955000D03*
X70540000Y-20955000D03*
X69270000Y-20955000D03*
X68000000Y-20955000D03*
X66730000Y-20955000D03*
X65460000Y-20955000D03*
X64190000Y-20955000D03*
%TD*%
D31*
%TO.C,L801*%
X16279999Y-199989999D03*
X16279999Y-202529999D03*
X23779999Y-202529999D03*
X23779999Y-199989999D03*
%TD*%
D11*
%TO.C,R253*%
X70000000Y-80252500D03*
X70000000Y-78427500D03*
%TD*%
D10*
%TO.C,C716*%
X18500000Y-148390000D03*
X18500000Y-146490000D03*
%TD*%
%TO.C,C221*%
X60800000Y-20570000D03*
X60800000Y-18670000D03*
%TD*%
D12*
%TO.C,D652*%
X65000000Y-111470000D03*
X65000000Y-108170000D03*
%TD*%
D32*
%TO.C,U22*%
X56862500Y-189699999D03*
X56862500Y-190649999D03*
X56862500Y-191599999D03*
X59137500Y-191599999D03*
X59137500Y-190649999D03*
X59137500Y-189699999D03*
%TD*%
D10*
%TO.C,C331*%
X80000000Y-28190000D03*
X80000000Y-26290000D03*
%TD*%
M02*
