%TF.GenerationSoftware,KiCad,Pcbnew,10.0.5*%
%TF.CreationDate,1970-01-01T00:00:00+00:00*%
%TF.ProjectId,cv-module,63762d6d-6f64-4756-9c65-2e6b69636164,rev?*%
%TF.SameCoordinates,Original*%
%TF.FileFunction,Soldermask,Bot*%
%TF.FilePolarity,Negative*%
%FSLAX46Y46*%
G04 Gerber Fmt 4.6, Leading zero omitted, Abs format (unit mm)*
G04 Created by KiCad (PCBNEW 10.0.5) date 1970-01-01 00:00:00*
%MOMM*%
%LPD*%
G01*
G04 APERTURE LIST*
%ADD10R,1.700000X1.700000*%
%ADD11C,1.700000*%
%ADD12R,1.600000X1.600000*%
%ADD13C,1.600000*%
%ADD14C,3.200000*%
%ADD15C,2.200000*%
%ADD16C,1.850000*%
G04 APERTURE END LIST*
D10*
%TO.C,J17*%
X26000000Y-176519999D03*
D11*
X26000000Y-179059999D03*
%TD*%
D12*
%TO.C,U15*%
X44940000Y-201259999D03*
D13*
X47480000Y-201259999D03*
X50020000Y-201259999D03*
X55100000Y-201259999D03*
X57640000Y-201259999D03*
X60180000Y-201259999D03*
X62720000Y-201259999D03*
%TD*%
D10*
%TO.C,J3*%
X6000000Y-27240000D03*
D11*
X6000000Y-29780000D03*
%TD*%
D14*
%TO.C,H905*%
X3230000Y-233770000D03*
%TD*%
D10*
%TO.C,J6*%
X6000000Y-50100000D03*
D11*
X6000000Y-52640000D03*
%TD*%
D10*
%TO.C,J2*%
X6000000Y-19620000D03*
D11*
X6000000Y-22160000D03*
%TD*%
D10*
%TO.C,J18*%
X32000000Y-176519999D03*
D11*
X32000000Y-179059999D03*
X32000000Y-181599999D03*
%TD*%
D10*
%TO.C,J8*%
X6000000Y-198259999D03*
D11*
X6000000Y-200799999D03*
%TD*%
D14*
%TO.C,H901*%
X20030000Y-8700000D03*
%TD*%
D10*
%TO.C,J16*%
X20000000Y-176519999D03*
D11*
X20000000Y-179059999D03*
X20000000Y-181599999D03*
%TD*%
D10*
%TO.C,J4*%
X6000000Y-34860000D03*
D11*
X6000000Y-37400000D03*
%TD*%
D10*
%TO.C,J19*%
X38000000Y-176519999D03*
D11*
X38000000Y-179059999D03*
%TD*%
D14*
%TO.C,H906*%
X48790000Y-233770000D03*
%TD*%
%TO.C,H904*%
X102090000Y-121230000D03*
%TD*%
%TO.C,H902*%
X102090000Y-8700000D03*
%TD*%
D10*
%TO.C,J5*%
X6000000Y-42480000D03*
D11*
X6000000Y-45020000D03*
%TD*%
D10*
%TO.C,J15*%
X14000000Y-176519999D03*
D11*
X14000000Y-179059999D03*
X14000000Y-181599999D03*
%TD*%
D15*
%TO.C,U19*%
X102789999Y-218924999D03*
D16*
X99759999Y-219224999D03*
X99759999Y-224074999D03*
D15*
X102789999Y-224374999D03*
%TD*%
D10*
%TO.C,J1*%
X6000000Y-12000000D03*
D11*
X6000000Y-14540000D03*
%TD*%
D14*
%TO.C,H903*%
X3230000Y-121230000D03*
%TD*%
M02*
