%TF.GenerationSoftware,KiCad,Pcbnew,10.0.5*%
%TF.CreationDate,1970-01-01T00:00:00+00:00*%
%TF.ProjectId,cv-module,63762d6d-6f64-4756-9c65-2e6b69636164,rev?*%
%TF.SameCoordinates,Original*%
%TF.FileFunction,Legend,Top*%
%TF.FilePolarity,Positive*%
%FSLAX46Y46*%
G04 Gerber Fmt 4.6, Leading zero omitted, Abs format (unit mm)*
G04 Created by KiCad (PCBNEW 10.0.5) date 1970-01-01 00:00:00*
%MOMM*%
%LPD*%
G01*
G04 APERTURE LIST*
%ADD10C,0.150000*%
%ADD11C,0.120000*%
%ADD12C,0.110000*%
G04 APERTURE END LIST*
D10*
X52601905Y-190014818D02*
X52601905Y-190824341D01*
X52601905Y-190824341D02*
X52649524Y-190919579D01*
X52649524Y-190919579D02*
X52697143Y-190967199D01*
X52697143Y-190967199D02*
X52792381Y-191014818D01*
X52792381Y-191014818D02*
X52982857Y-191014818D01*
X52982857Y-191014818D02*
X53078095Y-190967199D01*
X53078095Y-190967199D02*
X53125714Y-190919579D01*
X53125714Y-190919579D02*
X53173333Y-190824341D01*
X53173333Y-190824341D02*
X53173333Y-190014818D01*
X54173333Y-191014818D02*
X53601905Y-191014818D01*
X53887619Y-191014818D02*
X53887619Y-190014818D01*
X53887619Y-190014818D02*
X53792381Y-190157675D01*
X53792381Y-190157675D02*
X53697143Y-190252913D01*
X53697143Y-190252913D02*
X53601905Y-190300532D01*
X55078095Y-190014818D02*
X54601905Y-190014818D01*
X54601905Y-190014818D02*
X54554286Y-190491008D01*
X54554286Y-190491008D02*
X54601905Y-190443389D01*
X54601905Y-190443389D02*
X54697143Y-190395770D01*
X54697143Y-190395770D02*
X54935238Y-190395770D01*
X54935238Y-190395770D02*
X55030476Y-190443389D01*
X55030476Y-190443389D02*
X55078095Y-190491008D01*
X55078095Y-190491008D02*
X55125714Y-190586246D01*
X55125714Y-190586246D02*
X55125714Y-190824341D01*
X55125714Y-190824341D02*
X55078095Y-190919579D01*
X55078095Y-190919579D02*
X55030476Y-190967199D01*
X55030476Y-190967199D02*
X54935238Y-191014818D01*
X54935238Y-191014818D02*
X54697143Y-191014818D01*
X54697143Y-191014818D02*
X54601905Y-190967199D01*
X54601905Y-190967199D02*
X54554286Y-190919579D01*
X51554819Y-43718094D02*
X52364342Y-43718094D01*
X52364342Y-43718094D02*
X52459580Y-43670475D01*
X52459580Y-43670475D02*
X52507200Y-43622856D01*
X52507200Y-43622856D02*
X52554819Y-43527618D01*
X52554819Y-43527618D02*
X52554819Y-43337142D01*
X52554819Y-43337142D02*
X52507200Y-43241904D01*
X52507200Y-43241904D02*
X52459580Y-43194285D01*
X52459580Y-43194285D02*
X52364342Y-43146666D01*
X52364342Y-43146666D02*
X51554819Y-43146666D01*
X52554819Y-42146666D02*
X52554819Y-42718094D01*
X52554819Y-42432380D02*
X51554819Y-42432380D01*
X51554819Y-42432380D02*
X51697676Y-42527618D01*
X51697676Y-42527618D02*
X51792914Y-42622856D01*
X51792914Y-42622856D02*
X51840533Y-42718094D01*
X51554819Y-41527618D02*
X51554819Y-41432380D01*
X51554819Y-41432380D02*
X51602438Y-41337142D01*
X51602438Y-41337142D02*
X51650057Y-41289523D01*
X51650057Y-41289523D02*
X51745295Y-41241904D01*
X51745295Y-41241904D02*
X51935771Y-41194285D01*
X51935771Y-41194285D02*
X52173866Y-41194285D01*
X52173866Y-41194285D02*
X52364342Y-41241904D01*
X52364342Y-41241904D02*
X52459580Y-41289523D01*
X52459580Y-41289523D02*
X52507200Y-41337142D01*
X52507200Y-41337142D02*
X52554819Y-41432380D01*
X52554819Y-41432380D02*
X52554819Y-41527618D01*
X52554819Y-41527618D02*
X52507200Y-41622856D01*
X52507200Y-41622856D02*
X52459580Y-41670475D01*
X52459580Y-41670475D02*
X52364342Y-41718094D01*
X52364342Y-41718094D02*
X52173866Y-41765713D01*
X52173866Y-41765713D02*
X51935771Y-41765713D01*
X51935771Y-41765713D02*
X51745295Y-41718094D01*
X51745295Y-41718094D02*
X51650057Y-41670475D01*
X51650057Y-41670475D02*
X51602438Y-41622856D01*
X51602438Y-41622856D02*
X51554819Y-41527618D01*
X68761905Y-132904819D02*
X68761905Y-133714342D01*
X68761905Y-133714342D02*
X68809524Y-133809580D01*
X68809524Y-133809580D02*
X68857143Y-133857200D01*
X68857143Y-133857200D02*
X68952381Y-133904819D01*
X68952381Y-133904819D02*
X69142857Y-133904819D01*
X69142857Y-133904819D02*
X69238095Y-133857200D01*
X69238095Y-133857200D02*
X69285714Y-133809580D01*
X69285714Y-133809580D02*
X69333333Y-133714342D01*
X69333333Y-133714342D02*
X69333333Y-132904819D01*
X70333333Y-133904819D02*
X69761905Y-133904819D01*
X70047619Y-133904819D02*
X70047619Y-132904819D01*
X70047619Y-132904819D02*
X69952381Y-133047676D01*
X69952381Y-133047676D02*
X69857143Y-133142914D01*
X69857143Y-133142914D02*
X69761905Y-133190533D01*
X70666667Y-132904819D02*
X71333333Y-132904819D01*
X71333333Y-132904819D02*
X70904762Y-133904819D01*
X34174819Y-83911904D02*
X34984342Y-83911904D01*
X34984342Y-83911904D02*
X35079580Y-83864285D01*
X35079580Y-83864285D02*
X35127200Y-83816666D01*
X35127200Y-83816666D02*
X35174819Y-83721428D01*
X35174819Y-83721428D02*
X35174819Y-83530952D01*
X35174819Y-83530952D02*
X35127200Y-83435714D01*
X35127200Y-83435714D02*
X35079580Y-83388095D01*
X35079580Y-83388095D02*
X34984342Y-83340476D01*
X34984342Y-83340476D02*
X34174819Y-83340476D01*
X34174819Y-82959523D02*
X34174819Y-82292857D01*
X34174819Y-82292857D02*
X35174819Y-82721428D01*
X34174819Y-106771904D02*
X34984342Y-106771904D01*
X34984342Y-106771904D02*
X35079580Y-106724285D01*
X35079580Y-106724285D02*
X35127200Y-106676666D01*
X35127200Y-106676666D02*
X35174819Y-106581428D01*
X35174819Y-106581428D02*
X35174819Y-106390952D01*
X35174819Y-106390952D02*
X35127200Y-106295714D01*
X35127200Y-106295714D02*
X35079580Y-106248095D01*
X35079580Y-106248095D02*
X34984342Y-106200476D01*
X34984342Y-106200476D02*
X34174819Y-106200476D01*
X34603390Y-105581428D02*
X34555771Y-105676666D01*
X34555771Y-105676666D02*
X34508152Y-105724285D01*
X34508152Y-105724285D02*
X34412914Y-105771904D01*
X34412914Y-105771904D02*
X34365295Y-105771904D01*
X34365295Y-105771904D02*
X34270057Y-105724285D01*
X34270057Y-105724285D02*
X34222438Y-105676666D01*
X34222438Y-105676666D02*
X34174819Y-105581428D01*
X34174819Y-105581428D02*
X34174819Y-105390952D01*
X34174819Y-105390952D02*
X34222438Y-105295714D01*
X34222438Y-105295714D02*
X34270057Y-105248095D01*
X34270057Y-105248095D02*
X34365295Y-105200476D01*
X34365295Y-105200476D02*
X34412914Y-105200476D01*
X34412914Y-105200476D02*
X34508152Y-105248095D01*
X34508152Y-105248095D02*
X34555771Y-105295714D01*
X34555771Y-105295714D02*
X34603390Y-105390952D01*
X34603390Y-105390952D02*
X34603390Y-105581428D01*
X34603390Y-105581428D02*
X34651009Y-105676666D01*
X34651009Y-105676666D02*
X34698628Y-105724285D01*
X34698628Y-105724285D02*
X34793866Y-105771904D01*
X34793866Y-105771904D02*
X34984342Y-105771904D01*
X34984342Y-105771904D02*
X35079580Y-105724285D01*
X35079580Y-105724285D02*
X35127200Y-105676666D01*
X35127200Y-105676666D02*
X35174819Y-105581428D01*
X35174819Y-105581428D02*
X35174819Y-105390952D01*
X35174819Y-105390952D02*
X35127200Y-105295714D01*
X35127200Y-105295714D02*
X35079580Y-105248095D01*
X35079580Y-105248095D02*
X34984342Y-105200476D01*
X34984342Y-105200476D02*
X34793866Y-105200476D01*
X34793866Y-105200476D02*
X34698628Y-105248095D01*
X34698628Y-105248095D02*
X34651009Y-105295714D01*
X34651009Y-105295714D02*
X34603390Y-105390952D01*
X89941904Y-196214818D02*
X89941904Y-197024341D01*
X89941904Y-197024341D02*
X89989523Y-197119579D01*
X89989523Y-197119579D02*
X90037142Y-197167199D01*
X90037142Y-197167199D02*
X90132380Y-197214818D01*
X90132380Y-197214818D02*
X90322856Y-197214818D01*
X90322856Y-197214818D02*
X90418094Y-197167199D01*
X90418094Y-197167199D02*
X90465713Y-197119579D01*
X90465713Y-197119579D02*
X90513332Y-197024341D01*
X90513332Y-197024341D02*
X90513332Y-196214818D01*
X91513332Y-197214818D02*
X90941904Y-197214818D01*
X91227618Y-197214818D02*
X91227618Y-196214818D01*
X91227618Y-196214818D02*
X91132380Y-196357675D01*
X91132380Y-196357675D02*
X91037142Y-196452913D01*
X91037142Y-196452913D02*
X90941904Y-196500532D01*
X92370475Y-196214818D02*
X92179999Y-196214818D01*
X92179999Y-196214818D02*
X92084761Y-196262437D01*
X92084761Y-196262437D02*
X92037142Y-196310056D01*
X92037142Y-196310056D02*
X91941904Y-196452913D01*
X91941904Y-196452913D02*
X91894285Y-196643389D01*
X91894285Y-196643389D02*
X91894285Y-197024341D01*
X91894285Y-197024341D02*
X91941904Y-197119579D01*
X91941904Y-197119579D02*
X91989523Y-197167199D01*
X91989523Y-197167199D02*
X92084761Y-197214818D01*
X92084761Y-197214818D02*
X92275237Y-197214818D01*
X92275237Y-197214818D02*
X92370475Y-197167199D01*
X92370475Y-197167199D02*
X92418094Y-197119579D01*
X92418094Y-197119579D02*
X92465713Y-197024341D01*
X92465713Y-197024341D02*
X92465713Y-196786246D01*
X92465713Y-196786246D02*
X92418094Y-196691008D01*
X92418094Y-196691008D02*
X92370475Y-196643389D01*
X92370475Y-196643389D02*
X92275237Y-196595770D01*
X92275237Y-196595770D02*
X92084761Y-196595770D01*
X92084761Y-196595770D02*
X91989523Y-196643389D01*
X91989523Y-196643389D02*
X91941904Y-196691008D01*
X91941904Y-196691008D02*
X91894285Y-196786246D01*
X85174819Y-61671904D02*
X85984342Y-61671904D01*
X85984342Y-61671904D02*
X86079580Y-61624285D01*
X86079580Y-61624285D02*
X86127200Y-61576666D01*
X86127200Y-61576666D02*
X86174819Y-61481428D01*
X86174819Y-61481428D02*
X86174819Y-61290952D01*
X86174819Y-61290952D02*
X86127200Y-61195714D01*
X86127200Y-61195714D02*
X86079580Y-61148095D01*
X86079580Y-61148095D02*
X85984342Y-61100476D01*
X85984342Y-61100476D02*
X85174819Y-61100476D01*
X85174819Y-60195714D02*
X85174819Y-60386190D01*
X85174819Y-60386190D02*
X85222438Y-60481428D01*
X85222438Y-60481428D02*
X85270057Y-60529047D01*
X85270057Y-60529047D02*
X85412914Y-60624285D01*
X85412914Y-60624285D02*
X85603390Y-60671904D01*
X85603390Y-60671904D02*
X85984342Y-60671904D01*
X85984342Y-60671904D02*
X86079580Y-60624285D01*
X86079580Y-60624285D02*
X86127200Y-60576666D01*
X86127200Y-60576666D02*
X86174819Y-60481428D01*
X86174819Y-60481428D02*
X86174819Y-60290952D01*
X86174819Y-60290952D02*
X86127200Y-60195714D01*
X86127200Y-60195714D02*
X86079580Y-60148095D01*
X86079580Y-60148095D02*
X85984342Y-60100476D01*
X85984342Y-60100476D02*
X85746247Y-60100476D01*
X85746247Y-60100476D02*
X85651009Y-60148095D01*
X85651009Y-60148095D02*
X85603390Y-60195714D01*
X85603390Y-60195714D02*
X85555771Y-60290952D01*
X85555771Y-60290952D02*
X85555771Y-60481428D01*
X85555771Y-60481428D02*
X85603390Y-60576666D01*
X85603390Y-60576666D02*
X85651009Y-60624285D01*
X85651009Y-60624285D02*
X85746247Y-60671904D01*
X85174819Y-24191904D02*
X85984342Y-24191904D01*
X85984342Y-24191904D02*
X86079580Y-24144285D01*
X86079580Y-24144285D02*
X86127200Y-24096666D01*
X86127200Y-24096666D02*
X86174819Y-24001428D01*
X86174819Y-24001428D02*
X86174819Y-23810952D01*
X86174819Y-23810952D02*
X86127200Y-23715714D01*
X86127200Y-23715714D02*
X86079580Y-23668095D01*
X86079580Y-23668095D02*
X85984342Y-23620476D01*
X85984342Y-23620476D02*
X85174819Y-23620476D01*
X85174819Y-22668095D02*
X85174819Y-23144285D01*
X85174819Y-23144285D02*
X85651009Y-23191904D01*
X85651009Y-23191904D02*
X85603390Y-23144285D01*
X85603390Y-23144285D02*
X85555771Y-23049047D01*
X85555771Y-23049047D02*
X85555771Y-22810952D01*
X85555771Y-22810952D02*
X85603390Y-22715714D01*
X85603390Y-22715714D02*
X85651009Y-22668095D01*
X85651009Y-22668095D02*
X85746247Y-22620476D01*
X85746247Y-22620476D02*
X85984342Y-22620476D01*
X85984342Y-22620476D02*
X86079580Y-22668095D01*
X86079580Y-22668095D02*
X86127200Y-22715714D01*
X86127200Y-22715714D02*
X86174819Y-22810952D01*
X86174819Y-22810952D02*
X86174819Y-23049047D01*
X86174819Y-23049047D02*
X86127200Y-23144285D01*
X86127200Y-23144285D02*
X86079580Y-23191904D01*
X10054819Y-128678094D02*
X10864342Y-128678094D01*
X10864342Y-128678094D02*
X10959580Y-128630475D01*
X10959580Y-128630475D02*
X11007200Y-128582856D01*
X11007200Y-128582856D02*
X11054819Y-128487618D01*
X11054819Y-128487618D02*
X11054819Y-128297142D01*
X11054819Y-128297142D02*
X11007200Y-128201904D01*
X11007200Y-128201904D02*
X10959580Y-128154285D01*
X10959580Y-128154285D02*
X10864342Y-128106666D01*
X10864342Y-128106666D02*
X10054819Y-128106666D01*
X11054819Y-127106666D02*
X11054819Y-127678094D01*
X11054819Y-127392380D02*
X10054819Y-127392380D01*
X10054819Y-127392380D02*
X10197676Y-127487618D01*
X10197676Y-127487618D02*
X10292914Y-127582856D01*
X10292914Y-127582856D02*
X10340533Y-127678094D01*
X10150057Y-126725713D02*
X10102438Y-126678094D01*
X10102438Y-126678094D02*
X10054819Y-126582856D01*
X10054819Y-126582856D02*
X10054819Y-126344761D01*
X10054819Y-126344761D02*
X10102438Y-126249523D01*
X10102438Y-126249523D02*
X10150057Y-126201904D01*
X10150057Y-126201904D02*
X10245295Y-126154285D01*
X10245295Y-126154285D02*
X10340533Y-126154285D01*
X10340533Y-126154285D02*
X10483390Y-126201904D01*
X10483390Y-126201904D02*
X11054819Y-126773332D01*
X11054819Y-126773332D02*
X11054819Y-126154285D01*
X31190476Y-173594818D02*
X31190476Y-174309103D01*
X31190476Y-174309103D02*
X31142857Y-174451960D01*
X31142857Y-174451960D02*
X31047619Y-174547199D01*
X31047619Y-174547199D02*
X30904762Y-174594818D01*
X30904762Y-174594818D02*
X30809524Y-174594818D01*
X32190476Y-174594818D02*
X31619048Y-174594818D01*
X31904762Y-174594818D02*
X31904762Y-173594818D01*
X31904762Y-173594818D02*
X31809524Y-173737675D01*
X31809524Y-173737675D02*
X31714286Y-173832913D01*
X31714286Y-173832913D02*
X31619048Y-173880532D01*
X32761905Y-174023389D02*
X32666667Y-173975770D01*
X32666667Y-173975770D02*
X32619048Y-173928151D01*
X32619048Y-173928151D02*
X32571429Y-173832913D01*
X32571429Y-173832913D02*
X32571429Y-173785294D01*
X32571429Y-173785294D02*
X32619048Y-173690056D01*
X32619048Y-173690056D02*
X32666667Y-173642437D01*
X32666667Y-173642437D02*
X32761905Y-173594818D01*
X32761905Y-173594818D02*
X32952381Y-173594818D01*
X32952381Y-173594818D02*
X33047619Y-173642437D01*
X33047619Y-173642437D02*
X33095238Y-173690056D01*
X33095238Y-173690056D02*
X33142857Y-173785294D01*
X33142857Y-173785294D02*
X33142857Y-173832913D01*
X33142857Y-173832913D02*
X33095238Y-173928151D01*
X33095238Y-173928151D02*
X33047619Y-173975770D01*
X33047619Y-173975770D02*
X32952381Y-174023389D01*
X32952381Y-174023389D02*
X32761905Y-174023389D01*
X32761905Y-174023389D02*
X32666667Y-174071008D01*
X32666667Y-174071008D02*
X32619048Y-174118627D01*
X32619048Y-174118627D02*
X32571429Y-174213865D01*
X32571429Y-174213865D02*
X32571429Y-174404341D01*
X32571429Y-174404341D02*
X32619048Y-174499579D01*
X32619048Y-174499579D02*
X32666667Y-174547199D01*
X32666667Y-174547199D02*
X32761905Y-174594818D01*
X32761905Y-174594818D02*
X32952381Y-174594818D01*
X32952381Y-174594818D02*
X33047619Y-174547199D01*
X33047619Y-174547199D02*
X33095238Y-174499579D01*
X33095238Y-174499579D02*
X33142857Y-174404341D01*
X33142857Y-174404341D02*
X33142857Y-174213865D01*
X33142857Y-174213865D02*
X33095238Y-174118627D01*
X33095238Y-174118627D02*
X33047619Y-174071008D01*
X33047619Y-174071008D02*
X32952381Y-174023389D01*
X53904819Y-159170475D02*
X52904819Y-159170475D01*
X53904819Y-158599047D02*
X53333390Y-159027618D01*
X52904819Y-158599047D02*
X53476247Y-159170475D01*
X53333390Y-158027618D02*
X53285771Y-158122856D01*
X53285771Y-158122856D02*
X53238152Y-158170475D01*
X53238152Y-158170475D02*
X53142914Y-158218094D01*
X53142914Y-158218094D02*
X53095295Y-158218094D01*
X53095295Y-158218094D02*
X53000057Y-158170475D01*
X53000057Y-158170475D02*
X52952438Y-158122856D01*
X52952438Y-158122856D02*
X52904819Y-158027618D01*
X52904819Y-158027618D02*
X52904819Y-157837142D01*
X52904819Y-157837142D02*
X52952438Y-157741904D01*
X52952438Y-157741904D02*
X53000057Y-157694285D01*
X53000057Y-157694285D02*
X53095295Y-157646666D01*
X53095295Y-157646666D02*
X53142914Y-157646666D01*
X53142914Y-157646666D02*
X53238152Y-157694285D01*
X53238152Y-157694285D02*
X53285771Y-157741904D01*
X53285771Y-157741904D02*
X53333390Y-157837142D01*
X53333390Y-157837142D02*
X53333390Y-158027618D01*
X53333390Y-158027618D02*
X53381009Y-158122856D01*
X53381009Y-158122856D02*
X53428628Y-158170475D01*
X53428628Y-158170475D02*
X53523866Y-158218094D01*
X53523866Y-158218094D02*
X53714342Y-158218094D01*
X53714342Y-158218094D02*
X53809580Y-158170475D01*
X53809580Y-158170475D02*
X53857200Y-158122856D01*
X53857200Y-158122856D02*
X53904819Y-158027618D01*
X53904819Y-158027618D02*
X53904819Y-157837142D01*
X53904819Y-157837142D02*
X53857200Y-157741904D01*
X53857200Y-157741904D02*
X53809580Y-157694285D01*
X53809580Y-157694285D02*
X53714342Y-157646666D01*
X53714342Y-157646666D02*
X53523866Y-157646666D01*
X53523866Y-157646666D02*
X53428628Y-157694285D01*
X53428628Y-157694285D02*
X53381009Y-157741904D01*
X53381009Y-157741904D02*
X53333390Y-157837142D01*
X52904819Y-157027618D02*
X52904819Y-156932380D01*
X52904819Y-156932380D02*
X52952438Y-156837142D01*
X52952438Y-156837142D02*
X53000057Y-156789523D01*
X53000057Y-156789523D02*
X53095295Y-156741904D01*
X53095295Y-156741904D02*
X53285771Y-156694285D01*
X53285771Y-156694285D02*
X53523866Y-156694285D01*
X53523866Y-156694285D02*
X53714342Y-156741904D01*
X53714342Y-156741904D02*
X53809580Y-156789523D01*
X53809580Y-156789523D02*
X53857200Y-156837142D01*
X53857200Y-156837142D02*
X53904819Y-156932380D01*
X53904819Y-156932380D02*
X53904819Y-157027618D01*
X53904819Y-157027618D02*
X53857200Y-157122856D01*
X53857200Y-157122856D02*
X53809580Y-157170475D01*
X53809580Y-157170475D02*
X53714342Y-157218094D01*
X53714342Y-157218094D02*
X53523866Y-157265713D01*
X53523866Y-157265713D02*
X53285771Y-157265713D01*
X53285771Y-157265713D02*
X53095295Y-157218094D01*
X53095295Y-157218094D02*
X53000057Y-157170475D01*
X53000057Y-157170475D02*
X52952438Y-157122856D01*
X52952438Y-157122856D02*
X52904819Y-157027618D01*
X53000057Y-156313332D02*
X52952438Y-156265713D01*
X52952438Y-156265713D02*
X52904819Y-156170475D01*
X52904819Y-156170475D02*
X52904819Y-155932380D01*
X52904819Y-155932380D02*
X52952438Y-155837142D01*
X52952438Y-155837142D02*
X53000057Y-155789523D01*
X53000057Y-155789523D02*
X53095295Y-155741904D01*
X53095295Y-155741904D02*
X53190533Y-155741904D01*
X53190533Y-155741904D02*
X53333390Y-155789523D01*
X53333390Y-155789523D02*
X53904819Y-156360951D01*
X53904819Y-156360951D02*
X53904819Y-155741904D01*
X82761905Y-134494819D02*
X82761905Y-135304342D01*
X82761905Y-135304342D02*
X82809524Y-135399580D01*
X82809524Y-135399580D02*
X82857143Y-135447200D01*
X82857143Y-135447200D02*
X82952381Y-135494819D01*
X82952381Y-135494819D02*
X83142857Y-135494819D01*
X83142857Y-135494819D02*
X83238095Y-135447200D01*
X83238095Y-135447200D02*
X83285714Y-135399580D01*
X83285714Y-135399580D02*
X83333333Y-135304342D01*
X83333333Y-135304342D02*
X83333333Y-134494819D01*
X84333333Y-135494819D02*
X83761905Y-135494819D01*
X84047619Y-135494819D02*
X84047619Y-134494819D01*
X84047619Y-134494819D02*
X83952381Y-134637676D01*
X83952381Y-134637676D02*
X83857143Y-134732914D01*
X83857143Y-134732914D02*
X83761905Y-134780533D01*
X84904762Y-134923390D02*
X84809524Y-134875771D01*
X84809524Y-134875771D02*
X84761905Y-134828152D01*
X84761905Y-134828152D02*
X84714286Y-134732914D01*
X84714286Y-134732914D02*
X84714286Y-134685295D01*
X84714286Y-134685295D02*
X84761905Y-134590057D01*
X84761905Y-134590057D02*
X84809524Y-134542438D01*
X84809524Y-134542438D02*
X84904762Y-134494819D01*
X84904762Y-134494819D02*
X85095238Y-134494819D01*
X85095238Y-134494819D02*
X85190476Y-134542438D01*
X85190476Y-134542438D02*
X85238095Y-134590057D01*
X85238095Y-134590057D02*
X85285714Y-134685295D01*
X85285714Y-134685295D02*
X85285714Y-134732914D01*
X85285714Y-134732914D02*
X85238095Y-134828152D01*
X85238095Y-134828152D02*
X85190476Y-134875771D01*
X85190476Y-134875771D02*
X85095238Y-134923390D01*
X85095238Y-134923390D02*
X84904762Y-134923390D01*
X84904762Y-134923390D02*
X84809524Y-134971009D01*
X84809524Y-134971009D02*
X84761905Y-135018628D01*
X84761905Y-135018628D02*
X84714286Y-135113866D01*
X84714286Y-135113866D02*
X84714286Y-135304342D01*
X84714286Y-135304342D02*
X84761905Y-135399580D01*
X84761905Y-135399580D02*
X84809524Y-135447200D01*
X84809524Y-135447200D02*
X84904762Y-135494819D01*
X84904762Y-135494819D02*
X85095238Y-135494819D01*
X85095238Y-135494819D02*
X85190476Y-135447200D01*
X85190476Y-135447200D02*
X85238095Y-135399580D01*
X85238095Y-135399580D02*
X85285714Y-135304342D01*
X85285714Y-135304342D02*
X85285714Y-135113866D01*
X85285714Y-135113866D02*
X85238095Y-135018628D01*
X85238095Y-135018628D02*
X85190476Y-134971009D01*
X85190476Y-134971009D02*
X85095238Y-134923390D01*
X83174819Y-107248094D02*
X83984342Y-107248094D01*
X83984342Y-107248094D02*
X84079580Y-107200475D01*
X84079580Y-107200475D02*
X84127200Y-107152856D01*
X84127200Y-107152856D02*
X84174819Y-107057618D01*
X84174819Y-107057618D02*
X84174819Y-106867142D01*
X84174819Y-106867142D02*
X84127200Y-106771904D01*
X84127200Y-106771904D02*
X84079580Y-106724285D01*
X84079580Y-106724285D02*
X83984342Y-106676666D01*
X83984342Y-106676666D02*
X83174819Y-106676666D01*
X84174819Y-105676666D02*
X84174819Y-106248094D01*
X84174819Y-105962380D02*
X83174819Y-105962380D01*
X83174819Y-105962380D02*
X83317676Y-106057618D01*
X83317676Y-106057618D02*
X83412914Y-106152856D01*
X83412914Y-106152856D02*
X83460533Y-106248094D01*
X83508152Y-104819523D02*
X84174819Y-104819523D01*
X83127200Y-105057618D02*
X83841485Y-105295713D01*
X83841485Y-105295713D02*
X83841485Y-104676666D01*
X19190476Y-173594818D02*
X19190476Y-174309103D01*
X19190476Y-174309103D02*
X19142857Y-174451960D01*
X19142857Y-174451960D02*
X19047619Y-174547199D01*
X19047619Y-174547199D02*
X18904762Y-174594818D01*
X18904762Y-174594818D02*
X18809524Y-174594818D01*
X20190476Y-174594818D02*
X19619048Y-174594818D01*
X19904762Y-174594818D02*
X19904762Y-173594818D01*
X19904762Y-173594818D02*
X19809524Y-173737675D01*
X19809524Y-173737675D02*
X19714286Y-173832913D01*
X19714286Y-173832913D02*
X19619048Y-173880532D01*
X21047619Y-173594818D02*
X20857143Y-173594818D01*
X20857143Y-173594818D02*
X20761905Y-173642437D01*
X20761905Y-173642437D02*
X20714286Y-173690056D01*
X20714286Y-173690056D02*
X20619048Y-173832913D01*
X20619048Y-173832913D02*
X20571429Y-174023389D01*
X20571429Y-174023389D02*
X20571429Y-174404341D01*
X20571429Y-174404341D02*
X20619048Y-174499579D01*
X20619048Y-174499579D02*
X20666667Y-174547199D01*
X20666667Y-174547199D02*
X20761905Y-174594818D01*
X20761905Y-174594818D02*
X20952381Y-174594818D01*
X20952381Y-174594818D02*
X21047619Y-174547199D01*
X21047619Y-174547199D02*
X21095238Y-174499579D01*
X21095238Y-174499579D02*
X21142857Y-174404341D01*
X21142857Y-174404341D02*
X21142857Y-174166246D01*
X21142857Y-174166246D02*
X21095238Y-174071008D01*
X21095238Y-174071008D02*
X21047619Y-174023389D01*
X21047619Y-174023389D02*
X20952381Y-173975770D01*
X20952381Y-173975770D02*
X20761905Y-173975770D01*
X20761905Y-173975770D02*
X20666667Y-174023389D01*
X20666667Y-174023389D02*
X20619048Y-174071008D01*
X20619048Y-174071008D02*
X20571429Y-174166246D01*
X9061905Y-183604818D02*
X9061905Y-184414341D01*
X9061905Y-184414341D02*
X9109524Y-184509579D01*
X9109524Y-184509579D02*
X9157143Y-184557199D01*
X9157143Y-184557199D02*
X9252381Y-184604818D01*
X9252381Y-184604818D02*
X9442857Y-184604818D01*
X9442857Y-184604818D02*
X9538095Y-184557199D01*
X9538095Y-184557199D02*
X9585714Y-184509579D01*
X9585714Y-184509579D02*
X9633333Y-184414341D01*
X9633333Y-184414341D02*
X9633333Y-183604818D01*
X10061905Y-183700056D02*
X10109524Y-183652437D01*
X10109524Y-183652437D02*
X10204762Y-183604818D01*
X10204762Y-183604818D02*
X10442857Y-183604818D01*
X10442857Y-183604818D02*
X10538095Y-183652437D01*
X10538095Y-183652437D02*
X10585714Y-183700056D01*
X10585714Y-183700056D02*
X10633333Y-183795294D01*
X10633333Y-183795294D02*
X10633333Y-183890532D01*
X10633333Y-183890532D02*
X10585714Y-184033389D01*
X10585714Y-184033389D02*
X10014286Y-184604818D01*
X10014286Y-184604818D02*
X10633333Y-184604818D01*
X11585714Y-184604818D02*
X11014286Y-184604818D01*
X11300000Y-184604818D02*
X11300000Y-183604818D01*
X11300000Y-183604818D02*
X11204762Y-183747675D01*
X11204762Y-183747675D02*
X11109524Y-183842913D01*
X11109524Y-183842913D02*
X11014286Y-183890532D01*
X51554819Y-20381904D02*
X52364342Y-20381904D01*
X52364342Y-20381904D02*
X52459580Y-20334285D01*
X52459580Y-20334285D02*
X52507200Y-20286666D01*
X52507200Y-20286666D02*
X52554819Y-20191428D01*
X52554819Y-20191428D02*
X52554819Y-20000952D01*
X52554819Y-20000952D02*
X52507200Y-19905714D01*
X52507200Y-19905714D02*
X52459580Y-19858095D01*
X52459580Y-19858095D02*
X52364342Y-19810476D01*
X52364342Y-19810476D02*
X51554819Y-19810476D01*
X52554819Y-19286666D02*
X52554819Y-19096190D01*
X52554819Y-19096190D02*
X52507200Y-19000952D01*
X52507200Y-19000952D02*
X52459580Y-18953333D01*
X52459580Y-18953333D02*
X52316723Y-18858095D01*
X52316723Y-18858095D02*
X52126247Y-18810476D01*
X52126247Y-18810476D02*
X51745295Y-18810476D01*
X51745295Y-18810476D02*
X51650057Y-18858095D01*
X51650057Y-18858095D02*
X51602438Y-18905714D01*
X51602438Y-18905714D02*
X51554819Y-19000952D01*
X51554819Y-19000952D02*
X51554819Y-19191428D01*
X51554819Y-19191428D02*
X51602438Y-19286666D01*
X51602438Y-19286666D02*
X51650057Y-19334285D01*
X51650057Y-19334285D02*
X51745295Y-19381904D01*
X51745295Y-19381904D02*
X51983390Y-19381904D01*
X51983390Y-19381904D02*
X52078628Y-19334285D01*
X52078628Y-19334285D02*
X52126247Y-19286666D01*
X52126247Y-19286666D02*
X52173866Y-19191428D01*
X52173866Y-19191428D02*
X52173866Y-19000952D01*
X52173866Y-19000952D02*
X52126247Y-18905714D01*
X52126247Y-18905714D02*
X52078628Y-18858095D01*
X52078628Y-18858095D02*
X51983390Y-18810476D01*
X17174819Y-61671904D02*
X17984342Y-61671904D01*
X17984342Y-61671904D02*
X18079580Y-61624285D01*
X18079580Y-61624285D02*
X18127200Y-61576666D01*
X18127200Y-61576666D02*
X18174819Y-61481428D01*
X18174819Y-61481428D02*
X18174819Y-61290952D01*
X18174819Y-61290952D02*
X18127200Y-61195714D01*
X18127200Y-61195714D02*
X18079580Y-61148095D01*
X18079580Y-61148095D02*
X17984342Y-61100476D01*
X17984342Y-61100476D02*
X17174819Y-61100476D01*
X17270057Y-60671904D02*
X17222438Y-60624285D01*
X17222438Y-60624285D02*
X17174819Y-60529047D01*
X17174819Y-60529047D02*
X17174819Y-60290952D01*
X17174819Y-60290952D02*
X17222438Y-60195714D01*
X17222438Y-60195714D02*
X17270057Y-60148095D01*
X17270057Y-60148095D02*
X17365295Y-60100476D01*
X17365295Y-60100476D02*
X17460533Y-60100476D01*
X17460533Y-60100476D02*
X17603390Y-60148095D01*
X17603390Y-60148095D02*
X18174819Y-60719523D01*
X18174819Y-60719523D02*
X18174819Y-60100476D01*
X62174819Y-61671904D02*
X62984342Y-61671904D01*
X62984342Y-61671904D02*
X63079580Y-61624285D01*
X63079580Y-61624285D02*
X63127200Y-61576666D01*
X63127200Y-61576666D02*
X63174819Y-61481428D01*
X63174819Y-61481428D02*
X63174819Y-61290952D01*
X63174819Y-61290952D02*
X63127200Y-61195714D01*
X63127200Y-61195714D02*
X63079580Y-61148095D01*
X63079580Y-61148095D02*
X62984342Y-61100476D01*
X62984342Y-61100476D02*
X62174819Y-61100476D01*
X62508152Y-60195714D02*
X63174819Y-60195714D01*
X62127200Y-60433809D02*
X62841485Y-60671904D01*
X62841485Y-60671904D02*
X62841485Y-60052857D01*
X17174819Y-24191904D02*
X17984342Y-24191904D01*
X17984342Y-24191904D02*
X18079580Y-24144285D01*
X18079580Y-24144285D02*
X18127200Y-24096666D01*
X18127200Y-24096666D02*
X18174819Y-24001428D01*
X18174819Y-24001428D02*
X18174819Y-23810952D01*
X18174819Y-23810952D02*
X18127200Y-23715714D01*
X18127200Y-23715714D02*
X18079580Y-23668095D01*
X18079580Y-23668095D02*
X17984342Y-23620476D01*
X17984342Y-23620476D02*
X17174819Y-23620476D01*
X18174819Y-22620476D02*
X18174819Y-23191904D01*
X18174819Y-22906190D02*
X17174819Y-22906190D01*
X17174819Y-22906190D02*
X17317676Y-23001428D01*
X17317676Y-23001428D02*
X17412914Y-23096666D01*
X17412914Y-23096666D02*
X17460533Y-23191904D01*
X71904819Y-159170475D02*
X70904819Y-159170475D01*
X71904819Y-158599047D02*
X71333390Y-159027618D01*
X70904819Y-158599047D02*
X71476247Y-159170475D01*
X71333390Y-158027618D02*
X71285771Y-158122856D01*
X71285771Y-158122856D02*
X71238152Y-158170475D01*
X71238152Y-158170475D02*
X71142914Y-158218094D01*
X71142914Y-158218094D02*
X71095295Y-158218094D01*
X71095295Y-158218094D02*
X71000057Y-158170475D01*
X71000057Y-158170475D02*
X70952438Y-158122856D01*
X70952438Y-158122856D02*
X70904819Y-158027618D01*
X70904819Y-158027618D02*
X70904819Y-157837142D01*
X70904819Y-157837142D02*
X70952438Y-157741904D01*
X70952438Y-157741904D02*
X71000057Y-157694285D01*
X71000057Y-157694285D02*
X71095295Y-157646666D01*
X71095295Y-157646666D02*
X71142914Y-157646666D01*
X71142914Y-157646666D02*
X71238152Y-157694285D01*
X71238152Y-157694285D02*
X71285771Y-157741904D01*
X71285771Y-157741904D02*
X71333390Y-157837142D01*
X71333390Y-157837142D02*
X71333390Y-158027618D01*
X71333390Y-158027618D02*
X71381009Y-158122856D01*
X71381009Y-158122856D02*
X71428628Y-158170475D01*
X71428628Y-158170475D02*
X71523866Y-158218094D01*
X71523866Y-158218094D02*
X71714342Y-158218094D01*
X71714342Y-158218094D02*
X71809580Y-158170475D01*
X71809580Y-158170475D02*
X71857200Y-158122856D01*
X71857200Y-158122856D02*
X71904819Y-158027618D01*
X71904819Y-158027618D02*
X71904819Y-157837142D01*
X71904819Y-157837142D02*
X71857200Y-157741904D01*
X71857200Y-157741904D02*
X71809580Y-157694285D01*
X71809580Y-157694285D02*
X71714342Y-157646666D01*
X71714342Y-157646666D02*
X71523866Y-157646666D01*
X71523866Y-157646666D02*
X71428628Y-157694285D01*
X71428628Y-157694285D02*
X71381009Y-157741904D01*
X71381009Y-157741904D02*
X71333390Y-157837142D01*
X70904819Y-157027618D02*
X70904819Y-156932380D01*
X70904819Y-156932380D02*
X70952438Y-156837142D01*
X70952438Y-156837142D02*
X71000057Y-156789523D01*
X71000057Y-156789523D02*
X71095295Y-156741904D01*
X71095295Y-156741904D02*
X71285771Y-156694285D01*
X71285771Y-156694285D02*
X71523866Y-156694285D01*
X71523866Y-156694285D02*
X71714342Y-156741904D01*
X71714342Y-156741904D02*
X71809580Y-156789523D01*
X71809580Y-156789523D02*
X71857200Y-156837142D01*
X71857200Y-156837142D02*
X71904819Y-156932380D01*
X71904819Y-156932380D02*
X71904819Y-157027618D01*
X71904819Y-157027618D02*
X71857200Y-157122856D01*
X71857200Y-157122856D02*
X71809580Y-157170475D01*
X71809580Y-157170475D02*
X71714342Y-157218094D01*
X71714342Y-157218094D02*
X71523866Y-157265713D01*
X71523866Y-157265713D02*
X71285771Y-157265713D01*
X71285771Y-157265713D02*
X71095295Y-157218094D01*
X71095295Y-157218094D02*
X71000057Y-157170475D01*
X71000057Y-157170475D02*
X70952438Y-157122856D01*
X70952438Y-157122856D02*
X70904819Y-157027618D01*
X70904819Y-156360951D02*
X70904819Y-155741904D01*
X70904819Y-155741904D02*
X71285771Y-156075237D01*
X71285771Y-156075237D02*
X71285771Y-155932380D01*
X71285771Y-155932380D02*
X71333390Y-155837142D01*
X71333390Y-155837142D02*
X71381009Y-155789523D01*
X71381009Y-155789523D02*
X71476247Y-155741904D01*
X71476247Y-155741904D02*
X71714342Y-155741904D01*
X71714342Y-155741904D02*
X71809580Y-155789523D01*
X71809580Y-155789523D02*
X71857200Y-155837142D01*
X71857200Y-155837142D02*
X71904819Y-155932380D01*
X71904819Y-155932380D02*
X71904819Y-156218094D01*
X71904819Y-156218094D02*
X71857200Y-156313332D01*
X71857200Y-156313332D02*
X71809580Y-156360951D01*
X12104819Y-158678094D02*
X12914342Y-158678094D01*
X12914342Y-158678094D02*
X13009580Y-158630475D01*
X13009580Y-158630475D02*
X13057200Y-158582856D01*
X13057200Y-158582856D02*
X13104819Y-158487618D01*
X13104819Y-158487618D02*
X13104819Y-158297142D01*
X13104819Y-158297142D02*
X13057200Y-158201904D01*
X13057200Y-158201904D02*
X13009580Y-158154285D01*
X13009580Y-158154285D02*
X12914342Y-158106666D01*
X12914342Y-158106666D02*
X12104819Y-158106666D01*
X13104819Y-157106666D02*
X13104819Y-157678094D01*
X13104819Y-157392380D02*
X12104819Y-157392380D01*
X12104819Y-157392380D02*
X12247676Y-157487618D01*
X12247676Y-157487618D02*
X12342914Y-157582856D01*
X12342914Y-157582856D02*
X12390533Y-157678094D01*
X13104819Y-156154285D02*
X13104819Y-156725713D01*
X13104819Y-156439999D02*
X12104819Y-156439999D01*
X12104819Y-156439999D02*
X12247676Y-156535237D01*
X12247676Y-156535237D02*
X12342914Y-156630475D01*
X12342914Y-156630475D02*
X12390533Y-156725713D01*
X13190476Y-173594818D02*
X13190476Y-174309103D01*
X13190476Y-174309103D02*
X13142857Y-174451960D01*
X13142857Y-174451960D02*
X13047619Y-174547199D01*
X13047619Y-174547199D02*
X12904762Y-174594818D01*
X12904762Y-174594818D02*
X12809524Y-174594818D01*
X14190476Y-174594818D02*
X13619048Y-174594818D01*
X13904762Y-174594818D02*
X13904762Y-173594818D01*
X13904762Y-173594818D02*
X13809524Y-173737675D01*
X13809524Y-173737675D02*
X13714286Y-173832913D01*
X13714286Y-173832913D02*
X13619048Y-173880532D01*
X15095238Y-173594818D02*
X14619048Y-173594818D01*
X14619048Y-173594818D02*
X14571429Y-174071008D01*
X14571429Y-174071008D02*
X14619048Y-174023389D01*
X14619048Y-174023389D02*
X14714286Y-173975770D01*
X14714286Y-173975770D02*
X14952381Y-173975770D01*
X14952381Y-173975770D02*
X15047619Y-174023389D01*
X15047619Y-174023389D02*
X15095238Y-174071008D01*
X15095238Y-174071008D02*
X15142857Y-174166246D01*
X15142857Y-174166246D02*
X15142857Y-174404341D01*
X15142857Y-174404341D02*
X15095238Y-174499579D01*
X15095238Y-174499579D02*
X15047619Y-174547199D01*
X15047619Y-174547199D02*
X14952381Y-174594818D01*
X14952381Y-174594818D02*
X14714286Y-174594818D01*
X14714286Y-174594818D02*
X14619048Y-174547199D01*
X14619048Y-174547199D02*
X14571429Y-174499579D01*
X54570179Y-233734278D02*
X53760656Y-233734278D01*
X53760656Y-233734278D02*
X53665418Y-233781897D01*
X53665418Y-233781897D02*
X53617799Y-233829516D01*
X53617799Y-233829516D02*
X53570179Y-233924754D01*
X53570179Y-233924754D02*
X53570179Y-234115230D01*
X53570179Y-234115230D02*
X53617799Y-234210468D01*
X53617799Y-234210468D02*
X53665418Y-234258087D01*
X53665418Y-234258087D02*
X53760656Y-234305706D01*
X53760656Y-234305706D02*
X54570179Y-234305706D01*
X53570179Y-235305706D02*
X53570179Y-234734278D01*
X53570179Y-235019992D02*
X54570179Y-235019992D01*
X54570179Y-235019992D02*
X54427322Y-234924754D01*
X54427322Y-234924754D02*
X54332084Y-234829516D01*
X54332084Y-234829516D02*
X54284465Y-234734278D01*
X53570179Y-235781897D02*
X53570179Y-235972373D01*
X53570179Y-235972373D02*
X53617799Y-236067611D01*
X53617799Y-236067611D02*
X53665418Y-236115230D01*
X53665418Y-236115230D02*
X53808275Y-236210468D01*
X53808275Y-236210468D02*
X53998751Y-236258087D01*
X53998751Y-236258087D02*
X54379703Y-236258087D01*
X54379703Y-236258087D02*
X54474941Y-236210468D01*
X54474941Y-236210468D02*
X54522560Y-236162849D01*
X54522560Y-236162849D02*
X54570179Y-236067611D01*
X54570179Y-236067611D02*
X54570179Y-235877135D01*
X54570179Y-235877135D02*
X54522560Y-235781897D01*
X54522560Y-235781897D02*
X54474941Y-235734278D01*
X54474941Y-235734278D02*
X54379703Y-235686659D01*
X54379703Y-235686659D02*
X54141608Y-235686659D01*
X54141608Y-235686659D02*
X54046370Y-235734278D01*
X54046370Y-235734278D02*
X53998751Y-235781897D01*
X53998751Y-235781897D02*
X53951132Y-235877135D01*
X53951132Y-235877135D02*
X53951132Y-236067611D01*
X53951132Y-236067611D02*
X53998751Y-236162849D01*
X53998751Y-236162849D02*
X54046370Y-236210468D01*
X54046370Y-236210468D02*
X54141608Y-236258087D01*
X58952380Y-166290057D02*
X58857142Y-166242438D01*
X58857142Y-166242438D02*
X58761904Y-166147200D01*
X58761904Y-166147200D02*
X58619047Y-166004342D01*
X58619047Y-166004342D02*
X58523809Y-165956723D01*
X58523809Y-165956723D02*
X58428571Y-165956723D01*
X58476190Y-166194819D02*
X58380952Y-166147200D01*
X58380952Y-166147200D02*
X58285714Y-166051961D01*
X58285714Y-166051961D02*
X58238095Y-165861485D01*
X58238095Y-165861485D02*
X58238095Y-165528152D01*
X58238095Y-165528152D02*
X58285714Y-165337676D01*
X58285714Y-165337676D02*
X58380952Y-165242438D01*
X58380952Y-165242438D02*
X58476190Y-165194819D01*
X58476190Y-165194819D02*
X58666666Y-165194819D01*
X58666666Y-165194819D02*
X58761904Y-165242438D01*
X58761904Y-165242438D02*
X58857142Y-165337676D01*
X58857142Y-165337676D02*
X58904761Y-165528152D01*
X58904761Y-165528152D02*
X58904761Y-165861485D01*
X58904761Y-165861485D02*
X58857142Y-166051961D01*
X58857142Y-166051961D02*
X58761904Y-166147200D01*
X58761904Y-166147200D02*
X58666666Y-166194819D01*
X58666666Y-166194819D02*
X58476190Y-166194819D01*
X59476190Y-165623390D02*
X59380952Y-165575771D01*
X59380952Y-165575771D02*
X59333333Y-165528152D01*
X59333333Y-165528152D02*
X59285714Y-165432914D01*
X59285714Y-165432914D02*
X59285714Y-165385295D01*
X59285714Y-165385295D02*
X59333333Y-165290057D01*
X59333333Y-165290057D02*
X59380952Y-165242438D01*
X59380952Y-165242438D02*
X59476190Y-165194819D01*
X59476190Y-165194819D02*
X59666666Y-165194819D01*
X59666666Y-165194819D02*
X59761904Y-165242438D01*
X59761904Y-165242438D02*
X59809523Y-165290057D01*
X59809523Y-165290057D02*
X59857142Y-165385295D01*
X59857142Y-165385295D02*
X59857142Y-165432914D01*
X59857142Y-165432914D02*
X59809523Y-165528152D01*
X59809523Y-165528152D02*
X59761904Y-165575771D01*
X59761904Y-165575771D02*
X59666666Y-165623390D01*
X59666666Y-165623390D02*
X59476190Y-165623390D01*
X59476190Y-165623390D02*
X59380952Y-165671009D01*
X59380952Y-165671009D02*
X59333333Y-165718628D01*
X59333333Y-165718628D02*
X59285714Y-165813866D01*
X59285714Y-165813866D02*
X59285714Y-166004342D01*
X59285714Y-166004342D02*
X59333333Y-166099580D01*
X59333333Y-166099580D02*
X59380952Y-166147200D01*
X59380952Y-166147200D02*
X59476190Y-166194819D01*
X59476190Y-166194819D02*
X59666666Y-166194819D01*
X59666666Y-166194819D02*
X59761904Y-166147200D01*
X59761904Y-166147200D02*
X59809523Y-166099580D01*
X59809523Y-166099580D02*
X59857142Y-166004342D01*
X59857142Y-166004342D02*
X59857142Y-165813866D01*
X59857142Y-165813866D02*
X59809523Y-165718628D01*
X59809523Y-165718628D02*
X59761904Y-165671009D01*
X59761904Y-165671009D02*
X59666666Y-165623390D01*
X60476190Y-165194819D02*
X60571428Y-165194819D01*
X60571428Y-165194819D02*
X60666666Y-165242438D01*
X60666666Y-165242438D02*
X60714285Y-165290057D01*
X60714285Y-165290057D02*
X60761904Y-165385295D01*
X60761904Y-165385295D02*
X60809523Y-165575771D01*
X60809523Y-165575771D02*
X60809523Y-165813866D01*
X60809523Y-165813866D02*
X60761904Y-166004342D01*
X60761904Y-166004342D02*
X60714285Y-166099580D01*
X60714285Y-166099580D02*
X60666666Y-166147200D01*
X60666666Y-166147200D02*
X60571428Y-166194819D01*
X60571428Y-166194819D02*
X60476190Y-166194819D01*
X60476190Y-166194819D02*
X60380952Y-166147200D01*
X60380952Y-166147200D02*
X60333333Y-166099580D01*
X60333333Y-166099580D02*
X60285714Y-166004342D01*
X60285714Y-166004342D02*
X60238095Y-165813866D01*
X60238095Y-165813866D02*
X60238095Y-165575771D01*
X60238095Y-165575771D02*
X60285714Y-165385295D01*
X60285714Y-165385295D02*
X60333333Y-165290057D01*
X60333333Y-165290057D02*
X60380952Y-165242438D01*
X60380952Y-165242438D02*
X60476190Y-165194819D01*
X61761904Y-166194819D02*
X61190476Y-166194819D01*
X61476190Y-166194819D02*
X61476190Y-165194819D01*
X61476190Y-165194819D02*
X61380952Y-165337676D01*
X61380952Y-165337676D02*
X61285714Y-165432914D01*
X61285714Y-165432914D02*
X61190476Y-165480533D01*
X35904819Y-159170475D02*
X34904819Y-159170475D01*
X35904819Y-158599047D02*
X35333390Y-159027618D01*
X34904819Y-158599047D02*
X35476247Y-159170475D01*
X35333390Y-158027618D02*
X35285771Y-158122856D01*
X35285771Y-158122856D02*
X35238152Y-158170475D01*
X35238152Y-158170475D02*
X35142914Y-158218094D01*
X35142914Y-158218094D02*
X35095295Y-158218094D01*
X35095295Y-158218094D02*
X35000057Y-158170475D01*
X35000057Y-158170475D02*
X34952438Y-158122856D01*
X34952438Y-158122856D02*
X34904819Y-158027618D01*
X34904819Y-158027618D02*
X34904819Y-157837142D01*
X34904819Y-157837142D02*
X34952438Y-157741904D01*
X34952438Y-157741904D02*
X35000057Y-157694285D01*
X35000057Y-157694285D02*
X35095295Y-157646666D01*
X35095295Y-157646666D02*
X35142914Y-157646666D01*
X35142914Y-157646666D02*
X35238152Y-157694285D01*
X35238152Y-157694285D02*
X35285771Y-157741904D01*
X35285771Y-157741904D02*
X35333390Y-157837142D01*
X35333390Y-157837142D02*
X35333390Y-158027618D01*
X35333390Y-158027618D02*
X35381009Y-158122856D01*
X35381009Y-158122856D02*
X35428628Y-158170475D01*
X35428628Y-158170475D02*
X35523866Y-158218094D01*
X35523866Y-158218094D02*
X35714342Y-158218094D01*
X35714342Y-158218094D02*
X35809580Y-158170475D01*
X35809580Y-158170475D02*
X35857200Y-158122856D01*
X35857200Y-158122856D02*
X35904819Y-158027618D01*
X35904819Y-158027618D02*
X35904819Y-157837142D01*
X35904819Y-157837142D02*
X35857200Y-157741904D01*
X35857200Y-157741904D02*
X35809580Y-157694285D01*
X35809580Y-157694285D02*
X35714342Y-157646666D01*
X35714342Y-157646666D02*
X35523866Y-157646666D01*
X35523866Y-157646666D02*
X35428628Y-157694285D01*
X35428628Y-157694285D02*
X35381009Y-157741904D01*
X35381009Y-157741904D02*
X35333390Y-157837142D01*
X34904819Y-157027618D02*
X34904819Y-156932380D01*
X34904819Y-156932380D02*
X34952438Y-156837142D01*
X34952438Y-156837142D02*
X35000057Y-156789523D01*
X35000057Y-156789523D02*
X35095295Y-156741904D01*
X35095295Y-156741904D02*
X35285771Y-156694285D01*
X35285771Y-156694285D02*
X35523866Y-156694285D01*
X35523866Y-156694285D02*
X35714342Y-156741904D01*
X35714342Y-156741904D02*
X35809580Y-156789523D01*
X35809580Y-156789523D02*
X35857200Y-156837142D01*
X35857200Y-156837142D02*
X35904819Y-156932380D01*
X35904819Y-156932380D02*
X35904819Y-157027618D01*
X35904819Y-157027618D02*
X35857200Y-157122856D01*
X35857200Y-157122856D02*
X35809580Y-157170475D01*
X35809580Y-157170475D02*
X35714342Y-157218094D01*
X35714342Y-157218094D02*
X35523866Y-157265713D01*
X35523866Y-157265713D02*
X35285771Y-157265713D01*
X35285771Y-157265713D02*
X35095295Y-157218094D01*
X35095295Y-157218094D02*
X35000057Y-157170475D01*
X35000057Y-157170475D02*
X34952438Y-157122856D01*
X34952438Y-157122856D02*
X34904819Y-157027618D01*
X35904819Y-155741904D02*
X35904819Y-156313332D01*
X35904819Y-156027618D02*
X34904819Y-156027618D01*
X34904819Y-156027618D02*
X35047676Y-156122856D01*
X35047676Y-156122856D02*
X35142914Y-156218094D01*
X35142914Y-156218094D02*
X35190533Y-156313332D01*
X83174819Y-84388094D02*
X83984342Y-84388094D01*
X83984342Y-84388094D02*
X84079580Y-84340475D01*
X84079580Y-84340475D02*
X84127200Y-84292856D01*
X84127200Y-84292856D02*
X84174819Y-84197618D01*
X84174819Y-84197618D02*
X84174819Y-84007142D01*
X84174819Y-84007142D02*
X84127200Y-83911904D01*
X84127200Y-83911904D02*
X84079580Y-83864285D01*
X84079580Y-83864285D02*
X83984342Y-83816666D01*
X83984342Y-83816666D02*
X83174819Y-83816666D01*
X84174819Y-82816666D02*
X84174819Y-83388094D01*
X84174819Y-83102380D02*
X83174819Y-83102380D01*
X83174819Y-83102380D02*
X83317676Y-83197618D01*
X83317676Y-83197618D02*
X83412914Y-83292856D01*
X83412914Y-83292856D02*
X83460533Y-83388094D01*
X83174819Y-82483332D02*
X83174819Y-81864285D01*
X83174819Y-81864285D02*
X83555771Y-82197618D01*
X83555771Y-82197618D02*
X83555771Y-82054761D01*
X83555771Y-82054761D02*
X83603390Y-81959523D01*
X83603390Y-81959523D02*
X83651009Y-81911904D01*
X83651009Y-81911904D02*
X83746247Y-81864285D01*
X83746247Y-81864285D02*
X83984342Y-81864285D01*
X83984342Y-81864285D02*
X84079580Y-81911904D01*
X84079580Y-81911904D02*
X84127200Y-81959523D01*
X84127200Y-81959523D02*
X84174819Y-82054761D01*
X84174819Y-82054761D02*
X84174819Y-82340475D01*
X84174819Y-82340475D02*
X84127200Y-82435713D01*
X84127200Y-82435713D02*
X84079580Y-82483332D01*
X62174819Y-24191904D02*
X62984342Y-24191904D01*
X62984342Y-24191904D02*
X63079580Y-24144285D01*
X63079580Y-24144285D02*
X63127200Y-24096666D01*
X63127200Y-24096666D02*
X63174819Y-24001428D01*
X63174819Y-24001428D02*
X63174819Y-23810952D01*
X63174819Y-23810952D02*
X63127200Y-23715714D01*
X63127200Y-23715714D02*
X63079580Y-23668095D01*
X63079580Y-23668095D02*
X62984342Y-23620476D01*
X62984342Y-23620476D02*
X62174819Y-23620476D01*
X62174819Y-23239523D02*
X62174819Y-22620476D01*
X62174819Y-22620476D02*
X62555771Y-22953809D01*
X62555771Y-22953809D02*
X62555771Y-22810952D01*
X62555771Y-22810952D02*
X62603390Y-22715714D01*
X62603390Y-22715714D02*
X62651009Y-22668095D01*
X62651009Y-22668095D02*
X62746247Y-22620476D01*
X62746247Y-22620476D02*
X62984342Y-22620476D01*
X62984342Y-22620476D02*
X63079580Y-22668095D01*
X63079580Y-22668095D02*
X63127200Y-22715714D01*
X63127200Y-22715714D02*
X63174819Y-22810952D01*
X63174819Y-22810952D02*
X63174819Y-23096666D01*
X63174819Y-23096666D02*
X63127200Y-23191904D01*
X63127200Y-23191904D02*
X63079580Y-23239523D01*
X18910951Y-197514818D02*
X18434761Y-197514818D01*
X18434761Y-197514818D02*
X18434761Y-196514818D01*
X19387142Y-196943389D02*
X19291904Y-196895770D01*
X19291904Y-196895770D02*
X19244285Y-196848151D01*
X19244285Y-196848151D02*
X19196666Y-196752913D01*
X19196666Y-196752913D02*
X19196666Y-196705294D01*
X19196666Y-196705294D02*
X19244285Y-196610056D01*
X19244285Y-196610056D02*
X19291904Y-196562437D01*
X19291904Y-196562437D02*
X19387142Y-196514818D01*
X19387142Y-196514818D02*
X19577618Y-196514818D01*
X19577618Y-196514818D02*
X19672856Y-196562437D01*
X19672856Y-196562437D02*
X19720475Y-196610056D01*
X19720475Y-196610056D02*
X19768094Y-196705294D01*
X19768094Y-196705294D02*
X19768094Y-196752913D01*
X19768094Y-196752913D02*
X19720475Y-196848151D01*
X19720475Y-196848151D02*
X19672856Y-196895770D01*
X19672856Y-196895770D02*
X19577618Y-196943389D01*
X19577618Y-196943389D02*
X19387142Y-196943389D01*
X19387142Y-196943389D02*
X19291904Y-196991008D01*
X19291904Y-196991008D02*
X19244285Y-197038627D01*
X19244285Y-197038627D02*
X19196666Y-197133865D01*
X19196666Y-197133865D02*
X19196666Y-197324341D01*
X19196666Y-197324341D02*
X19244285Y-197419579D01*
X19244285Y-197419579D02*
X19291904Y-197467199D01*
X19291904Y-197467199D02*
X19387142Y-197514818D01*
X19387142Y-197514818D02*
X19577618Y-197514818D01*
X19577618Y-197514818D02*
X19672856Y-197467199D01*
X19672856Y-197467199D02*
X19720475Y-197419579D01*
X19720475Y-197419579D02*
X19768094Y-197324341D01*
X19768094Y-197324341D02*
X19768094Y-197133865D01*
X19768094Y-197133865D02*
X19720475Y-197038627D01*
X19720475Y-197038627D02*
X19672856Y-196991008D01*
X19672856Y-196991008D02*
X19577618Y-196943389D01*
X20387142Y-196514818D02*
X20482380Y-196514818D01*
X20482380Y-196514818D02*
X20577618Y-196562437D01*
X20577618Y-196562437D02*
X20625237Y-196610056D01*
X20625237Y-196610056D02*
X20672856Y-196705294D01*
X20672856Y-196705294D02*
X20720475Y-196895770D01*
X20720475Y-196895770D02*
X20720475Y-197133865D01*
X20720475Y-197133865D02*
X20672856Y-197324341D01*
X20672856Y-197324341D02*
X20625237Y-197419579D01*
X20625237Y-197419579D02*
X20577618Y-197467199D01*
X20577618Y-197467199D02*
X20482380Y-197514818D01*
X20482380Y-197514818D02*
X20387142Y-197514818D01*
X20387142Y-197514818D02*
X20291904Y-197467199D01*
X20291904Y-197467199D02*
X20244285Y-197419579D01*
X20244285Y-197419579D02*
X20196666Y-197324341D01*
X20196666Y-197324341D02*
X20149047Y-197133865D01*
X20149047Y-197133865D02*
X20149047Y-196895770D01*
X20149047Y-196895770D02*
X20196666Y-196705294D01*
X20196666Y-196705294D02*
X20244285Y-196610056D01*
X20244285Y-196610056D02*
X20291904Y-196562437D01*
X20291904Y-196562437D02*
X20387142Y-196514818D01*
X21672856Y-197514818D02*
X21101428Y-197514818D01*
X21387142Y-197514818D02*
X21387142Y-196514818D01*
X21387142Y-196514818D02*
X21291904Y-196657675D01*
X21291904Y-196657675D02*
X21196666Y-196752913D01*
X21196666Y-196752913D02*
X21101428Y-196800532D01*
X56761905Y-187704818D02*
X56761905Y-188514341D01*
X56761905Y-188514341D02*
X56809524Y-188609579D01*
X56809524Y-188609579D02*
X56857143Y-188657199D01*
X56857143Y-188657199D02*
X56952381Y-188704818D01*
X56952381Y-188704818D02*
X57142857Y-188704818D01*
X57142857Y-188704818D02*
X57238095Y-188657199D01*
X57238095Y-188657199D02*
X57285714Y-188609579D01*
X57285714Y-188609579D02*
X57333333Y-188514341D01*
X57333333Y-188514341D02*
X57333333Y-187704818D01*
X57761905Y-187800056D02*
X57809524Y-187752437D01*
X57809524Y-187752437D02*
X57904762Y-187704818D01*
X57904762Y-187704818D02*
X58142857Y-187704818D01*
X58142857Y-187704818D02*
X58238095Y-187752437D01*
X58238095Y-187752437D02*
X58285714Y-187800056D01*
X58285714Y-187800056D02*
X58333333Y-187895294D01*
X58333333Y-187895294D02*
X58333333Y-187990532D01*
X58333333Y-187990532D02*
X58285714Y-188133389D01*
X58285714Y-188133389D02*
X57714286Y-188704818D01*
X57714286Y-188704818D02*
X58333333Y-188704818D01*
X58714286Y-187800056D02*
X58761905Y-187752437D01*
X58761905Y-187752437D02*
X58857143Y-187704818D01*
X58857143Y-187704818D02*
X59095238Y-187704818D01*
X59095238Y-187704818D02*
X59190476Y-187752437D01*
X59190476Y-187752437D02*
X59238095Y-187800056D01*
X59238095Y-187800056D02*
X59285714Y-187895294D01*
X59285714Y-187895294D02*
X59285714Y-187990532D01*
X59285714Y-187990532D02*
X59238095Y-188133389D01*
X59238095Y-188133389D02*
X58666667Y-188704818D01*
X58666667Y-188704818D02*
X59285714Y-188704818D01*
%TO.C,C202*%
D11*
X41465000Y-19881252D02*
X41465000Y-19358748D01*
X42935000Y-19881252D02*
X42935000Y-19358748D01*
%TO.C,R332*%
X83165000Y-27467064D02*
X83165000Y-27012936D01*
X84635000Y-27467064D02*
X84635000Y-27012936D01*
%TO.C,R155*%
X77265000Y-71947064D02*
X77265000Y-71492936D01*
X78735000Y-71947064D02*
X78735000Y-71492936D01*
%TO.C,R804*%
X67205000Y-201487063D02*
X67205000Y-201032935D01*
X68675000Y-201487063D02*
X68675000Y-201032935D01*
%TO.C,R901*%
X4735000Y-143667064D02*
X4735000Y-143212936D01*
X6205000Y-143667064D02*
X6205000Y-143212936D01*
%TO.C,R302*%
X15165000Y-27467064D02*
X15165000Y-27012936D01*
X16635000Y-27467064D02*
X16635000Y-27012936D01*
%TO.C,R202*%
X15165000Y-19847064D02*
X15165000Y-19392936D01*
X16635000Y-19847064D02*
X16635000Y-19392936D01*
%TO.C,C252*%
X57265000Y-131701252D02*
X57265000Y-131178748D01*
X58735000Y-131701252D02*
X58735000Y-131178748D01*
%TO.C,R544*%
X24265000Y-102427064D02*
X24265000Y-101972936D01*
X25735000Y-102427064D02*
X25735000Y-101972936D01*
%TO.C,J17*%
X24620000Y-175139999D02*
X26000000Y-175139999D01*
X24620000Y-176519999D02*
X24620000Y-175139999D01*
X24620000Y-177789999D02*
X24620000Y-180439999D01*
X24620000Y-177789999D02*
X27380000Y-177789999D01*
X24620000Y-180439999D02*
X27380000Y-180439999D01*
X27380000Y-177789999D02*
X27380000Y-180439999D01*
%TO.C,C836*%
X27265000Y-186311251D02*
X27265000Y-185788747D01*
X28735000Y-186311251D02*
X28735000Y-185788747D01*
%TO.C,C818*%
X71265000Y-131201252D02*
X71265000Y-130678748D01*
X72735000Y-131201252D02*
X72735000Y-130678748D01*
%TO.C,U15*%
D12*
X42340000Y-197159999D02*
X42340000Y-198159999D01*
X42940000Y-197759999D02*
X42940000Y-206859999D01*
X42940000Y-197759999D02*
X64740000Y-197759999D01*
X42940000Y-206859999D02*
X64740000Y-206859999D01*
X64740000Y-197759999D02*
X64740000Y-206859999D01*
%TO.C,R111*%
D11*
X34265000Y-12227064D02*
X34265000Y-11772936D01*
X35735000Y-12227064D02*
X35735000Y-11772936D01*
%TO.C,J3*%
X4620000Y-25860000D02*
X6000000Y-25860000D01*
X4620000Y-27240000D02*
X4620000Y-25860000D01*
X4620000Y-28510000D02*
X4620000Y-31160000D01*
X4620000Y-28510000D02*
X7380000Y-28510000D01*
X4620000Y-31160000D02*
X7380000Y-31160000D01*
X7380000Y-28510000D02*
X7380000Y-31160000D01*
%TO.C,R315*%
X38265000Y-27467064D02*
X38265000Y-27012936D01*
X39735000Y-27467064D02*
X39735000Y-27012936D01*
%TO.C,C841*%
X47265000Y-190911251D02*
X47265000Y-190388747D01*
X48735000Y-190911251D02*
X48735000Y-190388747D01*
%TO.C,R442*%
X16265000Y-94807064D02*
X16265000Y-94352936D01*
X17735000Y-94807064D02*
X17735000Y-94352936D01*
%TO.C,C805*%
X39265000Y-167701252D02*
X39265000Y-167178748D01*
X40735000Y-167701252D02*
X40735000Y-167178748D01*
%TO.C,R151*%
X51265000Y-71947064D02*
X51265000Y-71492936D01*
X52735000Y-71947064D02*
X52735000Y-71492936D01*
%TO.C,R353*%
X69265000Y-87187064D02*
X69265000Y-86732936D01*
X70735000Y-87187064D02*
X70735000Y-86732936D01*
%TO.C,C451*%
X81065000Y-94841252D02*
X81065000Y-94318748D01*
X82535000Y-94841252D02*
X82535000Y-94318748D01*
%TO.C,D551*%
X59000000Y-104560000D02*
X59000000Y-100550000D01*
X59000000Y-104560000D02*
X61000000Y-104560000D01*
X61000000Y-104560000D02*
X61000000Y-100550000D01*
%TO.C,R311*%
X34265000Y-27467064D02*
X34265000Y-27012936D01*
X35735000Y-27467064D02*
X35735000Y-27012936D01*
%TO.C,R344*%
X24265000Y-87187064D02*
X24265000Y-86732936D01*
X25735000Y-87187064D02*
X25735000Y-86732936D01*
%TO.C,U10*%
X44940000Y-40420000D02*
X44995000Y-40420000D01*
X44940000Y-44540000D02*
X44940000Y-40420000D01*
X44995000Y-44540000D02*
X44940000Y-44540000D01*
X55005000Y-40420000D02*
X55060000Y-40420000D01*
X55060000Y-40420000D02*
X55060000Y-44540000D01*
X55060000Y-44540000D02*
X55005000Y-44540000D01*
X44990000Y-45080000D02*
X44660000Y-45320000D01*
X44660000Y-44840000D01*
X44990000Y-45080000D01*
G36*
X44990000Y-45080000D02*
G01*
X44660000Y-45320000D01*
X44660000Y-44840000D01*
X44990000Y-45080000D01*
G37*
%TO.C,R611*%
X34265000Y-50327064D02*
X34265000Y-49872936D01*
X35735000Y-50327064D02*
X35735000Y-49872936D01*
%TO.C,C814*%
X98129999Y-201971251D02*
X98129999Y-200548747D01*
X100849999Y-201971251D02*
X100849999Y-200548747D01*
%TO.C,R152*%
X55265000Y-71947064D02*
X55265000Y-71492936D01*
X56735000Y-71947064D02*
X56735000Y-71492936D01*
%TO.C,C151*%
X81065000Y-71981252D02*
X81065000Y-71458748D01*
X82535000Y-71981252D02*
X82535000Y-71458748D01*
%TO.C,C815*%
X83265000Y-131201252D02*
X83265000Y-130678748D01*
X84735000Y-131201252D02*
X84735000Y-130678748D01*
%TO.C,C711*%
X42265000Y-143701252D02*
X42265000Y-143178748D01*
X43735000Y-143701252D02*
X43735000Y-143178748D01*
%TO.C,R851*%
X79265000Y-190877063D02*
X79265000Y-190422935D01*
X80735000Y-190877063D02*
X80735000Y-190422935D01*
%TO.C,C705*%
X21265000Y-143701252D02*
X21265000Y-143178748D01*
X22735000Y-143701252D02*
X22735000Y-143178748D01*
%TO.C,R102*%
X15165000Y-12227064D02*
X15165000Y-11772936D01*
X16635000Y-12227064D02*
X16635000Y-11772936D01*
%TO.C,D352*%
X64000000Y-89320000D02*
X64000000Y-85310000D01*
X64000000Y-89320000D02*
X66000000Y-89320000D01*
X66000000Y-89320000D02*
X66000000Y-85310000D01*
%TO.C,R443*%
X20265000Y-94807064D02*
X20265000Y-94352936D01*
X21735000Y-94807064D02*
X21735000Y-94352936D01*
%TO.C,C701*%
X7265000Y-143701252D02*
X7265000Y-143178748D01*
X8735000Y-143701252D02*
X8735000Y-143178748D01*
%TO.C,R511*%
X34265000Y-42707064D02*
X34265000Y-42252936D01*
X35735000Y-42707064D02*
X35735000Y-42252936D01*
%TO.C,U17*%
X67690000Y-134265000D02*
X72310000Y-134265000D01*
X72310000Y-141035000D02*
X67690000Y-141035000D01*
X66140000Y-134720000D02*
X65810000Y-134960000D01*
X65810000Y-134480000D01*
X66140000Y-134720000D01*
G36*
X66140000Y-134720000D02*
G01*
X65810000Y-134960000D01*
X65810000Y-134480000D01*
X66140000Y-134720000D01*
G37*
%TO.C,C101*%
X29440000Y-12711252D02*
X29440000Y-11288748D01*
X32160000Y-12711252D02*
X32160000Y-11288748D01*
%TO.C,R101*%
X12265000Y-12227064D02*
X12265000Y-11772936D01*
X13735000Y-12227064D02*
X13735000Y-11772936D01*
%TO.C,D251*%
X59000000Y-81700000D02*
X59000000Y-77690000D01*
X59000000Y-81700000D02*
X61000000Y-81700000D01*
X61000000Y-81700000D02*
X61000000Y-77690000D01*
%TO.C,D803*%
X43000000Y-129650000D02*
X43000000Y-125790000D01*
X43000000Y-129650000D02*
X45000000Y-129650000D01*
X45000000Y-129650000D02*
X45000000Y-125790000D01*
%TO.C,U7*%
X35565000Y-81090000D02*
X35630000Y-81090000D01*
X35565000Y-85210000D02*
X35565000Y-81090000D01*
X35630000Y-85210000D02*
X35565000Y-85210000D01*
X44370000Y-81090000D02*
X44435000Y-81090000D01*
X44435000Y-81090000D02*
X44435000Y-85210000D01*
X44435000Y-85210000D02*
X44370000Y-85210000D01*
X35630000Y-85750000D02*
X35300000Y-85990000D01*
X35300000Y-85510000D01*
X35630000Y-85750000D01*
G36*
X35630000Y-85750000D02*
G01*
X35300000Y-85990000D01*
X35300000Y-85510000D01*
X35630000Y-85750000D01*
G37*
%TO.C,U8*%
X35565000Y-103950000D02*
X35630000Y-103950000D01*
X35565000Y-108070000D02*
X35565000Y-103950000D01*
X35630000Y-108070000D02*
X35565000Y-108070000D01*
X44370000Y-103950000D02*
X44435000Y-103950000D01*
X44435000Y-103950000D02*
X44435000Y-108070000D01*
X44435000Y-108070000D02*
X44370000Y-108070000D01*
X35630000Y-108610000D02*
X35300000Y-108850000D01*
X35300000Y-108370000D01*
X35630000Y-108610000D01*
G36*
X35630000Y-108610000D02*
G01*
X35300000Y-108850000D01*
X35300000Y-108370000D01*
X35630000Y-108610000D01*
G37*
%TO.C,D351*%
X59000000Y-89320000D02*
X59000000Y-85310000D01*
X59000000Y-89320000D02*
X61000000Y-89320000D01*
X61000000Y-89320000D02*
X61000000Y-85310000D01*
%TO.C,D801*%
X42440000Y-166680000D02*
X43440000Y-166680000D01*
X42440000Y-168200000D02*
X42440000Y-166680000D01*
X42490000Y-168200000D02*
X42440000Y-168200000D01*
X44390000Y-168200000D02*
X43610000Y-168200000D01*
X44560000Y-166680000D02*
X45560000Y-166680000D01*
X45560000Y-166680000D02*
X45560000Y-168200000D01*
X45560000Y-168200000D02*
X45510000Y-168200000D01*
X43620000Y-168740000D02*
X43950000Y-168500000D01*
X43950000Y-168980000D01*
X43620000Y-168740000D01*
G36*
X43950000Y-168980000D02*
G01*
X43620000Y-168740000D01*
X43950000Y-168500000D01*
X43950000Y-168980000D01*
G37*
%TO.C,R811*%
X39265000Y-172297064D02*
X39265000Y-171842936D01*
X40735000Y-172297064D02*
X40735000Y-171842936D01*
%TO.C,D833*%
X72440000Y-166680000D02*
X73440000Y-166680000D01*
X72440000Y-168200000D02*
X72440000Y-166680000D01*
X72490000Y-168200000D02*
X72440000Y-168200000D01*
X74390000Y-168200000D02*
X73610000Y-168200000D01*
X74560000Y-166680000D02*
X75560000Y-166680000D01*
X75560000Y-166680000D02*
X75560000Y-168200000D01*
X75560000Y-168200000D02*
X75510000Y-168200000D01*
X73620000Y-168740000D02*
X73950000Y-168500000D01*
X73950000Y-168980000D01*
X73620000Y-168740000D01*
G36*
X73950000Y-168980000D02*
G01*
X73620000Y-168740000D01*
X73950000Y-168500000D01*
X73950000Y-168980000D01*
G37*
%TO.C,C542*%
X32064999Y-102461252D02*
X32064999Y-101938748D01*
X33534999Y-102461252D02*
X33534999Y-101938748D01*
%TO.C,C723*%
X42265000Y-147701252D02*
X42265000Y-147178748D01*
X43735000Y-147701252D02*
X43735000Y-147178748D01*
%TO.C,C835*%
X18015000Y-192681252D02*
X18015000Y-192158748D01*
X19485000Y-192681252D02*
X19485000Y-192158748D01*
%TO.C,R642*%
X16265000Y-110047064D02*
X16265000Y-109592936D01*
X17735000Y-110047064D02*
X17735000Y-109592936D01*
%TO.C,J7*%
X7200000Y-137440000D02*
G75*
G02*
X4800000Y-137440000I-1200000J0D01*
G01*
X4800000Y-137440000D02*
G75*
G02*
X7200000Y-137440000I1200000J0D01*
G01*
%TO.C,R831*%
X39265000Y-186277063D02*
X39265000Y-185822935D01*
X40735000Y-186277063D02*
X40735000Y-185822935D01*
%TO.C,R453*%
X69265000Y-94807064D02*
X69265000Y-94352936D01*
X70735000Y-94807064D02*
X70735000Y-94352936D01*
%TO.C,C242*%
X32064999Y-79601252D02*
X32064999Y-79078748D01*
X33534999Y-79601252D02*
X33534999Y-79078748D01*
%TO.C,U16*%
X87869999Y-197809999D02*
X87869999Y-198079999D01*
X87869999Y-204709999D02*
X87869999Y-204439999D01*
X94289999Y-197809999D02*
X87869999Y-197809999D01*
X94289999Y-204709999D02*
X87869999Y-204709999D01*
X86139999Y-198119999D02*
X85799999Y-197649999D01*
X86479999Y-197649999D01*
X86139999Y-198119999D01*
G36*
X86139999Y-198119999D02*
G01*
X85799999Y-197649999D01*
X86479999Y-197649999D01*
X86139999Y-198119999D01*
G37*
%TO.C,C601*%
X29440000Y-50811252D02*
X29440000Y-49388748D01*
X32160000Y-50811252D02*
X32160000Y-49388748D01*
%TO.C,U6*%
X86565000Y-58850000D02*
X86630000Y-58850000D01*
X86565000Y-62970000D02*
X86565000Y-58850000D01*
X86630000Y-62970000D02*
X86565000Y-62970000D01*
X95370000Y-58850000D02*
X95435000Y-58850000D01*
X95435000Y-58850000D02*
X95435000Y-62970000D01*
X95435000Y-62970000D02*
X95370000Y-62970000D01*
X86630000Y-63510000D02*
X86300000Y-63750000D01*
X86300000Y-63270000D01*
X86630000Y-63510000D01*
G36*
X86630000Y-63510000D02*
G01*
X86300000Y-63750000D01*
X86300000Y-63270000D01*
X86630000Y-63510000D01*
G37*
%TO.C,R641*%
X12265000Y-110047064D02*
X12265000Y-109592936D01*
X13735000Y-110047064D02*
X13735000Y-109592936D01*
%TO.C,R541*%
X12265000Y-102427064D02*
X12265000Y-101972936D01*
X13735000Y-102427064D02*
X13735000Y-101972936D01*
%TO.C,C722*%
X38765000Y-147701252D02*
X38765000Y-147178748D01*
X40235000Y-147701252D02*
X40235000Y-147178748D01*
%TO.C,R301*%
X12265000Y-27467064D02*
X12265000Y-27012936D01*
X13735000Y-27467064D02*
X13735000Y-27012936D01*
%TO.C,R354*%
X73265000Y-87187064D02*
X73265000Y-86732936D01*
X74735000Y-87187064D02*
X74735000Y-86732936D01*
%TO.C,R441*%
X12265000Y-94807064D02*
X12265000Y-94352936D01*
X13735000Y-94807064D02*
X13735000Y-94352936D01*
%TO.C,R833*%
X48265000Y-186277063D02*
X48265000Y-185822935D01*
X49735000Y-186277063D02*
X49735000Y-185822935D01*
%TO.C,C816*%
X83265000Y-144201252D02*
X83265000Y-143678748D01*
X84735000Y-144201252D02*
X84735000Y-143678748D01*
%TO.C,C838*%
X51265000Y-186311251D02*
X51265000Y-185788747D01*
X52735000Y-186311251D02*
X52735000Y-185788747D01*
%TO.C,R654*%
X73265000Y-110047064D02*
X73265000Y-109592936D01*
X74735000Y-110047064D02*
X74735000Y-109592936D01*
%TO.C,J6*%
X4620000Y-48720000D02*
X6000000Y-48720000D01*
X4620000Y-50100000D02*
X4620000Y-48720000D01*
X4620000Y-51370000D02*
X4620000Y-54020000D01*
X4620000Y-51370000D02*
X7380000Y-51370000D01*
X4620000Y-54020000D02*
X7380000Y-54020000D01*
X7380000Y-51370000D02*
X7380000Y-54020000D01*
%TO.C,R431*%
X75265000Y-35087064D02*
X75265000Y-34632936D01*
X76735000Y-35087064D02*
X76735000Y-34632936D01*
%TO.C,J2*%
X4620000Y-18240000D02*
X6000000Y-18240000D01*
X4620000Y-19620000D02*
X4620000Y-18240000D01*
X4620000Y-20890000D02*
X4620000Y-23540000D01*
X4620000Y-20890000D02*
X7380000Y-20890000D01*
X4620000Y-23540000D02*
X7380000Y-23540000D01*
X7380000Y-20890000D02*
X7380000Y-23540000D01*
%TO.C,R651*%
X51265000Y-110047064D02*
X51265000Y-109592936D01*
X52735000Y-110047064D02*
X52735000Y-109592936D01*
%TO.C,C352*%
X57265000Y-135701252D02*
X57265000Y-135178748D01*
X58735000Y-135701252D02*
X58735000Y-135178748D01*
%TO.C,R543*%
X20265000Y-102427064D02*
X20265000Y-101972936D01*
X21735000Y-102427064D02*
X21735000Y-101972936D01*
%TO.C,U5*%
X86565000Y-21370000D02*
X86630000Y-21370000D01*
X86565000Y-25490000D02*
X86565000Y-21370000D01*
X86630000Y-25490000D02*
X86565000Y-25490000D01*
X95370000Y-21370000D02*
X95435000Y-21370000D01*
X95435000Y-21370000D02*
X95435000Y-25490000D01*
X95435000Y-25490000D02*
X95370000Y-25490000D01*
X86630000Y-26030000D02*
X86300000Y-26270000D01*
X86300000Y-25790000D01*
X86630000Y-26030000D01*
G36*
X86630000Y-26030000D02*
G01*
X86300000Y-26270000D01*
X86300000Y-25790000D01*
X86630000Y-26030000D01*
G37*
%TO.C,U12*%
X11440000Y-125380000D02*
X11535000Y-125380000D01*
X11440000Y-129500000D02*
X11440000Y-125380000D01*
X11535000Y-129500000D02*
X11440000Y-129500000D01*
X16465000Y-125380000D02*
X16560000Y-125380000D01*
X16560000Y-125380000D02*
X16560000Y-129500000D01*
X16560000Y-129500000D02*
X16465000Y-129500000D01*
X11530000Y-130040000D02*
X11200000Y-130280000D01*
X11200000Y-129800000D01*
X11530000Y-130040000D01*
G36*
X11530000Y-130040000D02*
G01*
X11200000Y-130280000D01*
X11200000Y-129800000D01*
X11530000Y-130040000D01*
G37*
%TO.C,J18*%
X30620000Y-175139999D02*
X32000000Y-175139999D01*
X30620000Y-176519999D02*
X30620000Y-175139999D01*
X30620000Y-177789999D02*
X30620000Y-182979999D01*
X30620000Y-177789999D02*
X33380000Y-177789999D01*
X30620000Y-182979999D02*
X33380000Y-182979999D01*
X33380000Y-177789999D02*
X33380000Y-182979999D01*
%TO.C,R515*%
X38265000Y-42707064D02*
X38265000Y-42252936D01*
X39735000Y-42707064D02*
X39735000Y-42252936D01*
%TO.C,R827*%
X21415000Y-186277063D02*
X21415000Y-185822935D01*
X22885000Y-186277063D02*
X22885000Y-185822935D01*
%TO.C,R331*%
X75265000Y-27467064D02*
X75265000Y-27012936D01*
X76735000Y-27467064D02*
X76735000Y-27012936D01*
%TO.C,R813*%
X47265000Y-172297064D02*
X47265000Y-171842936D01*
X48735000Y-172297064D02*
X48735000Y-171842936D01*
%TO.C,D823*%
X68440000Y-166680000D02*
X69440000Y-166680000D01*
X68440000Y-168200000D02*
X68440000Y-166680000D01*
X68490000Y-168200000D02*
X68440000Y-168200000D01*
X70390000Y-168200000D02*
X69610000Y-168200000D01*
X70560000Y-166680000D02*
X71560000Y-166680000D01*
X71560000Y-166680000D02*
X71560000Y-168200000D01*
X71560000Y-168200000D02*
X71510000Y-168200000D01*
X69620000Y-168740000D02*
X69950000Y-168500000D01*
X69950000Y-168980000D01*
X69620000Y-168740000D01*
G36*
X69950000Y-168980000D02*
G01*
X69620000Y-168740000D01*
X69950000Y-168500000D01*
X69950000Y-168980000D01*
G37*
%TO.C,C708*%
X31765000Y-143701252D02*
X31765000Y-143178748D01*
X33235000Y-143701252D02*
X33235000Y-143178748D01*
%TO.C,J8*%
X4620000Y-196879999D02*
X6000000Y-196879999D01*
X4620000Y-198259999D02*
X4620000Y-196879999D01*
X4620000Y-199529999D02*
X4620000Y-202179999D01*
X4620000Y-199529999D02*
X7380000Y-199529999D01*
X4620000Y-202179999D02*
X7380000Y-202179999D01*
X7380000Y-199529999D02*
X7380000Y-202179999D01*
%TO.C,R257*%
X53265000Y-131667064D02*
X53265000Y-131212936D01*
X54735000Y-131667064D02*
X54735000Y-131212936D01*
%TO.C,R343*%
X20265000Y-87187064D02*
X20265000Y-86732936D01*
X21735000Y-87187064D02*
X21735000Y-86732936D01*
%TO.C,K802*%
X54400000Y-153640000D02*
X54800000Y-153640000D01*
X54400000Y-161340000D02*
X54400000Y-153640000D01*
X54800000Y-161340000D02*
X54400000Y-161340000D01*
X54800000Y-162540000D02*
X54800000Y-161340000D01*
X56500000Y-153640000D02*
X59800000Y-153640000D01*
X56500000Y-161340000D02*
X56500000Y-162540000D01*
X56500000Y-161340000D02*
X59800000Y-161340000D01*
X61500000Y-161340000D02*
X62500000Y-161340000D01*
X62500000Y-153640000D02*
X61500000Y-153640000D01*
X64100000Y-161340000D02*
X65000000Y-161340000D01*
X65000000Y-153640000D02*
X64100000Y-153640000D01*
X66700000Y-161340000D02*
X69500000Y-161340000D01*
X69500000Y-153640000D02*
X66700000Y-153640000D01*
X69500000Y-161340000D02*
X69500000Y-153640000D01*
%TO.C,C521*%
X60065000Y-42741252D02*
X60065000Y-42218748D01*
X61535000Y-42741252D02*
X61535000Y-42218748D01*
%TO.C,C251*%
X81065000Y-79601252D02*
X81065000Y-79078748D01*
X82535000Y-79601252D02*
X82535000Y-79078748D01*
%TO.C,C811*%
X69729999Y-201971251D02*
X69729999Y-200548747D01*
X72449999Y-201971251D02*
X72449999Y-200548747D01*
%TO.C,D804*%
X27129999Y-204769999D02*
X27129999Y-199259999D01*
X27129999Y-204769999D02*
X30429999Y-204769999D01*
X30429999Y-204769999D02*
X30429999Y-199259999D01*
%TO.C,R402*%
X15165000Y-35087064D02*
X15165000Y-34632936D01*
X16635000Y-35087064D02*
X16635000Y-34632936D01*
%TO.C,C843*%
X71740000Y-191361251D02*
X71740000Y-189938747D01*
X74460000Y-191361251D02*
X74460000Y-189938747D01*
%TO.C,R341*%
X12265000Y-87187064D02*
X12265000Y-86732936D01*
X13735000Y-87187064D02*
X13735000Y-86732936D01*
%TO.C,R401*%
X12265000Y-35087064D02*
X12265000Y-34632936D01*
X13735000Y-35087064D02*
X13735000Y-34632936D01*
%TO.C,C721*%
X35265000Y-147701252D02*
X35265000Y-147178748D01*
X36735000Y-147701252D02*
X36735000Y-147178748D01*
%TO.C,C720*%
X31765000Y-147701252D02*
X31765000Y-147178748D01*
X33235000Y-147701252D02*
X33235000Y-147178748D01*
%TO.C,C452*%
X57265000Y-139701252D02*
X57265000Y-139178748D01*
X58735000Y-139701252D02*
X58735000Y-139178748D01*
%TO.C,R557*%
X53265000Y-143667064D02*
X53265000Y-143212936D01*
X54735000Y-143667064D02*
X54735000Y-143212936D01*
%TO.C,R829*%
X33265000Y-186277063D02*
X33265000Y-185822935D01*
X34735000Y-186277063D02*
X34735000Y-185822935D01*
%TO.C,R342*%
X16265000Y-87187064D02*
X16265000Y-86732936D01*
X17735000Y-87187064D02*
X17735000Y-86732936D01*
%TO.C,R521*%
X57265000Y-42707064D02*
X57265000Y-42252936D01*
X58735000Y-42707064D02*
X58735000Y-42252936D01*
%TO.C,R144*%
X24265000Y-71947064D02*
X24265000Y-71492936D01*
X25735000Y-71947064D02*
X25735000Y-71492936D01*
%TO.C,R653*%
X69265000Y-110047064D02*
X69265000Y-109592936D01*
X70735000Y-110047064D02*
X70735000Y-109592936D01*
%TO.C,D813*%
X64440000Y-166680000D02*
X65440000Y-166680000D01*
X64440000Y-168200000D02*
X64440000Y-166680000D01*
X64490000Y-168200000D02*
X64440000Y-168200000D01*
X66390000Y-168200000D02*
X65610000Y-168200000D01*
X66560000Y-166680000D02*
X67560000Y-166680000D01*
X67560000Y-166680000D02*
X67560000Y-168200000D01*
X67560000Y-168200000D02*
X67510000Y-168200000D01*
X65620000Y-168740000D02*
X65950000Y-168500000D01*
X65950000Y-168980000D01*
X65620000Y-168740000D01*
G36*
X65950000Y-168980000D02*
G01*
X65620000Y-168740000D01*
X65950000Y-168500000D01*
X65950000Y-168980000D01*
G37*
%TO.C,R411*%
X34265000Y-35087064D02*
X34265000Y-34632936D01*
X35735000Y-35087064D02*
X35735000Y-34632936D01*
%TO.C,R201*%
X12265000Y-19847064D02*
X12265000Y-19392936D01*
X13735000Y-19847064D02*
X13735000Y-19392936D01*
%TO.C,R455*%
X77265000Y-94807064D02*
X77265000Y-94352936D01*
X78735000Y-94807064D02*
X78735000Y-94352936D01*
%TO.C,C803*%
X29265000Y-127701252D02*
X29265000Y-127178748D01*
X30735000Y-127701252D02*
X30735000Y-127178748D01*
%TO.C,C704*%
X17765000Y-143701252D02*
X17765000Y-143178748D01*
X19235000Y-143701252D02*
X19235000Y-143178748D01*
%TO.C,R157*%
X53265000Y-127667064D02*
X53265000Y-127212936D01*
X54735000Y-127667064D02*
X54735000Y-127212936D01*
%TO.C,C342*%
X32064999Y-87221252D02*
X32064999Y-86698748D01*
X33534999Y-87221252D02*
X33534999Y-86698748D01*
%TO.C,C531*%
X79265000Y-42741252D02*
X79265000Y-42218748D01*
X80735000Y-42741252D02*
X80735000Y-42218748D01*
%TO.C,R556*%
X49265000Y-143667064D02*
X49265000Y-143212936D01*
X50735000Y-143667064D02*
X50735000Y-143212936D01*
%TO.C,C341*%
X28265000Y-87221252D02*
X28265000Y-86698748D01*
X29735000Y-87221252D02*
X29735000Y-86698748D01*
%TO.C,C710*%
X38765000Y-143701252D02*
X38765000Y-143178748D01*
X40235000Y-143701252D02*
X40235000Y-143178748D01*
%TO.C,D151*%
X59000000Y-74080000D02*
X59000000Y-70070000D01*
X59000000Y-74080000D02*
X61000000Y-74080000D01*
X61000000Y-74080000D02*
X61000000Y-70070000D01*
%TO.C,R531*%
X75265000Y-42707064D02*
X75265000Y-42252936D01*
X76735000Y-42707064D02*
X76735000Y-42252936D01*
%TO.C,C840*%
X50640000Y-191361251D02*
X50640000Y-189938747D01*
X53360000Y-191361251D02*
X53360000Y-189938747D01*
%TO.C,R656*%
X49265000Y-147667064D02*
X49265000Y-147212936D01*
X50735000Y-147667064D02*
X50735000Y-147212936D01*
%TO.C,C709*%
X35265000Y-143701252D02*
X35265000Y-143178748D01*
X36735000Y-143701252D02*
X36735000Y-143178748D01*
%TO.C,R552*%
X55265000Y-102427064D02*
X55265000Y-101972936D01*
X56735000Y-102427064D02*
X56735000Y-101972936D01*
%TO.C,U18*%
X83240000Y-135880000D02*
X84760000Y-135880000D01*
X83240000Y-135930000D02*
X83240000Y-135880000D01*
X83240000Y-137830000D02*
X83240000Y-137050000D01*
X83240000Y-139000000D02*
X83240000Y-138950000D01*
X84760000Y-135880000D02*
X84760000Y-136880000D01*
X84760000Y-138000000D02*
X84760000Y-139000000D01*
X84760000Y-139000000D02*
X83240000Y-139000000D01*
X82700000Y-137060000D02*
X82940000Y-137390000D01*
X82460000Y-137390000D01*
X82700000Y-137060000D01*
G36*
X82940000Y-137390000D02*
G01*
X82460000Y-137390000D01*
X82700000Y-137060000D01*
X82940000Y-137390000D01*
G37*
%TO.C,C718*%
X24765000Y-147701252D02*
X24765000Y-147178748D01*
X26235000Y-147701252D02*
X26235000Y-147178748D01*
%TO.C,R632*%
X83165000Y-50327064D02*
X83165000Y-49872936D01*
X84635000Y-50327064D02*
X84635000Y-49872936D01*
%TO.C,C142*%
X32064999Y-71981252D02*
X32064999Y-71458748D01*
X33534999Y-71981252D02*
X33534999Y-71458748D01*
%TO.C,U14*%
X84565000Y-103950000D02*
X84630000Y-103950000D01*
X84565000Y-108070000D02*
X84565000Y-103950000D01*
X84630000Y-108070000D02*
X84565000Y-108070000D01*
X93370000Y-103950000D02*
X93435000Y-103950000D01*
X93435000Y-103950000D02*
X93435000Y-108070000D01*
X93435000Y-108070000D02*
X93370000Y-108070000D01*
X84630000Y-108610000D02*
X84300000Y-108850000D01*
X84300000Y-108370000D01*
X84630000Y-108610000D01*
G36*
X84630000Y-108610000D02*
G01*
X84300000Y-108850000D01*
X84300000Y-108370000D01*
X84630000Y-108610000D01*
G37*
%TO.C,R153*%
X69265000Y-71947064D02*
X69265000Y-71492936D01*
X70735000Y-71947064D02*
X70735000Y-71492936D01*
%TO.C,R351*%
X51265000Y-87187064D02*
X51265000Y-86732936D01*
X52735000Y-87187064D02*
X52735000Y-86732936D01*
%TO.C,R243*%
X20265000Y-79567064D02*
X20265000Y-79112936D01*
X21735000Y-79567064D02*
X21735000Y-79112936D01*
%TO.C,R142*%
X16265000Y-71947064D02*
X16265000Y-71492936D01*
X17735000Y-71947064D02*
X17735000Y-71492936D01*
%TO.C,J16*%
X18620000Y-175139999D02*
X20000000Y-175139999D01*
X18620000Y-176519999D02*
X18620000Y-175139999D01*
X18620000Y-177789999D02*
X18620000Y-182979999D01*
X18620000Y-177789999D02*
X21380000Y-177789999D01*
X18620000Y-182979999D02*
X21380000Y-182979999D01*
X21380000Y-177789999D02*
X21380000Y-182979999D01*
%TO.C,R432*%
X83165000Y-35087064D02*
X83165000Y-34632936D01*
X84635000Y-35087064D02*
X84635000Y-34632936D01*
%TO.C,C842*%
X57265000Y-186411251D02*
X57265000Y-185888747D01*
X58735000Y-186411251D02*
X58735000Y-185888747D01*
%TO.C,C703*%
X14265000Y-143701252D02*
X14265000Y-143178748D01*
X15735000Y-143701252D02*
X15735000Y-143178748D01*
%TO.C,C819*%
X75265000Y-131201252D02*
X75265000Y-130678748D01*
X76735000Y-131201252D02*
X76735000Y-130678748D01*
%TO.C,U21*%
X10300000Y-184999999D02*
X17700000Y-184999999D01*
X10300000Y-189099999D02*
X17700000Y-189099999D01*
X9250000Y-185124999D02*
X9010000Y-184794999D01*
X9490000Y-184794999D01*
X9250000Y-185124999D01*
G36*
X9250000Y-185124999D02*
G01*
X9010000Y-184794999D01*
X9490000Y-184794999D01*
X9250000Y-185124999D01*
G37*
%TO.C,R131*%
X75265000Y-12227064D02*
X75265000Y-11772936D01*
X76735000Y-12227064D02*
X76735000Y-11772936D01*
%TO.C,R850*%
X76265000Y-190877063D02*
X76265000Y-190422935D01*
X77735000Y-190877063D02*
X77735000Y-190422935D01*
%TO.C,C441*%
X28265000Y-94841252D02*
X28265000Y-94318748D01*
X29735000Y-94841252D02*
X29735000Y-94318748D01*
%TO.C,C719*%
X28265000Y-147701252D02*
X28265000Y-147178748D01*
X29735000Y-147701252D02*
X29735000Y-147178748D01*
%TO.C,R803*%
X55265000Y-167667064D02*
X55265000Y-167212936D01*
X56735000Y-167667064D02*
X56735000Y-167212936D01*
%TO.C,J4*%
X4620000Y-33480000D02*
X6000000Y-33480000D01*
X4620000Y-34860000D02*
X4620000Y-33480000D01*
X4620000Y-36130000D02*
X4620000Y-38780000D01*
X4620000Y-36130000D02*
X7380000Y-36130000D01*
X4620000Y-38780000D02*
X7380000Y-38780000D01*
X7380000Y-36130000D02*
X7380000Y-38780000D01*
%TO.C,C702*%
X10765000Y-143701252D02*
X10765000Y-143178748D01*
X12235000Y-143701252D02*
X12235000Y-143178748D01*
%TO.C,R241*%
X12265000Y-79567064D02*
X12265000Y-79112936D01*
X13735000Y-79567064D02*
X13735000Y-79112936D01*
%TO.C,R154*%
X73265000Y-71947064D02*
X73265000Y-71492936D01*
X74735000Y-71947064D02*
X74735000Y-71492936D01*
%TO.C,R832*%
X45265000Y-186277063D02*
X45265000Y-185822935D01*
X46735000Y-186277063D02*
X46735000Y-185822935D01*
%TO.C,R644*%
X24265000Y-110047064D02*
X24265000Y-109592936D01*
X25735000Y-110047064D02*
X25735000Y-109592936D01*
%TO.C,J19*%
X36620000Y-175139999D02*
X38000000Y-175139999D01*
X36620000Y-176519999D02*
X36620000Y-175139999D01*
X36620000Y-177789999D02*
X36620000Y-180439999D01*
X36620000Y-177789999D02*
X39380000Y-177789999D01*
X36620000Y-180439999D02*
X39380000Y-180439999D01*
X39380000Y-177789999D02*
X39380000Y-180439999D01*
%TO.C,R211*%
X34265000Y-19847064D02*
X34265000Y-19392936D01*
X35735000Y-19847064D02*
X35735000Y-19392936D01*
%TO.C,D802*%
X46440000Y-166680000D02*
X47440000Y-166680000D01*
X46440000Y-168200000D02*
X46440000Y-166680000D01*
X46490000Y-168200000D02*
X46440000Y-168200000D01*
X48390000Y-168200000D02*
X47610000Y-168200000D01*
X48560000Y-166680000D02*
X49560000Y-166680000D01*
X49560000Y-166680000D02*
X49560000Y-168200000D01*
X49560000Y-168200000D02*
X49510000Y-168200000D01*
X47620000Y-168740000D02*
X47950000Y-168500000D01*
X47950000Y-168980000D01*
X47620000Y-168740000D01*
G36*
X47950000Y-168980000D02*
G01*
X47620000Y-168740000D01*
X47950000Y-168500000D01*
X47950000Y-168980000D01*
G37*
%TO.C,R121*%
X57265000Y-12227064D02*
X57265000Y-11772936D01*
X58735000Y-12227064D02*
X58735000Y-11772936D01*
%TO.C,R643*%
X20265000Y-110047064D02*
X20265000Y-109592936D01*
X21735000Y-110047064D02*
X21735000Y-109592936D01*
%TO.C,R554*%
X73265000Y-102427064D02*
X73265000Y-101972936D01*
X74735000Y-102427064D02*
X74735000Y-101972936D01*
%TO.C,R551*%
X51265000Y-102427064D02*
X51265000Y-101972936D01*
X52735000Y-102427064D02*
X52735000Y-101972936D01*
%TO.C,C541*%
X28265000Y-102461252D02*
X28265000Y-101938748D01*
X29735000Y-102461252D02*
X29735000Y-101938748D01*
%TO.C,R244*%
X24265000Y-79567064D02*
X24265000Y-79112936D01*
X25735000Y-79567064D02*
X25735000Y-79112936D01*
%TO.C,C806*%
X51265000Y-167701252D02*
X51265000Y-167178748D01*
X52735000Y-167701252D02*
X52735000Y-167178748D01*
%TO.C,R655*%
X77265000Y-110047064D02*
X77265000Y-109592936D01*
X78735000Y-110047064D02*
X78735000Y-109592936D01*
%TO.C,C301*%
X29440000Y-27951252D02*
X29440000Y-26528748D01*
X32160000Y-27951252D02*
X32160000Y-26528748D01*
%TO.C,C421*%
X60065000Y-35121252D02*
X60065000Y-34598748D01*
X61535000Y-35121252D02*
X61535000Y-34598748D01*
%TO.C,D806*%
X43000000Y-223859999D02*
X43000000Y-219999999D01*
X43000000Y-223859999D02*
X45000000Y-223859999D01*
X45000000Y-223859999D02*
X45000000Y-219999999D01*
%TO.C,F801*%
X9289999Y-204309999D02*
X9289999Y-198209999D01*
X12509999Y-204309999D02*
X12509999Y-198209999D01*
%TO.C,U9*%
X44940000Y-17560000D02*
X44995000Y-17560000D01*
X44940000Y-21680000D02*
X44940000Y-17560000D01*
X44995000Y-21680000D02*
X44940000Y-21680000D01*
X55005000Y-17560000D02*
X55060000Y-17560000D01*
X55060000Y-17560000D02*
X55060000Y-21680000D01*
X55060000Y-21680000D02*
X55005000Y-21680000D01*
X44990000Y-22220000D02*
X44660000Y-22460000D01*
X44660000Y-21980000D01*
X44990000Y-22220000D01*
G36*
X44990000Y-22220000D02*
G01*
X44660000Y-22460000D01*
X44660000Y-21980000D01*
X44990000Y-22220000D01*
G37*
%TO.C,R115*%
X38265000Y-12227064D02*
X38265000Y-11772936D01*
X39735000Y-12227064D02*
X39735000Y-11772936D01*
%TO.C,R456*%
X49265000Y-139667064D02*
X49265000Y-139212936D01*
X50735000Y-139667064D02*
X50735000Y-139212936D01*
%TO.C,R532*%
X83165000Y-42707064D02*
X83165000Y-42252936D01*
X84635000Y-42707064D02*
X84635000Y-42252936D01*
%TO.C,D252*%
X64000000Y-81700000D02*
X64000000Y-77690000D01*
X64000000Y-81700000D02*
X66000000Y-81700000D01*
X66000000Y-81700000D02*
X66000000Y-77690000D01*
%TO.C,D452*%
X64000000Y-96940000D02*
X64000000Y-92930000D01*
X64000000Y-96940000D02*
X66000000Y-96940000D01*
X66000000Y-96940000D02*
X66000000Y-92930000D01*
%TO.C,C651*%
X81065000Y-110081252D02*
X81065000Y-109558748D01*
X82535000Y-110081252D02*
X82535000Y-109558748D01*
%TO.C,C102*%
X41465000Y-12261252D02*
X41465000Y-11738748D01*
X42935000Y-12261252D02*
X42935000Y-11738748D01*
%TO.C,U2*%
X18565000Y-58850000D02*
X18630000Y-58850000D01*
X18565000Y-62970000D02*
X18565000Y-58850000D01*
X18630000Y-62970000D02*
X18565000Y-62970000D01*
X27370000Y-58850000D02*
X27435000Y-58850000D01*
X27435000Y-58850000D02*
X27435000Y-62970000D01*
X27435000Y-62970000D02*
X27370000Y-62970000D01*
X18630000Y-63510000D02*
X18300000Y-63750000D01*
X18300000Y-63270000D01*
X18630000Y-63510000D01*
G36*
X18630000Y-63510000D02*
G01*
X18300000Y-63750000D01*
X18300000Y-63270000D01*
X18630000Y-63510000D01*
G37*
%TO.C,R242*%
X16265000Y-79567064D02*
X16265000Y-79112936D01*
X17735000Y-79567064D02*
X17735000Y-79112936D01*
%TO.C,U4*%
X63565000Y-58850000D02*
X63630000Y-58850000D01*
X63565000Y-62970000D02*
X63565000Y-58850000D01*
X63630000Y-62970000D02*
X63565000Y-62970000D01*
X72370000Y-58850000D02*
X72435000Y-58850000D01*
X72435000Y-58850000D02*
X72435000Y-62970000D01*
X72435000Y-62970000D02*
X72370000Y-62970000D01*
X63630000Y-63510000D02*
X63300000Y-63750000D01*
X63300000Y-63270000D01*
X63630000Y-63510000D01*
G36*
X63630000Y-63510000D02*
G01*
X63300000Y-63750000D01*
X63300000Y-63270000D01*
X63630000Y-63510000D01*
G37*
%TO.C,C131*%
X79265000Y-12261252D02*
X79265000Y-11738748D01*
X80735000Y-12261252D02*
X80735000Y-11738748D01*
%TO.C,D451*%
X59000000Y-96940000D02*
X59000000Y-92930000D01*
X59000000Y-96940000D02*
X61000000Y-96940000D01*
X61000000Y-96940000D02*
X61000000Y-92930000D01*
%TO.C,R812*%
X43265000Y-172297064D02*
X43265000Y-171842936D01*
X44735000Y-172297064D02*
X44735000Y-171842936D01*
%TO.C,R357*%
X53265000Y-135667064D02*
X53265000Y-135212936D01*
X54735000Y-135667064D02*
X54735000Y-135212936D01*
%TO.C,R255*%
X77265000Y-79567064D02*
X77265000Y-79112936D01*
X78735000Y-79567064D02*
X78735000Y-79112936D01*
%TO.C,U1*%
X18565000Y-21370000D02*
X18630000Y-21370000D01*
X18565000Y-25490000D02*
X18565000Y-21370000D01*
X18630000Y-25490000D02*
X18565000Y-25490000D01*
X27370000Y-21370000D02*
X27435000Y-21370000D01*
X27435000Y-21370000D02*
X27435000Y-25490000D01*
X27435000Y-25490000D02*
X27370000Y-25490000D01*
X18630000Y-26030000D02*
X18300000Y-26270000D01*
X18300000Y-25790000D01*
X18630000Y-26030000D01*
G36*
X18630000Y-26030000D02*
G01*
X18300000Y-26270000D01*
X18300000Y-25790000D01*
X18630000Y-26030000D01*
G37*
%TO.C,R902*%
X5265000Y-157212936D02*
X5265000Y-157667064D01*
X6735000Y-157212936D02*
X6735000Y-157667064D01*
%TO.C,R452*%
X55265000Y-94807064D02*
X55265000Y-94352936D01*
X56735000Y-94807064D02*
X56735000Y-94352936D01*
%TO.C,R156*%
X49265000Y-127667064D02*
X49265000Y-127212936D01*
X50735000Y-127667064D02*
X50735000Y-127212936D01*
%TO.C,C321*%
X60065000Y-27501252D02*
X60065000Y-26978748D01*
X61535000Y-27501252D02*
X61535000Y-26978748D01*
%TO.C,R444*%
X24265000Y-94807064D02*
X24265000Y-94352936D01*
X25735000Y-94807064D02*
X25735000Y-94352936D01*
%TO.C,C442*%
X32064999Y-94841252D02*
X32064999Y-94318748D01*
X33534999Y-94841252D02*
X33534999Y-94318748D01*
%TO.C,C552*%
X57265000Y-143701252D02*
X57265000Y-143178748D01*
X58735000Y-143701252D02*
X58735000Y-143178748D01*
%TO.C,C501*%
X29440000Y-43191252D02*
X29440000Y-41768748D01*
X32160000Y-43191252D02*
X32160000Y-41768748D01*
%TO.C,K803*%
X72400000Y-153640000D02*
X72800000Y-153640000D01*
X72400000Y-161340000D02*
X72400000Y-153640000D01*
X72800000Y-161340000D02*
X72400000Y-161340000D01*
X72800000Y-162540000D02*
X72800000Y-161340000D01*
X74500000Y-153640000D02*
X77800000Y-153640000D01*
X74500000Y-161340000D02*
X74500000Y-162540000D01*
X74500000Y-161340000D02*
X77800000Y-161340000D01*
X79500000Y-161340000D02*
X80500000Y-161340000D01*
X80500000Y-153640000D02*
X79500000Y-153640000D01*
X82100000Y-161340000D02*
X83000000Y-161340000D01*
X83000000Y-153640000D02*
X82100000Y-153640000D01*
X84700000Y-161340000D02*
X87500000Y-161340000D01*
X87500000Y-153640000D02*
X84700000Y-153640000D01*
X87500000Y-161340000D02*
X87500000Y-153640000D01*
%TO.C,D651*%
X59000000Y-112180000D02*
X59000000Y-108170000D01*
X59000000Y-112180000D02*
X61000000Y-112180000D01*
X61000000Y-112180000D02*
X61000000Y-108170000D01*
%TO.C,R615*%
X38265000Y-50327064D02*
X38265000Y-49872936D01*
X39735000Y-50327064D02*
X39735000Y-49872936D01*
%TO.C,C502*%
X41465000Y-42741252D02*
X41465000Y-42218748D01*
X42935000Y-42741252D02*
X42935000Y-42218748D01*
%TO.C,R356*%
X49265000Y-135667064D02*
X49265000Y-135212936D01*
X50735000Y-135667064D02*
X50735000Y-135212936D01*
%TO.C,C715*%
X14265000Y-147701252D02*
X14265000Y-147178748D01*
X15735000Y-147701252D02*
X15735000Y-147178748D01*
%TO.C,C241*%
X28265000Y-79601252D02*
X28265000Y-79078748D01*
X29735000Y-79601252D02*
X29735000Y-79078748D01*
%TO.C,R502*%
X15165000Y-42707064D02*
X15165000Y-42252936D01*
X16635000Y-42707064D02*
X16635000Y-42252936D01*
%TO.C,C641*%
X28265000Y-110081252D02*
X28265000Y-109558748D01*
X29735000Y-110081252D02*
X29735000Y-109558748D01*
%TO.C,R231*%
X75265000Y-19847064D02*
X75265000Y-19392936D01*
X76735000Y-19847064D02*
X76735000Y-19392936D01*
%TO.C,C302*%
X41465000Y-27501252D02*
X41465000Y-26978748D01*
X42935000Y-27501252D02*
X42935000Y-26978748D01*
%TO.C,J5*%
X4620000Y-41100000D02*
X6000000Y-41100000D01*
X4620000Y-42480000D02*
X4620000Y-41100000D01*
X4620000Y-43750000D02*
X4620000Y-46400000D01*
X4620000Y-43750000D02*
X7380000Y-43750000D01*
X4620000Y-46400000D02*
X7380000Y-46400000D01*
X7380000Y-43750000D02*
X7380000Y-46400000D01*
%TO.C,R828*%
X30265000Y-186277063D02*
X30265000Y-185822935D01*
X31735000Y-186277063D02*
X31735000Y-185822935D01*
%TO.C,R254*%
X73265000Y-79567064D02*
X73265000Y-79112936D01*
X74735000Y-79567064D02*
X74735000Y-79112936D01*
%TO.C,U11*%
X13490000Y-153580000D02*
X13725000Y-153580000D01*
X13490000Y-161300000D02*
X13490000Y-153580000D01*
X13725000Y-161300000D02*
X13490000Y-161300000D01*
X26275000Y-153580000D02*
X26510000Y-153580000D01*
X26510000Y-153580000D02*
X26510000Y-161300000D01*
X26510000Y-161300000D02*
X26275000Y-161300000D01*
X13720000Y-162090000D02*
X13250000Y-162430000D01*
X13250000Y-161750000D01*
X13720000Y-162090000D01*
G36*
X13720000Y-162090000D02*
G01*
X13250000Y-162430000D01*
X13250000Y-161750000D01*
X13720000Y-162090000D01*
G37*
%TO.C,C817*%
X67265000Y-131201252D02*
X67265000Y-130678748D01*
X68735000Y-131201252D02*
X68735000Y-130678748D01*
%TO.C,R501*%
X12265000Y-42707064D02*
X12265000Y-42252936D01*
X13735000Y-42707064D02*
X13735000Y-42252936D01*
%TO.C,L802*%
X62900000Y-187549999D02*
X62900000Y-187999999D01*
X62900000Y-187549999D02*
X69100000Y-187549999D01*
X62900000Y-193749999D02*
X62900000Y-193299999D01*
X69100000Y-187549999D02*
X69100000Y-187999999D01*
X69100000Y-193749999D02*
X62900000Y-193749999D01*
X69100000Y-193749999D02*
X69100000Y-193299999D01*
%TO.C,C712*%
X45765000Y-143701252D02*
X45765000Y-143178748D01*
X47235000Y-143701252D02*
X47235000Y-143178748D01*
%TO.C,R555*%
X77265000Y-102427064D02*
X77265000Y-101972936D01*
X78735000Y-102427064D02*
X78735000Y-101972936D01*
%TO.C,C152*%
X57265000Y-127701252D02*
X57265000Y-127178748D01*
X58735000Y-127701252D02*
X58735000Y-127178748D01*
%TO.C,J15*%
X12620000Y-175139999D02*
X14000000Y-175139999D01*
X12620000Y-176519999D02*
X12620000Y-175139999D01*
X12620000Y-177789999D02*
X12620000Y-182979999D01*
X12620000Y-177789999D02*
X15380000Y-177789999D01*
X12620000Y-182979999D02*
X15380000Y-182979999D01*
X15380000Y-177789999D02*
X15380000Y-182979999D01*
%TO.C,R451*%
X51265000Y-94807064D02*
X51265000Y-94352936D01*
X52735000Y-94807064D02*
X52735000Y-94352936D01*
%TO.C,C809*%
X38975000Y-201521251D02*
X38975000Y-200998747D01*
X40445000Y-201521251D02*
X40445000Y-200998747D01*
%TO.C,R355*%
X77265000Y-87187064D02*
X77265000Y-86732936D01*
X78735000Y-87187064D02*
X78735000Y-86732936D01*
%TO.C,C401*%
X29440000Y-35571252D02*
X29440000Y-34148748D01*
X32160000Y-35571252D02*
X32160000Y-34148748D01*
%TO.C,R805*%
X73504999Y-201487063D02*
X73504999Y-201032935D01*
X74974999Y-201487063D02*
X74974999Y-201032935D01*
%TO.C,R352*%
X55265000Y-87187064D02*
X55265000Y-86732936D01*
X56735000Y-87187064D02*
X56735000Y-86732936D01*
%TO.C,C808*%
X35170000Y-201971251D02*
X35170000Y-200548747D01*
X37890000Y-201971251D02*
X37890000Y-200548747D01*
%TO.C,C801*%
X21265000Y-127701252D02*
X21265000Y-127178748D01*
X22735000Y-127701252D02*
X22735000Y-127178748D01*
%TO.C,R553*%
X69265000Y-102427064D02*
X69265000Y-101972936D01*
X70735000Y-102427064D02*
X70735000Y-101972936D01*
%TO.C,R421*%
X57265000Y-35087064D02*
X57265000Y-34632936D01*
X58735000Y-35087064D02*
X58735000Y-34632936D01*
%TO.C,C713*%
X7265000Y-147701252D02*
X7265000Y-147178748D01*
X8735000Y-147701252D02*
X8735000Y-147178748D01*
%TO.C,C431*%
X79265000Y-35121252D02*
X79265000Y-34598748D01*
X80735000Y-35121252D02*
X80735000Y-34598748D01*
%TO.C,R457*%
X53265000Y-139667064D02*
X53265000Y-139212936D01*
X54735000Y-139667064D02*
X54735000Y-139212936D01*
%TO.C,C812*%
X76029999Y-201971251D02*
X76029999Y-200548747D01*
X78749999Y-201971251D02*
X78749999Y-200548747D01*
%TO.C,R141*%
X12265000Y-71947064D02*
X12265000Y-71492936D01*
X13735000Y-71947064D02*
X13735000Y-71492936D01*
%TO.C,C621*%
X60065000Y-50361252D02*
X60065000Y-49838748D01*
X61535000Y-50361252D02*
X61535000Y-49838748D01*
%TO.C,C141*%
X28265000Y-71981252D02*
X28265000Y-71458748D01*
X29735000Y-71981252D02*
X29735000Y-71458748D01*
%TO.C,C201*%
X29440000Y-20331252D02*
X29440000Y-18908748D01*
X32160000Y-20331252D02*
X32160000Y-18908748D01*
%TO.C,C707*%
X28265000Y-143701252D02*
X28265000Y-143178748D01*
X29735000Y-143701252D02*
X29735000Y-143178748D01*
%TO.C,R215*%
X38265000Y-19847064D02*
X38265000Y-19392936D01*
X39735000Y-19847064D02*
X39735000Y-19392936D01*
%TO.C,C602*%
X41465000Y-50361252D02*
X41465000Y-49838748D01*
X42935000Y-50361252D02*
X42935000Y-49838748D01*
%TO.C,C706*%
X24765000Y-143701252D02*
X24765000Y-143178748D01*
X26235000Y-143701252D02*
X26235000Y-143178748D01*
%TO.C,D805*%
X24000000Y-188409999D02*
X24000000Y-184399999D01*
X24000000Y-188409999D02*
X26000000Y-188409999D01*
X26000000Y-188409999D02*
X26000000Y-184399999D01*
%TO.C,C810*%
X52898748Y-193794999D02*
X53421252Y-193794999D01*
X52898748Y-195264999D02*
X53421252Y-195264999D01*
%TO.C,C642*%
X32064999Y-110081252D02*
X32064999Y-109558748D01*
X33534999Y-110081252D02*
X33534999Y-109558748D01*
%TO.C,R542*%
X16265000Y-102427064D02*
X16265000Y-101972936D01*
X17735000Y-102427064D02*
X17735000Y-101972936D01*
%TO.C,R652*%
X55265000Y-110047064D02*
X55265000Y-109592936D01*
X56735000Y-110047064D02*
X56735000Y-109592936D01*
%TO.C,U19*%
X53179999Y-211649999D02*
X53179999Y-215487938D01*
X53179999Y-218049999D02*
X53179999Y-216412060D01*
X53179999Y-220169999D02*
X53179999Y-220589999D01*
X53179999Y-222709999D02*
X53179999Y-223129999D01*
X53179999Y-226887938D02*
X53179999Y-225249999D01*
X53179999Y-227812060D02*
X53179999Y-231649999D01*
X56139999Y-211039999D02*
X55719999Y-211039999D01*
X56139999Y-232259999D02*
X55719999Y-232259999D01*
X58679999Y-211039999D02*
X58259999Y-211039999D01*
X58679999Y-232259999D02*
X58259999Y-232259999D01*
X61219999Y-211039999D02*
X60799999Y-211039999D01*
X61219999Y-232259999D02*
X60799999Y-232259999D01*
X63759999Y-211039999D02*
X63339999Y-211039999D01*
X63759999Y-232259999D02*
X63339999Y-232259999D01*
X66299999Y-211039999D02*
X65879999Y-211039999D01*
X66299999Y-232259999D02*
X65879999Y-232259999D01*
X68839999Y-211039999D02*
X68419999Y-211039999D01*
X68839999Y-232259999D02*
X68419999Y-232259999D01*
X71379999Y-211039999D02*
X70959999Y-211039999D01*
X71379999Y-232259999D02*
X70959999Y-232259999D01*
X73919999Y-211039999D02*
X73499999Y-211039999D01*
X73919999Y-232259999D02*
X73499999Y-232259999D01*
X76459999Y-211039999D02*
X76039999Y-211039999D01*
X76459999Y-232259999D02*
X76039999Y-232259999D01*
X78999999Y-211039999D02*
X78579999Y-211039999D01*
X78999999Y-232259999D02*
X78579999Y-232259999D01*
X81539999Y-211039999D02*
X81119999Y-211039999D01*
X81539999Y-232259999D02*
X81119999Y-232259999D01*
X84079999Y-211039999D02*
X83659999Y-211039999D01*
X84079999Y-232259999D02*
X83659999Y-232259999D01*
X86619999Y-211039999D02*
X86199999Y-211039999D01*
X86619999Y-232259999D02*
X86199999Y-232259999D01*
X89159999Y-211039999D02*
X88739999Y-211039999D01*
X89159999Y-232259999D02*
X88739999Y-232259999D01*
X91699999Y-211039999D02*
X91279999Y-211039999D01*
X91699999Y-232259999D02*
X91279999Y-232259999D01*
X94239999Y-211039999D02*
X93819999Y-211039999D01*
X94239999Y-232259999D02*
X93819999Y-232259999D01*
X96779999Y-211039999D02*
X96359999Y-211039999D01*
X96779999Y-232259999D02*
X96359999Y-232259999D01*
X99319999Y-211039999D02*
X98899999Y-211039999D01*
X99319999Y-232259999D02*
X98899999Y-232259999D01*
X99879999Y-217749999D02*
X99879999Y-218046089D01*
X99879999Y-220403909D02*
X99879999Y-222896089D01*
X99879999Y-225253909D02*
X99879999Y-225549999D01*
X101095999Y-217749999D02*
X99879999Y-217749999D01*
X101095999Y-225549999D02*
X99879999Y-225549999D01*
X101859999Y-211039999D02*
X101439999Y-211039999D01*
X101859999Y-211039999D02*
X101859999Y-210559999D01*
X101859999Y-232259999D02*
X101439999Y-232259999D01*
X103979999Y-211070323D02*
X103979999Y-210559999D01*
X104399999Y-211649999D02*
X104399999Y-214139999D01*
X104399999Y-214139999D02*
X104399999Y-215487939D01*
X104399999Y-216412060D02*
X104399999Y-217414999D01*
X104399999Y-217414999D02*
X104399999Y-225884999D01*
X104399999Y-217749999D02*
X103483999Y-217749999D01*
X104399999Y-225549999D02*
X103483999Y-225549999D01*
X104399999Y-225884999D02*
X104399999Y-226887938D01*
X104399999Y-227812060D02*
X104399999Y-229159999D01*
X104399999Y-231649999D02*
X104399999Y-229159999D01*
X53179999Y-211649999D02*
G75*
G02*
X53600062Y-211070323I610002J-1D01*
G01*
X53600062Y-232229675D02*
G75*
G02*
X53180051Y-231649999I189737J579476D01*
G01*
X103979999Y-211070323D02*
G75*
G02*
X104399999Y-211649999I-190051J-579692D01*
G01*
X104399999Y-231649999D02*
G75*
G02*
X103979936Y-232229675I-610000J0D01*
G01*
%TO.C,R132*%
X83165000Y-12227064D02*
X83165000Y-11772936D01*
X84635000Y-12227064D02*
X84635000Y-11772936D01*
%TO.C,R621*%
X57265000Y-50327064D02*
X57265000Y-49872936D01*
X58735000Y-50327064D02*
X58735000Y-49872936D01*
%TO.C,C837*%
X42265000Y-186311251D02*
X42265000Y-185788747D01*
X43735000Y-186311251D02*
X43735000Y-185788747D01*
%TO.C,C551*%
X81065000Y-102461252D02*
X81065000Y-101938748D01*
X82535000Y-102461252D02*
X82535000Y-101938748D01*
%TO.C,R415*%
X38265000Y-35087064D02*
X38265000Y-34632936D01*
X39735000Y-35087064D02*
X39735000Y-34632936D01*
%TO.C,R657*%
X53265000Y-147667064D02*
X53265000Y-147212936D01*
X54735000Y-147667064D02*
X54735000Y-147212936D01*
%TO.C,C714*%
X10765000Y-147701252D02*
X10765000Y-147178748D01*
X12235000Y-147701252D02*
X12235000Y-147178748D01*
%TO.C,R815*%
X55265000Y-172297064D02*
X55265000Y-171842936D01*
X56735000Y-172297064D02*
X56735000Y-171842936D01*
%TO.C,C121*%
X60065000Y-12261252D02*
X60065000Y-11738748D01*
X61535000Y-12261252D02*
X61535000Y-11738748D01*
%TO.C,R816*%
X59265000Y-172297064D02*
X59265000Y-171842936D01*
X60735000Y-172297064D02*
X60735000Y-171842936D01*
%TO.C,R221*%
X57265000Y-19847064D02*
X57265000Y-19392936D01*
X58735000Y-19847064D02*
X58735000Y-19392936D01*
%TO.C,Q801*%
X60650000Y-166540000D02*
X59350000Y-166540000D01*
X60650000Y-168340000D02*
X59350000Y-168340000D01*
D10*
X58825000Y-166930000D02*
G75*
G02*
X58675000Y-166930000I-75000J0D01*
G01*
X58675000Y-166930000D02*
G75*
G02*
X58825000Y-166930000I75000J0D01*
G01*
%TO.C,R631*%
D11*
X75265000Y-50327064D02*
X75265000Y-49872936D01*
X76735000Y-50327064D02*
X76735000Y-49872936D01*
%TO.C,C351*%
X81065000Y-87221252D02*
X81065000Y-86698748D01*
X82535000Y-87221252D02*
X82535000Y-86698748D01*
%TO.C,C807*%
X31369999Y-201971251D02*
X31369999Y-200548747D01*
X34089999Y-201971251D02*
X34089999Y-200548747D01*
%TO.C,R602*%
X15165000Y-50327064D02*
X15165000Y-49872936D01*
X16635000Y-50327064D02*
X16635000Y-49872936D01*
%TO.C,C402*%
X41465000Y-35121252D02*
X41465000Y-34598748D01*
X42935000Y-35121252D02*
X42935000Y-34598748D01*
%TO.C,R321*%
X57265000Y-27467064D02*
X57265000Y-27012936D01*
X58735000Y-27467064D02*
X58735000Y-27012936D01*
%TO.C,J1*%
X4620000Y-10620000D02*
X6000000Y-10620000D01*
X4620000Y-12000000D02*
X4620000Y-10620000D01*
X4620000Y-13270000D02*
X4620000Y-15920000D01*
X4620000Y-13270000D02*
X7380000Y-13270000D01*
X4620000Y-15920000D02*
X7380000Y-15920000D01*
X7380000Y-13270000D02*
X7380000Y-15920000D01*
%TO.C,C813*%
X79829999Y-201971251D02*
X79829999Y-200548747D01*
X82549999Y-201971251D02*
X82549999Y-200548747D01*
%TO.C,C652*%
X57265000Y-147701252D02*
X57265000Y-147178748D01*
X58735000Y-147701252D02*
X58735000Y-147178748D01*
%TO.C,R814*%
X51265000Y-172297064D02*
X51265000Y-171842936D01*
X52735000Y-172297064D02*
X52735000Y-171842936D01*
%TO.C,R143*%
X20265000Y-71947064D02*
X20265000Y-71492936D01*
X21735000Y-71947064D02*
X21735000Y-71492936D01*
%TO.C,R802*%
X39265000Y-127667064D02*
X39265000Y-127212936D01*
X40735000Y-127667064D02*
X40735000Y-127212936D01*
%TO.C,R256*%
X49265000Y-131667064D02*
X49265000Y-131212936D01*
X50735000Y-131667064D02*
X50735000Y-131212936D01*
%TO.C,C231*%
X79265000Y-19881252D02*
X79265000Y-19358748D01*
X80735000Y-19881252D02*
X80735000Y-19358748D01*
%TO.C,K801*%
X36400000Y-153640000D02*
X36800000Y-153640000D01*
X36400000Y-161340000D02*
X36400000Y-153640000D01*
X36800000Y-161340000D02*
X36400000Y-161340000D01*
X36800000Y-162540000D02*
X36800000Y-161340000D01*
X38500000Y-153640000D02*
X41800000Y-153640000D01*
X38500000Y-161340000D02*
X38500000Y-162540000D01*
X38500000Y-161340000D02*
X41800000Y-161340000D01*
X43500000Y-161340000D02*
X44500000Y-161340000D01*
X44500000Y-153640000D02*
X43500000Y-153640000D01*
X46100000Y-161340000D02*
X47000000Y-161340000D01*
X47000000Y-153640000D02*
X46100000Y-153640000D01*
X48700000Y-161340000D02*
X51500000Y-161340000D01*
X51500000Y-153640000D02*
X48700000Y-153640000D01*
X51500000Y-161340000D02*
X51500000Y-153640000D01*
%TO.C,R454*%
X73265000Y-94807064D02*
X73265000Y-94352936D01*
X74735000Y-94807064D02*
X74735000Y-94352936D01*
%TO.C,C724*%
X45765000Y-147701252D02*
X45765000Y-147178748D01*
X47235000Y-147701252D02*
X47235000Y-147178748D01*
%TO.C,R801*%
X35265000Y-127667064D02*
X35265000Y-127212936D01*
X36735000Y-127667064D02*
X36735000Y-127212936D01*
%TO.C,R830*%
X36265000Y-186277063D02*
X36265000Y-185822935D01*
X37735000Y-186277063D02*
X37735000Y-185822935D01*
%TO.C,C802*%
X24640000Y-128151252D02*
X24640000Y-126728748D01*
X27360000Y-128151252D02*
X27360000Y-126728748D01*
%TO.C,R252*%
X55265000Y-79567064D02*
X55265000Y-79112936D01*
X56735000Y-79567064D02*
X56735000Y-79112936D01*
%TO.C,R601*%
X12265000Y-50327064D02*
X12265000Y-49872936D01*
X13735000Y-50327064D02*
X13735000Y-49872936D01*
%TO.C,C717*%
X21265000Y-147701252D02*
X21265000Y-147178748D01*
X22735000Y-147701252D02*
X22735000Y-147178748D01*
%TO.C,D152*%
X64000000Y-74080000D02*
X64000000Y-70070000D01*
X64000000Y-74080000D02*
X66000000Y-74080000D01*
X66000000Y-74080000D02*
X66000000Y-70070000D01*
%TO.C,C631*%
X79265000Y-50361252D02*
X79265000Y-49838748D01*
X80735000Y-50361252D02*
X80735000Y-49838748D01*
%TO.C,R251*%
X51265000Y-79567064D02*
X51265000Y-79112936D01*
X52735000Y-79567064D02*
X52735000Y-79112936D01*
%TO.C,D552*%
X64000000Y-104560000D02*
X64000000Y-100550000D01*
X64000000Y-104560000D02*
X66000000Y-104560000D01*
X66000000Y-104560000D02*
X66000000Y-100550000D01*
%TO.C,R232*%
X83165000Y-19847064D02*
X83165000Y-19392936D01*
X84635000Y-19847064D02*
X84635000Y-19392936D01*
%TO.C,U13*%
X84565000Y-81090000D02*
X84630000Y-81090000D01*
X84565000Y-85210000D02*
X84565000Y-81090000D01*
X84630000Y-85210000D02*
X84565000Y-85210000D01*
X93370000Y-81090000D02*
X93435000Y-81090000D01*
X93435000Y-81090000D02*
X93435000Y-85210000D01*
X93435000Y-85210000D02*
X93370000Y-85210000D01*
X84630000Y-85750000D02*
X84300000Y-85990000D01*
X84300000Y-85510000D01*
X84630000Y-85750000D01*
G36*
X84630000Y-85750000D02*
G01*
X84300000Y-85990000D01*
X84300000Y-85510000D01*
X84630000Y-85750000D01*
G37*
%TO.C,U3*%
X63565000Y-21370000D02*
X63630000Y-21370000D01*
X63565000Y-25490000D02*
X63565000Y-21370000D01*
X63630000Y-25490000D02*
X63565000Y-25490000D01*
X72370000Y-21370000D02*
X72435000Y-21370000D01*
X72435000Y-21370000D02*
X72435000Y-25490000D01*
X72435000Y-25490000D02*
X72370000Y-25490000D01*
X63630000Y-26030000D02*
X63300000Y-26270000D01*
X63300000Y-25790000D01*
X63630000Y-26030000D01*
G36*
X63630000Y-26030000D02*
G01*
X63300000Y-26270000D01*
X63300000Y-25790000D01*
X63630000Y-26030000D01*
G37*
%TO.C,L801*%
X15129999Y-199059999D02*
X15229999Y-199059999D01*
X15129999Y-200959999D02*
X15329999Y-200959999D01*
X15329999Y-198159999D02*
X15329999Y-199059999D01*
X15329999Y-198159999D02*
X24729999Y-198159999D01*
X15329999Y-199059999D02*
X15129999Y-199059999D01*
X15329999Y-200959999D02*
X15329999Y-201559999D01*
X15329999Y-204359999D02*
X15329999Y-203459999D01*
X24729999Y-198159999D02*
X24729999Y-199059999D01*
X24729999Y-200959999D02*
X24729999Y-201559999D01*
X24729999Y-204359999D02*
X15329999Y-204359999D01*
X24729999Y-204359999D02*
X24729999Y-203459999D01*
%TO.C,R253*%
X69265000Y-79567064D02*
X69265000Y-79112936D01*
X70735000Y-79567064D02*
X70735000Y-79112936D01*
%TO.C,C716*%
X17765000Y-147701252D02*
X17765000Y-147178748D01*
X19235000Y-147701252D02*
X19235000Y-147178748D01*
%TO.C,C221*%
X60065000Y-19881252D02*
X60065000Y-19358748D01*
X61535000Y-19881252D02*
X61535000Y-19358748D01*
%TO.C,D652*%
X64000000Y-112180000D02*
X64000000Y-108170000D01*
X64000000Y-112180000D02*
X66000000Y-112180000D01*
X66000000Y-112180000D02*
X66000000Y-108170000D01*
%TO.C,U22*%
X57090000Y-189089999D02*
X58910000Y-189089999D01*
X57090000Y-189139999D02*
X57090000Y-189089999D01*
X57090000Y-192209999D02*
X57090000Y-192159999D01*
X58910000Y-189089999D02*
X58910000Y-189139999D01*
X58910000Y-192159999D02*
X58910000Y-192209999D01*
X58910000Y-192209999D02*
X57090000Y-192209999D01*
X56550000Y-189139999D02*
X56310000Y-188809999D01*
X56790000Y-188809999D01*
X56550000Y-189139999D01*
G36*
X56550000Y-189139999D02*
G01*
X56310000Y-188809999D01*
X56790000Y-188809999D01*
X56550000Y-189139999D01*
G37*
%TO.C,C331*%
X79265000Y-27501252D02*
X79265000Y-26978748D01*
X80735000Y-27501252D02*
X80735000Y-26978748D01*
%TD*%
M02*
