M48
; DRILL file KiCad 10.0.5 date 1970-01-01T00:00:00
; FORMAT={-:-/ absolute / metric / decimal}
; #@! TF.CreationDate,1970-01-01T00:00:00+00:00
; #@! TF.GenerationSoftware,Kicad,Pcbnew,10.0.5
; #@! TF.FileFunction,MixedPlating,1,4
FMAT,2
METRIC
; #@! TA.AperFunction,Plated,PTH,ViaDrill
T1C0.300
; #@! TA.AperFunction,Plated,PTH,ComponentDrill
T2C1.000
; #@! TA.AperFunction,NonPlated,NPTH,ComponentDrill
T3C1.850
; #@! TA.AperFunction,NonPlated,NPTH,ComponentDrill
T4C2.200
%
G90
G05
T1
X1.664Y-30.617
X2.4Y-29.8
X2.9Y-36.2
X2.9Y-37.3
X3.87Y-144.352
X4.7Y-36.2
X5.183Y-75.436
X6.0Y-74.7
X7.0Y-75.7
X7.6Y-155.84
X7.6Y-159.04
X8.0Y-143.6
X8.0Y-148.2
X8.6Y-122.7
X8.8Y-52.8
X9.1Y-16.6
X9.1Y-31.9
X9.1Y-121.2
X9.617Y-53.536
X9.625Y-142.49
X9.625Y-146.49
X9.9Y-123.0
X9.9Y-124.1
X9.917Y-121.936
X10.2Y-16.6
X10.2Y-31.9
X10.4Y-80.2
X10.71Y-42.153
X11.3Y-61.9
X11.3Y-63.0
X11.325Y-28.899
X11.4Y-140.0
X11.6Y-42.8
X11.8Y-74.0
X11.9Y-40.6
X12.2Y-91.6
X12.7Y-27.9
X12.7Y-155.7
X12.8Y-73.0
X12.9Y-91.0
X12.9Y-148.9
X13.125Y-142.49
X13.125Y-146.49
X13.2Y-145.5
X13.2Y-149.8
X13.3Y-41.9
X13.3Y-70.8
X13.3Y-78.4
X13.3Y-86.4
X13.3Y-93.9
X13.7Y-34.6
X13.7Y-37.4
X13.7Y-59.3
X13.7Y-61.3
X13.9Y-92.0
X14.0Y-183.5
X14.1Y-62.2
X14.3Y-50.1
X14.5Y-26.8
X14.6Y-152.5
X14.635Y-131.79
X14.705Y-37.847
X14.8Y-94.2
X14.913Y-60.418
X15.1Y-148.1
X15.2Y-153.2
X15.3Y-43.4
X15.6Y-27.9
X15.6Y-35.5
X15.6Y-50.7
X15.7Y-70.8
X15.7Y-78.4
X15.905Y-131.79
X15.971Y-48.124
X16.2Y-49.2
X16.5Y-26.3
X16.625Y-142.49
X16.625Y-146.49
X16.7Y-144.4
X16.729Y-25.224
X16.9Y-164.2
X17.1Y-162.0
X17.2Y-147.7
X17.2Y-150.2
X17.3Y-32.3
X17.3Y-33.4
X17.3Y-86.3
X17.3Y-87.9
X17.3Y-127.7
X17.4Y-98.5
X17.4Y-102.9
X17.4Y-108.5
X17.4Y-110.7
X17.464Y-62.982
X17.6Y-49.2
X17.8Y-27.6
X17.8Y-93.7
X17.915Y-28.694
X18.1Y-22.6
X18.2Y-63.8
X18.2Y-65.8
X18.2Y-162.8
X18.3Y-24.1
X18.3Y-32.4
X18.31Y-57.447
X18.315Y-66.894
X18.7Y-95.5
X18.7Y-164.1
X18.8Y-145.3
X19.0Y-161.5
X19.1Y-147.8
X19.2Y-17.2
X19.2Y-56.8
X19.2Y-63.0
X19.2Y-87.9
X19.3Y-25.1
X19.3Y-33.4
X19.6Y-129.2
X19.8Y-24.3
X19.8Y-149.2
X20.0Y-130.8
X20.082Y-43.264
X20.1Y-22.6
X20.125Y-142.49
X20.125Y-146.49
X20.2Y-16.2
X20.3Y-188.32
X20.375Y-191.47
X20.5Y-69.1
X20.6Y-107.7
X20.7Y-35.8
X20.7Y-129.1
X20.8Y-184.4
X20.8Y-185.8
X20.8Y-186.8
X20.9Y-44.0
X20.9Y-93.0
X21.0Y-161.9
X21.017Y-16.936
X21.3Y-95.5
X21.6Y-31.1
X21.6Y-102.9
X21.73Y-19.08
X21.73Y-27.78
X21.73Y-56.56
X21.73Y-65.26
X21.8Y-110.7
X21.9Y-147.6
X22.1Y-70.7
X22.124Y-104.129
X22.3Y-67.3
X22.6Y-125.3
X22.7Y-21.2
X22.8Y-71.4
X22.8Y-72.6
X22.8Y-109.7
X22.8Y-188.2
X22.843Y-32.592
X23.0Y-28.7
X23.0Y-31.1
X23.1Y-101.4
X23.1Y-178.6
X23.175Y-155.84
X23.2Y-27.8
X23.2Y-62.8
X23.2Y-78.7
X23.2Y-93.7
X23.2Y-95.5
X23.2Y-102.5
X23.2Y-103.9
X23.4Y-57.0
X23.4Y-144.2
X23.6Y-22.5
X23.6Y-74.5
X23.625Y-126.49
X23.625Y-142.49
X23.625Y-146.49
X23.7Y-38.8
X23.9Y-68.9
X23.9Y-130.7
X24.1Y-31.2
X24.27Y-19.08
X24.27Y-27.78
X24.27Y-56.56
X24.27Y-65.26
X24.445Y-155.84
X24.5Y-37.6
X24.7Y-71.1
X24.7Y-78.7
X25.0Y-80.9
X25.0Y-87.2
X25.1Y-92.1
X25.1Y-94.8
X25.1Y-148.2
X25.2Y-110.1
X25.5Y-73.7
X25.6Y-103.1
X25.683Y-27.437
X25.715Y-155.84
X26.0Y-45.4
X26.1Y-46.6
X26.3Y-73.2
X26.5Y-84.4
X26.6Y-99.5
X26.7Y-161.9
X26.8Y-25.9
X27.0Y-93.0
X27.125Y-142.49
X27.125Y-146.49
X27.2Y-21.4
X27.2Y-63.0
X27.2Y-145.0
X27.3Y-69.2
X27.494Y-160.615
X27.5Y-56.2
X27.5Y-83.4
X27.6Y-73.4
X27.7Y-88.6
X27.7Y-94.3
X27.9Y-58.6
X28.25Y-125.965
X28.6Y-56.2
X28.6Y-144.2
X28.9Y-57.6
X28.9Y-91.2
X29.1Y-22.1
X29.3Y-162.8
X29.625Y-185.1
X29.8Y-44.0
X29.971Y-22.524
X30.2Y-23.6
X30.3Y-24.5
X30.3Y-88.6
X30.41Y-45.37
X30.433Y-132.012
X30.625Y-70.77
X30.625Y-78.39
X30.625Y-86.01
X30.625Y-93.63
X30.625Y-101.25
X30.625Y-108.87
X30.625Y-142.49
X30.625Y-146.49
X30.7Y-16.9
X30.8Y-52.9
X30.9Y-102.5
X30.9Y-103.9
X31.064Y-100.417
X31.2Y-131.0
X31.4Y-89.7
X31.625Y-126.49
X31.7Y-127.8
X31.8Y-99.6
X31.9Y-52.9
X31.9Y-131.7
X32.2Y-130.0
X32.4Y-95.6
X32.4Y-148.2
X32.5Y-97.9
X32.6Y-104.3
X32.7Y-81.4
X32.7Y-185.7
X32.8Y-75.8
X32.8Y-89.1
X32.9Y-130.7
X33.0Y-70.5
X33.2Y-84.0
X33.2Y-108.6
X33.2Y-110.5
X33.3Y-100.1
X33.5Y-144.3
X33.9Y-84.6
X33.9Y-106.7
X34.0Y-130.7
X34.1Y-104.3
X34.125Y-142.49
X34.125Y-146.49
X34.2Y-145.0
X34.9Y-102.0
X35.3Y-185.7
X35.7Y-48.5
X35.8Y-127.8
X35.9Y-83.7
X36.2Y-42.6
X36.2Y-80.2
X36.2Y-105.2
X36.7Y-35.6
X36.7Y-129.6
X36.8Y-84.1
X36.8Y-90.0
X37.0Y-106.9
X37.1Y-81.4
X37.1Y-108.9
X37.1Y-110.1
X37.333Y-151.712
X37.5Y-79.0
X37.625Y-142.49
X37.625Y-146.49
X37.7Y-71.5
X37.7Y-145.0
X37.794Y-129.715
X38.1Y-48.1
X38.1Y-83.3
X38.1Y-173.6
X38.2Y-127.8
X38.2Y-171.7
X38.2Y-172.7
X38.3Y-138.1
X38.5Y-106.4
X38.6Y-35.6
X38.6Y-42.7
X38.6Y-44.7
X38.7Y-75.2
X38.7Y-174.3
X38.715Y-45.794
X38.73Y-78.8
X38.73Y-87.5
X38.73Y-101.66
X38.73Y-110.36
X38.8Y-151.4
X38.8Y-153.4
X39.053Y-76.863
X39.3Y-148.9
X39.5Y-165.3
X39.6Y-74.3
X39.6Y-127.8
X39.7Y-76.2
X39.7Y-172.7
X39.9Y-64.6
X39.9Y-107.9
X40.0Y-101.6
X40.0Y-111.2
X40.6Y-75.3
X40.6Y-129.6
X40.8Y-126.6
X40.8Y-144.5
X40.8Y-145.6
X40.91Y-69.901
X41.0Y-116.0
X41.125Y-142.49
X41.125Y-146.49
X41.2Y-151.8
X41.27Y-78.8
X41.27Y-87.5
X41.27Y-101.66
X41.27Y-110.36
X41.3Y-147.5
X41.3Y-172.4
X41.4Y-167.2
X41.6Y-127.8
X41.6Y-171.157
X41.6Y-187.0
X41.8Y-70.1
X41.83Y-112.41
X41.85Y-117.472
X42.0Y-93.1
X42.1Y-66.8
X42.2Y-80.6
X42.2Y-151.7
X42.2Y-152.8
X42.254Y-95.06
X42.35Y-168.077
X42.4Y-17.3
X42.6Y-92.4
X42.8Y-70.1
X43.0Y-155.6
X43.2Y-111.8
X43.3Y-95.4
X43.4Y-126.6
X43.5Y-22.8
X43.5Y-157.3
X43.7Y-72.2
X43.8Y-108.5
X43.825Y-11.05
X43.825Y-18.67
X43.825Y-26.29
X43.825Y-33.91
X43.825Y-41.53
X43.825Y-49.15
X44.0Y-66.1
X44.0Y-130.29
X44.0Y-141.5
X44.1Y-77.7
X44.1Y-155.9
X44.3Y-147.4
X44.4Y-187.0
X44.5Y-67.4
X44.5Y-176.5
X44.517Y-71.464
X44.6Y-133.6
X44.625Y-142.49
X44.625Y-146.49
X44.625Y-185.1
X44.7Y-145.0
X44.8Y-88.2
X44.9Y-66.2
X44.924Y-106.271
X45.3Y-105.2
X45.4Y-77.7
X45.4Y-79.2
X45.4Y-137.4
X45.4Y-173.4
X45.5Y-58.0
X45.6Y-18.4
X45.6Y-25.4
X45.6Y-27.4
X45.6Y-36.6
X45.6Y-38.2
X45.6Y-171.157
X45.7Y-43.4
X45.9Y-82.5
X45.97Y-132.99
X46.0Y-98.1
X46.0Y-106.5
X46.0Y-111.0
X46.0Y-112.3
X46.0Y-116.8
X46.0Y-130.0
X46.0Y-131.1
X46.082Y-46.564
X46.2Y-148.1
X46.3Y-66.6
X46.3Y-145.3
X46.4Y-137.4
X46.6Y-80.7
X46.6Y-81.8
X46.8Y-110.3
X46.8Y-111.7
X46.825Y-15.27
X46.825Y-38.13
X46.9Y-47.3
X46.9Y-129.2
X47.1Y-186.1
X47.3Y-135.3
X47.4Y-46.5
X47.4Y-66.5
X47.5Y-43.4
X47.7Y-138.7
X47.7Y-151.7
X47.8Y-68.1
X47.9Y-140.4
X48.0Y-137.0
X48.1Y-22.7
X48.1Y-26.4
X48.125Y-142.49
X48.125Y-146.49
X48.199Y-135.11
X48.2Y-191.8
X48.2Y-193.2
X48.3Y-35.7
X48.3Y-141.4
X48.51Y-150.953
X48.7Y-137.7
X48.8Y-46.5
X48.8Y-64.6
X48.9Y-68.1
X49.0Y-153.3
X49.2Y-101.3
X49.2Y-160.1
X49.3Y-85.8
X49.365Y-15.27
X49.365Y-38.13
X49.4Y-44.3
X49.4Y-151.6
X49.4Y-173.4
X49.41Y-88.753
X49.5Y-77.7
X49.5Y-79.1
X49.5Y-183.5
X49.6Y-140.4
X49.6Y-171.157
X49.625Y-189.7
X49.7Y-46.6
X49.7Y-132.0
X49.9Y-85.1
X50.0Y-110.3
X50.0Y-111.7
X50.2Y-42.9
X50.3Y-78.4
X50.3Y-89.4
X50.3Y-186.2
X50.4Y-150.6
X50.4Y-161.6
X50.45Y-137.455
X50.5Y-135.7
X50.7Y-97.4
X50.7Y-100.7
X50.7Y-104.7
X50.7Y-146.7
X50.7Y-182.7
X50.8Y-48.0
X50.8Y-49.0
X50.8Y-99.1
X50.8Y-127.2
X50.8Y-142.6
X50.9Y-187.9
X50.995Y-112.747
X51.3Y-88.4
X51.3Y-131.7
X51.3Y-134.1
X51.3Y-138.2
X51.4Y-15.6
X51.4Y-18.7
X51.4Y-83.7
X51.4Y-139.1
X51.7Y-72.3
X51.7Y-141.4
X51.7Y-186.7
X51.8Y-104.7
X51.847Y-84.705
X51.9Y-22.8
X51.9Y-26.4
X51.9Y-37.1
X51.9Y-41.2
X51.999Y-96.65
X52.0Y-112.3
X52.163Y-73.727
X52.172Y-99.85
X52.2Y-55.0
X52.3Y-71.1
X52.3Y-86.3
X52.3Y-94.0
X52.3Y-101.6
X52.3Y-108.6
X52.3Y-143.1
X52.4Y-159.2
X52.6Y-66.5
X52.6Y-83.9
X52.6Y-195.9
X52.7Y-140.4
X53.0Y-76.9
X53.0Y-152.5
X53.0Y-179.0
X53.036Y-142.283
X53.1Y-28.7
X53.1Y-92.1
X53.3Y-23.7
X53.3Y-78.4
X53.3Y-81.6
X53.3Y-110.0
X53.3Y-112.0
X53.33Y-80.61
X53.4Y-68.3
X53.4Y-160.8
X53.6Y-20.5
X53.6Y-147.7
X53.6Y-171.157
X53.625Y-166.49
X53.625Y-185.1
X53.7Y-69.6
X53.8Y-71.1
X53.8Y-72.3
X53.8Y-74.2
X53.8Y-108.4
X53.8Y-127.8
X53.8Y-190.6
X53.8Y-198.1
X54.1Y-17.4
X54.1Y-73.3
X54.1Y-79.1
X54.1Y-139.7
X54.2Y-65.1
X54.25Y-189.175
X54.3Y-86.3
X54.4Y-144.4
X54.4Y-180.4
X54.445Y-23.97
X54.445Y-46.83
X54.5Y-162.2
X54.5Y-164.0
X54.55Y-107.101
X54.6Y-132.4
X54.7Y-71.0
X54.7Y-80.0
X54.7Y-81.6
X54.7Y-228.6
X54.7Y-230.0
X54.8Y-14.7
X54.9Y-40.0
X54.9Y-187.8
X55.2Y-135.8
X55.3Y-42.5
X55.3Y-190.65
X55.4Y-110.1
X55.4Y-191.6
X55.5Y-67.4
X55.56Y-196.155
X55.6Y-126.527
X55.6Y-130.528
X55.6Y-134.528
X55.6Y-138.528
X55.6Y-142.528
X55.6Y-146.528
X55.8Y-84.9
X55.8Y-129.2
X56.0Y-15.9
X56.2Y-72.8
X56.2Y-76.4
X56.2Y-148.4
X56.3Y-40.0
X56.3Y-112.7
X56.3Y-183.3
X56.46Y-89.754
X56.5Y-207.7
X56.6Y-93.7
X56.6Y-187.5
X56.7Y-83.6
X56.7Y-195.5
X56.8Y-90.8
X56.8Y-95.8
X56.8Y-103.9
X56.8Y-108.1
X56.8Y-111.9
X56.8Y-120.0
X56.9Y-17.2
X56.9Y-20.5
X56.9Y-84.9
X57.082Y-69.364
X57.1Y-77.0
X57.1Y-79.4
X57.2Y-74.0
X57.2Y-135.8
X57.3Y-100.6
X57.4Y-160.0
X57.6Y-132.4
X57.6Y-144.4
X57.6Y-148.4
X57.6Y-166.528
X57.6Y-171.157
X57.6Y-178.6
X57.6Y-180.4
X57.6Y-188.5
X57.9Y-70.1
X57.96Y-25.254
X58.0Y-69.0
X58.1Y-129.2
X58.2Y-167.94
X58.2Y-183.2
X58.255Y-151.218
X58.3Y-26.3
X58.3Y-28.2
X58.364Y-48.107
X58.4Y-86.8
X58.4Y-87.8
X58.4Y-91.2
X58.5Y-34.4
X58.5Y-35.8
X58.5Y-42.1
X58.5Y-43.4
X58.5Y-49.4
X58.5Y-51.0
X58.5Y-90.1
X58.6Y-154.5
X58.678Y-32.709
X58.7Y-199.7
X58.8Y-96.6
X59.0Y-82.5
X59.0Y-185.6
X59.0Y-188.1
X59.0Y-205.4
X59.1Y-162.2
X59.4Y-20.2
X59.4Y-128.5
X59.4Y-192.9
X59.564Y-12.202
X59.6Y-153.5
X59.6Y-161.4
X59.625Y-126.49
X59.625Y-130.49
X59.625Y-134.49
X59.625Y-138.49
X59.625Y-142.49
X59.625Y-146.49
X59.7Y-103.9
X59.7Y-112.7
X59.7Y-120.0
X59.7Y-203.5
X59.74Y-214.46
X59.74Y-234.24
X59.863Y-21.627
X59.875Y-24.683
X59.9Y-70.2
X59.9Y-74.9
X60.0Y-69.0
X60.0Y-81.5
X60.0Y-87.8
X60.0Y-178.6
X60.0Y-180.4
X60.1Y-18.9
X60.1Y-91.2
X60.2Y-75.8
X60.2Y-93.0
X60.4Y-26.3
X60.4Y-28.2
X60.4Y-35.8
X60.4Y-43.4
X60.4Y-51.0
X60.434Y-163.968
X60.8Y-11.8
X60.8Y-21.7
X60.8Y-94.6
X60.9Y-42.3
X60.9Y-67.1
X60.904Y-69.085
X61.0Y-99.1
X61.064Y-30.117
X61.088Y-38.833
X61.171Y-73.488
X61.2Y-34.4
X61.2Y-48.1
X61.2Y-49.6
X61.2Y-85.5
X61.2Y-100.6
X61.3Y-95.9
X61.34Y-98.054
X61.4Y-40.3
X61.4Y-109.1
X61.5Y-74.5
X61.6Y-129.7
X61.6Y-171.157
X61.601Y-91.51
X61.8Y-29.3
X61.8Y-93.4
X61.85Y-79.572
X61.9Y-21.7
X61.9Y-99.9
X61.9Y-153.6
X62.1Y-152.7
X62.2Y-35.4
X62.2Y-50.6
X62.2Y-86.7
X62.3Y-186.2
X62.315Y-51.694
X62.341Y-21.105
X62.5Y-19.3
X62.563Y-42.653
X62.7Y-78.1
X62.7Y-88.3
X62.7Y-95.5
X62.8Y-29.3
X62.8Y-79.5
X62.863Y-34.753
X62.915Y-80.594
X62.96Y-110.246
X63.0Y-105.7
X63.04Y-89.346
X63.1Y-180.4
X63.3Y-109.2
X63.373Y-61.764
X63.5Y-17.2
X63.7Y-33.2
X63.7Y-79.1
X63.7Y-87.2
X63.7Y-90.4
X63.754Y-28.06
X63.815Y-94.496
X63.847Y-16.35
X63.9Y-83.9
X64.1Y-166.8
X64.1Y-226.6
X64.2Y-21.5
X64.4Y-87.9
X64.4Y-152.7
X64.5Y-19.3
X64.6Y-201.5
X64.6Y-202.9
X64.7Y-86.2
X64.8Y-16.9
X64.8Y-27.4
X64.8Y-28.4
X64.8Y-33.2
X64.8Y-34.6
X64.8Y-61.3
X64.8Y-228.6
X64.8Y-230.0
X64.9Y-108.1
X65.0Y-48.5
X65.0Y-60.0
X65.022Y-104.891
X65.1Y-21.6
X65.2Y-103.2
X65.2Y-150.1
X65.2Y-155.6
X65.2Y-204.5
X65.4Y-79.1
X65.4Y-91.8
X65.4Y-185.8
X65.4Y-194.3
X65.5Y-135.375
X65.5Y-139.925
X65.5Y-163.2
X65.7Y-201.5
X65.7Y-202.9
X65.8Y-75.2
X65.9Y-23.0
X66.1Y-17.7
X66.2Y-29.7
X66.2Y-44.4
X66.2Y-61.8
X66.258Y-87.505
X66.27Y-80.066
X66.6Y-176.6
X66.647Y-45.405
X66.7Y-177.7
X66.73Y-19.08
X66.73Y-27.78
X66.73Y-56.56
X66.73Y-65.26
X66.804Y-76.315
X66.9Y-88.2
X66.9Y-153.4
X67.264Y-72.483
X67.3Y-203.5
X67.4Y-79.1
X67.5Y-70.1
X67.549Y-151.403
X67.7Y-20.8
X67.7Y-56.5
X67.793Y-102.313
X67.9Y-87.2
X68.0Y-55.1
X68.0Y-63.4
X68.0Y-68.6
X68.0Y-73.3
X68.182Y-83.036
X68.3Y-26.0
X68.437Y-80.047
X68.5Y-60.0
X68.5Y-137.3
X68.5Y-228.6
X68.5Y-230.0
X68.6Y-89.1
X68.6Y-101.9
X68.736Y-69.417
X68.775Y-136.025
X69.0Y-33.2
X69.0Y-50.4
X69.0Y-82.3
X69.0Y-166.8
X69.1Y-196.9
X69.2Y-199.0
X69.2Y-208.5
X69.27Y-19.08
X69.27Y-27.78
X69.27Y-56.56
X69.27Y-65.26
X69.3Y-84.0
X69.4Y-95.5
X69.4Y-195.2
X69.6Y-102.9
X69.6Y-110.6
X69.625Y-129.99
X69.64Y-97.787
X69.646Y-89.44
X69.8Y-22.5
X69.8Y-49.9
X70.0Y-169.8
X70.0Y-188.4
X70.037Y-112.654
X70.1Y-80.4
X70.1Y-84.5
X70.1Y-85.9
X70.1Y-195.9
X70.1Y-214.2
X70.9Y-71.1
X70.9Y-177.7
X71.0Y-139.9
X71.0Y-146.9
X71.09Y-198.31
X71.1Y-56.9
X71.1Y-61.9
X71.106Y-159.815
X71.2Y-49.9
X71.3Y-202.5
X71.4Y-79.2
X71.429Y-50.976
X71.6Y-136.7
X71.8Y-21.5
X71.8Y-62.6
X71.96Y-71.846
X72.0Y-132.0
X72.0Y-133.4
X72.1Y-75.5
X72.2Y-59.3
X72.2Y-159.7
X72.3Y-19.4
X72.3Y-70.8
X72.4Y-60.6
X72.44Y-214.46
X72.44Y-234.24
X72.6Y-81.0
X72.8Y-61.6
X72.8Y-79.2
X72.9Y-21.5
X72.9Y-71.7
X73.1Y-144.8
X73.1Y-168.3
X73.2Y-25.3
X73.2Y-26.3
X73.3Y-78.4
X73.4Y-19.4
X73.4Y-77.2
X73.6Y-150.6
X73.6Y-186.2
X73.6Y-199.2
X73.625Y-129.99
X73.69Y-62.247
X73.7Y-85.9
X73.701Y-38.925
X73.725Y-23.683
X73.747Y-9.95
X73.9Y-70.4
X74.0Y-168.5
X74.1Y-61.3
X74.2Y-139.0
X74.3Y-75.5
X74.4Y-200.0
X74.5Y-135.375
X74.5Y-139.925
X74.6Y-92.5
X74.6Y-97.1
X74.7Y-10.5
X74.7Y-38.9
X74.7Y-40.3
X74.724Y-12.829
X74.8Y-60.6
X75.3Y-191.2
X75.35Y-189.175
X75.4Y-87.6
X75.4Y-131.9
X75.5Y-74.3
X75.6Y-88.6
X75.6Y-137.0
X75.7Y-230.6
X75.8Y-12.6
X75.895Y-72.441
X76.0Y-77.2
X76.0Y-112.5
X76.1Y-73.6
X76.1Y-109.2
X76.2Y-70.8
X76.2Y-79.2
X76.2Y-93.9
X76.3Y-111.6
X76.4Y-101.3
X76.4Y-232.0
X76.461Y-81.686
X76.6Y-41.6
X76.7Y-191.3
X77.2Y-94.9
X77.3Y-73.8
X77.39Y-198.31
X77.6Y-161.4
X77.625Y-129.99
X77.7Y-63.4
X77.757Y-162.892
X77.8Y-50.8
X77.8Y-109.1
X77.9Y-86.2
X78.1Y-146.1
X78.3Y-101.2
X78.3Y-191.5
X78.8Y-157.4
X78.9Y-76.7
X78.9Y-153.2
X79.0Y-78.8
X79.5Y-158.1
X79.6Y-50.8
X79.7Y-109.8
X79.7Y-191.5
X79.8Y-94.9
X80.0Y-46.5
X80.0Y-71.1
X80.0Y-103.1
X80.1Y-228.6
X80.1Y-230.1
X80.2Y-43.6
X80.2Y-45.0
X80.2Y-81.9
X80.3Y-34.5
X80.6Y-11.0
X80.6Y-18.7
X80.6Y-26.3
X80.6Y-41.5
X80.6Y-49.2
X80.7Y-155.5
X80.8Y-227.8
X81.007Y-83.536
X81.06Y-151.354
X81.2Y-86.0
X81.295Y-92.447
X81.3Y-109.0
X81.4Y-35.6
X81.4Y-78.6
X81.4Y-101.2
X81.4Y-103.1
X81.4Y-152.4
X81.4Y-156.2
X81.425Y-136.49
X81.6Y-82.7
X81.6Y-189.737
X81.7Y-26.3
X82.0Y-106.8
X82.0Y-112.3
X82.2Y-131.9
X82.3Y-83.4
X82.3Y-84.4
X82.3Y-92.0
X82.4Y-93.1
X82.5Y-202.7
X82.7Y-49.2
X82.8Y-21.6
X82.8Y-81.9
X82.9Y-13.3
X82.9Y-43.8
X82.9Y-110.3
X83.085Y-78.806
X83.1Y-81.0
X83.1Y-106.8
X83.1Y-112.3
X83.1Y-141.3
X83.1Y-159.6
X83.1Y-163.3
X83.2Y-79.9
X83.2Y-84.8
X83.2Y-91.3
X83.2Y-100.8
X83.2Y-203.4
X83.44Y-199.785
X83.6Y-26.3
X83.6Y-27.9
X83.6Y-50.8
X83.6Y-131.9
X83.7Y-201.9
X83.936Y-90.483
X84.0Y-144.1
X84.14Y-198.98
X84.2Y-107.6
X84.25Y-86.253
X84.3Y-16.8
X84.3Y-20.7
X84.3Y-54.3
X84.3Y-62.1
X84.3Y-82.3
X84.5Y-158.8
X84.6Y-205.2
X84.8Y-85.3
X84.9Y-87.7
X85.0Y-148.8
X85.14Y-214.46
X85.14Y-234.24
X85.2Y-137.7
X85.5Y-150.4
X85.625Y-129.99
X85.625Y-142.99
X85.7Y-75.3
X86.1Y-85.2
X86.2Y-82.3
X86.467Y-148.488
X86.5Y-23.8
X86.5Y-66.0
X86.5Y-146.8
X86.6Y-75.2
X86.6Y-150.4
X87.2Y-28.1
X87.2Y-59.2
X87.73Y-78.8
X87.73Y-87.5
X87.73Y-101.66
X87.73Y-110.36
X87.8Y-158.8
X87.9Y-66.0
X88.1Y-24.3
X88.1Y-25.3
X88.3Y-75.3
X88.6Y-98.6
X88.7Y-80.7
X88.8Y-23.6
X89.1Y-77.8
X89.3Y-85.1
X89.3Y-99.3
X89.4Y-209.9
X89.5Y-195.5
X89.5Y-196.7
X89.5Y-208.0
X89.5Y-227.0
X89.6Y-97.6
X89.73Y-19.08
X89.73Y-27.78
X89.73Y-56.56
X89.73Y-65.26
X90.2Y-188.2
X90.2Y-210.6
X90.27Y-78.8
X90.27Y-87.5
X90.27Y-101.66
X90.27Y-110.36
X90.5Y-197.7
X90.7Y-20.7
X90.7Y-143.2
X90.8Y-209.3
X91.2Y-144.7
X91.2Y-187.2
X91.3Y-60.2
X91.4Y-61.3
X91.5Y-105.2
X91.9Y-143.4
X92.0Y-76.8
X92.27Y-19.08
X92.27Y-27.78
X92.27Y-56.56
X92.27Y-65.26
X92.5Y-197.3
X92.6Y-230.1
X92.685Y-77.506
X92.8Y-78.6
X92.8Y-88.4
X92.8Y-91.2
X92.946Y-143.74
X93.2Y-21.4
X93.9Y-58.9
X94.1Y-61.8
X94.6Y-80.4
X95.0Y-198.7
X95.3Y-209.3
X95.3Y-210.7
X95.5Y-60.5
X95.5Y-85.7
X95.7Y-66.8
X95.8Y-65.7
X96.7Y-199.8
X97.84Y-214.46
X97.84Y-234.24
X101.74Y-199.785
X105.4Y-184.8
T2
X6.0Y-12.0
X6.0Y-14.54
X6.0Y-19.62
X6.0Y-22.16
X6.0Y-27.24
X6.0Y-29.78
X6.0Y-34.86
X6.0Y-37.4
X6.0Y-42.48
X6.0Y-45.02
X6.0Y-50.1
X6.0Y-52.64
X6.0Y-198.26
X6.0Y-200.8
X14.0Y-176.52
X14.0Y-179.06
X14.0Y-181.6
X20.0Y-176.52
X20.0Y-179.06
X20.0Y-181.6
X26.0Y-176.52
X26.0Y-179.06
X32.0Y-176.52
X32.0Y-179.06
X32.0Y-181.6
X38.0Y-176.52
X38.0Y-179.06
X44.94Y-201.26
X47.48Y-201.26
X50.02Y-201.26
X55.1Y-201.26
X57.64Y-201.26
X60.18Y-201.26
X62.72Y-201.26
T3
X99.76Y-219.225
X99.76Y-224.075
T4
X102.79Y-218.925
X102.79Y-224.375
M30
